<?xml version="1.0" standalone="no"?>
<!DOCTYPE svg PUBLIC "-//W3C//DTD SVG 1.1//EN" "http://www.w3.org/Graphics/SVG/1.1/DTD/svg11.dtd" >
<svg xmlns="http://www.w3.org/2000/svg" xmlns:xlink="http://www.w3.org/1999/xlink" version="1.1">
<metadata></metadata>
<defs>
<font id="pf_beausans_proitalic" horiz-adv-x="3723" >
<font-face units-per-em="2048" ascent="1536" descent="-512" />
<missing-glyph horiz-adv-x="552" />
<glyph unicode="fj" horiz-adv-x="1097" d="M90 -379l182 1313h-149q-34 0 -23 29l6 47q1 17 7.5 23t25.5 11l154 29l14 105q22 153 123.5 241t296.5 88q166 0 291 -41q17 -7 8 -32l-22 -91q-7 -28 -33 -18q-108 29 -250 29q-65 0 -111 -14t-71.5 -40.5t-38 -53.5t-19.5 -64l-14 -107h569q19 0 25 -6t2 -25 l-113 -901q-27 -190 -82.5 -309.5t-141 -185t-220.5 -99.5q-13 -4 -22 0.5t-11 16.5l-33 104q-3 26 25 35q69 24 120 55.5t83 66t53.5 82t32.5 92.5t20 110l100 823h-430l-155 -1258q-1 -20 -8 -28.5t-25 -14.5l-135 -43q-19 -8 -26.5 0t-4.5 31z" />
<glyph unicode="ffj" horiz-adv-x="1667" d="M88 -385l184 1317h-149q-28 0 -25 24l8 43q6 30 11 34q7 6 24 9l150 31q3 13 7 40.5t7 41.5q57 326 418 326q147 0 299 -41q112 73 276 73q154 0 293 -40q11 -3 14 -8.5t2 -10.5t-5 -14l-27 -92q-4 -16 -12 -19.5t-21 2.5q-159 29 -250 29q-120 0 -173.5 -47t-67.5 -125 l-19 -113h570q18 0 24 -6t2 -25l-112 -901q-27 -190 -82.5 -309.5t-141.5 -185t-221 -99.5q-13 -4 -22 0.5t-11 16.5l-32 104q-3 26 24 35q69 24 120 55.5t83 66t53.5 82t32.5 92.5t20 110l101 823h-430l-152 -1151q-5 -21 -10.5 -29t-22.5 -14l-123 -43q-19 -6 -26 0.5 t-4 26.5l170 1208h-400l-166 -1256q-6 -32 -32 -41l-125 -43q-18 -8 -26.5 -3.5t-4.5 26.5zM465 1075h397l17 109q7 57 36 127q-122 16 -190 16t-116 -14t-74 -40.5t-38.5 -54.5t-19.5 -67z" />
<glyph unicode="&#xfb00;" horiz-adv-x="1243" d="M88 -385l184 1317h-149q-29 0 -25 26l6 52q3 26 33 32l154 31l14 86q13 76 41.5 134t77 103.5t124.5 69t177 23.5q122 0 274 -35q82 64 215 64q104 0 189 -27q20 -9 10 -33l-24 -94q-2 -7 -4 -10.5t-5.5 -5t-6 -1.5t-7.5 0.5t-8 0.5q-82 12 -141 12q-137 0 -162 -133 l-21 -152h252q21 0 25 -6t2 -22l-13 -86q-3 -29 -32 -29h-254l-156 -1149q-5 -21 -10.5 -29t-22.5 -14l-123 -43q-19 -6 -26 0.5t-4 26.5l170 1208h-400l-166 -1256q-6 -32 -32 -41l-125 -43q-18 -8 -26.5 -3.5t-4.5 26.5zM465 1075h395l23 148q10 59 22 96q-95 18 -182 18 q-225 0 -244 -174z" />
<glyph unicode="&#xfb01;" horiz-adv-x="1097" d="M90 -379l182 1313h-149q-34 0 -23 29l6 47q1 17 7.5 23t25.5 11l154 29l14 105q22 153 123.5 241t296.5 88q166 0 291 -41q17 -7 8 -32l-22 -91q-7 -28 -33 -18q-108 29 -250 29q-65 0 -111 -14t-71.5 -40.5t-38 -53.5t-19.5 -64l-14 -107h569q18 0 23.5 -6.5t3.5 -24.5 l-143 -1013q-4 -20 -11 -25.5t-26 -5.5h-109q-18 0 -24 6t-5 25l127 903h-428l-168 -1258q-1 -20 -7.5 -28.5t-24.5 -14.5l-123 -43q-19 -8 -26.5 0t-4.5 31z" />
<glyph unicode="&#xfb02;" horiz-adv-x="1185" d="M90 -379l182 1313h-149q-34 0 -23 29l6 47q1 17 7.5 23t25.5 11l154 29l14 109q22 153 123.5 241t298.5 88q150 0 270 -34l97 24q18 0 24 -6t2 -25l-174 -1237q-7 -59 3.5 -74.5t52.5 -15.5q25 0 71 4q22 3 25 -20l14 -86q3 -30 -24 -39q-68 -25 -170 -25q-98 0 -133 49 t-21 156l164 1155q-138 23 -207 23q-65 0 -111.5 -14t-72.5 -40t-38.5 -54t-19.5 -66l-14 -111h264q17 0 22 -7.5t5 -23.5l-13 -81q-3 -11 -4 -14.5t-5 -8t-9.5 -5.5t-15.5 -1h-267l-168 -1258q-1 -20 -7.5 -28.5t-24.5 -14.5l-123 -43q-19 -8 -26.5 0t-4.5 31z" />
<glyph unicode="&#xfb03;" horiz-adv-x="1667" d="M88 -385l184 1317h-149q-28 0 -25 24l8 43q6 30 11 34q7 6 24 9l150 31q3 13 7 40.5t7 41.5q57 326 418 326q147 0 299 -41q112 73 276 73q154 0 293 -40q11 -3 14 -8.5t2 -10.5t-5 -14l-27 -92q-4 -16 -12 -19.5t-21 2.5q-159 29 -250 29q-120 0 -173.5 -47t-67.5 -125 l-19 -113h576q18 0 23 -6t3 -20l-145 -1020q-4 -18 -10.5 -23.5t-24.5 -5.5h-111q-19 0 -24.5 6t-3.5 23q68 483 125 903h-426l-156 -1149q-5 -21 -10.5 -29t-22.5 -14l-123 -43q-19 -6 -26 0.5t-4 26.5l170 1208h-400l-166 -1256q-6 -32 -32 -41l-125 -43 q-18 -8 -26.5 -3.5t-4.5 26.5zM465 1075h397l17 109q7 57 36 127q-122 16 -190 16t-116 -14t-74 -40.5t-38.5 -54.5t-19.5 -67z" />
<glyph unicode="&#xfb04;" horiz-adv-x="1757" d="M88 -385l184 1317h-149q-28 0 -25 24l6 54q3 26 33 32l154 31l14 84q21 156 126.5 244t303.5 88q129 0 289 -41q104 72 281 72q147 0 270 -35l96 24q19 0 25 -5.5t2 -24.5l-174 -1237q-7 -59 3 -74.5t52 -15.5q26 0 72 4q21 3 24 -21l15 -86q3 -30 -25 -39 q-66 -24 -170 -24q-98 0 -133 48.5t-21 155.5l164 1156q-120 20 -213 20q-221 0 -241 -172l-17 -119h269q17 0 21.5 -5.5t2.5 -18.5l-12 -90q-2 -17 -8 -23t-25 -6h-268l-156 -1149q-5 -21 -10.5 -29t-22.5 -14l-123 -43q-19 -6 -26 0.5t-4 26.5l170 1208h-400l-166 -1256 q-6 -32 -32 -41l-125 -43q-18 -8 -26.5 -3.5t-4.5 26.5zM465 1075h397q3 20 9 60.5t10 66t13.5 58.5t23.5 57q-103 18 -197 18q-65 0 -111.5 -14.5t-72.5 -41.5t-38.5 -55t-19.5 -65z" />
<glyph unicode="ft" horiz-adv-x="1318" d="M90 -379l182 1313h-149q-29 0 -23 27l6 49q1 17 7.5 23t25.5 11q6 0 77 14.5t77 14.5l20 137q20 148 95.5 225.5t224.5 77.5q115 0 190 -28q27 -7 17 -33l-19 -92q-8 -23 -35 -19q-71 13 -139 13q-79 0 -114.5 -33.5t-47.5 -99.5l-20 -146h432l64 209q6 19 14 25.5 t29 15.5l67 25q13 5 22 -1.5t5 -23.5l-37 -250h223q16 0 20.5 -8t2.5 -23l-11 -81q-5 -18 -10.5 -23.5t-21.5 -5.5h-222l-94 -664q-11 -70 16 -102.5t99 -32.5q39 0 156 15q26 6 26 -17l15 -92v-4.5v-4.5v-4t-0.5 -4t-1.5 -3.5t-2 -3.5t-2.5 -3t-3.5 -3l-5 -2.5t-6 -2.5 q-88 -29 -225 -29q-151 0 -205 67.5t-33 213.5l94 676h-426l-168 -1258q-1 -20 -7.5 -28.5t-24.5 -14.5l-123 -43q-19 -7 -27.5 1.5t-3.5 29.5z" />
<glyph horiz-adv-x="0" />
<glyph horiz-adv-x="682" />
<glyph unicode=" "  horiz-adv-x="552" />
<glyph unicode="&#x09;" horiz-adv-x="552" />
<glyph unicode="&#xa0;" horiz-adv-x="552" />
<glyph unicode="!" horiz-adv-x="536" d="M100 94q0 65 45.5 111.5t106.5 46.5q51 0 83 -31.5t32 -81.5q0 -63 -45.5 -110t-108.5 -47q-51 0 -82 31t-31 81zM219 436l96 965q0 12 9 22.5t26 10.5h133q32 0 27 -33l-174 -959q-4 -20 -13 -26t-32 -6h-41q-34 0 -31 26z" />
<glyph unicode="&#x22;" horiz-adv-x="706" d="M227 930l23 477q0 13 8.5 23t26.5 10h147q36 0 31 -33l-113 -473q-6 -19 -15.5 -26t-33.5 -7h-41q-33 0 -33 29zM512 930l23 477q0 13 8.5 23t25.5 10h148q19 0 26 -10.5t2 -22.5l-112 -473q-5 -19 -14.5 -26t-32.5 -7h-41q-19 0 -26 7t-7 22z" />
<glyph unicode="#" horiz-adv-x="1171" d="M76 304q-3 5 2 22l20 57q5 15 12 22t23 7h170l127 381h-176q-17 0 -20 5.5t2 22.5l20 58q5 15 12 21.5t23 6.5h178l90 262q4 17 9.5 21t19.5 4h67q19 0 24 -4.5t1 -20.5l-88 -262h295l88 262q4 16 10 20.5t19 4.5h67q19 0 25 -4.5t2 -20.5l-90 -262h170q28 0 22 -28 l-22 -58q-5 -18 -10.5 -23t-22.5 -5h-174l-131 -381h178q28 0 18 -29l-18 -57q-9 -27 -35 -27h-180q-2 -7 -47 -137t-47 -137q-6 -21 -10 -23t-17 -2h-70q-16 0 -22 4.5t-2 20.5l92 274h-293l-92 -274q-6 -18 -10 -21.5t-21 -3.5h-69q-15 0 -22 4.5t-3 20.5l92 274h-166 q-17 0 -20 5zM426 412h291l129 381h-293z" />
<glyph unicode="$" horiz-adv-x="1163" d="M78 133l49 94q15 21 35 13q109 -53 256 -80l74 524q-240 120 -240 332q0 151 88.5 250.5t251.5 119.5l22 173q4 19 10.5 23.5t24.5 4.5h31q21 0 27 -4.5t2 -23.5l-248 -1760q-4 -18 -10.5 -22t-26.5 -4h-31q-13 0 -18 1t-9 7t1 18l26 199q-181 22 -309 96q-22 10 -6 39z M428 1022q0 -46 22 -80t70 -65l47 329q-68 -20 -103.5 -68.5t-35.5 -115.5zM534.5 -219q-4.5 6 0.5 18l247 1760q4 19 11 23.5t26 4.5h29q21 0 28 -4.5t3 -23.5l-23 -164q118 -15 231 -70q21 -9 9 -31l-49 -106q-9 -22 -29 -12q-98 37 -187 53l-67 -471q71 -36 114.5 -64 t88 -71t65.5 -98t21 -126q0 -177 -108.5 -280t-289.5 -129h2l-26 -191q-4 -18 -11.5 -22t-27.5 -4h-29q-14 0 -19 1t-9.5 7zM680 160q197 47 197 227q0 59 -34.5 103.5t-103.5 82.5z" />
<glyph unicode="%" horiz-adv-x="1781" d="M176 862q0 232 109.5 379.5t296.5 147.5q158 0 233.5 -89.5t75.5 -250.5q0 -233 -107.5 -373.5t-304.5 -140.5q-148 0 -225.5 85.5t-77.5 241.5zM330 868q0 -213 166 -213q68 0 118.5 38t77.5 99.5t40 126.5t13 132q0 215 -167 215q-67 0 -117.5 -38t-77.5 -99.5 t-40 -127.5t-13 -133zM393 -16l1012 1413q11 18 17.5 23t23.5 5h70q29 0 12 -28l-1012 -1413q-10 -17 -20 -23t-27 -6h-61q-31 0 -15 29zM1014 313q0 232 109 380.5t296 148.5q159 0 234.5 -90t75.5 -252q0 -233 -109 -372.5t-305 -139.5q-146 0 -223.5 85t-77.5 240z M1167 322q0 -213 164 -213q56 0 101 25.5t72.5 66t46 93.5t25.5 104.5t7 103.5q0 215 -168 215q-67 0 -117.5 -38t-77.5 -99t-40 -126t-13 -132z" />
<glyph unicode="&#x26;" horiz-adv-x="1437" d="M127 260q0 163 107.5 307.5t275.5 235.5q-47 68 -74.5 149t-27.5 156q0 168 101.5 259t252.5 91q135 0 217 -72t82 -194q0 -62 -19.5 -118.5t-49 -99t-75.5 -83.5t-87 -69t-95 -60q39 -67 97.5 -157t76.5 -120q91 131 177.5 213.5t195.5 114.5q58 14 88 16q23 3 23 -16 l12 -96q3 -24 -25 -27q-57 -9 -106.5 -32t-86 -52.5t-70.5 -70.5t-59.5 -79.5t-55.5 -85.5q-2 -4 -3.5 -6.5t-3.5 -5.5q18 -30 131 -190q8 -11 95 -135q6 -11 1 -22t-18 -11h-131q-31 0 -49 23l-135 190q-101 -113 -211 -175.5t-242 -62.5q-151 0 -230 74.5t-79 210.5z M295 297q0 -168 180 -168q83 0 173 59t159 154q-158 245 -215 342q-64 -38 -113 -75.5t-93 -85.5t-67.5 -105.5t-23.5 -120.5zM575 1116q0 -96 89 -239q41 23 78.5 50.5t75.5 65t60.5 85t22.5 96.5q0 59 -35 99t-104 40q-84 0 -135.5 -55t-51.5 -142z" />
<glyph unicode="'" horiz-adv-x="428" d="M231 930l23 477q0 12 9 22.5t26 10.5h147q19 0 26.5 -10.5t2.5 -22.5l-113 -473q-5 -19 -15 -26t-34 -7h-41q-31 0 -31 29z" />
<glyph unicode="(" horiz-adv-x="575" d="M92 520q0 538 498 965q14 14 35 4l51 -47q14 -11 -2 -27q-387 -399 -387 -889q0 -374 178 -614q9 -15 -4 -23l-62 -47q-13 -9 -18 -8t-14 10q-275 304 -275 676z" />
<glyph unicode=")" horiz-adv-x="583" d="M2 -113q-16 9 2 27q387 399 387 889q0 371 -180 614q-9 15 4 25l66 45q15 10 30 -2q275 -311 275 -676q0 -530 -498 -965q-20 -20 -35 -4z" />
<glyph unicode="*" horiz-adv-x="946" d="M242 1118l34 80q11 32 43 16l220 -100l18 270q-2 11 6 18t21 7h86q12 0 17.5 -4t5.5 -10t-1 -13l-59 -268l250 105q19 5 25.5 1.5t11.5 -16.5l16 -90q4 -12 -3.5 -19.5t-19.5 -9.5l-262 -69l140 -203q9 -15 6.5 -22t-17.5 -19l-69 -49q-16 -9 -24 -11.5t-12 1.5t-7 16 l-103 227l-168 -233q-21 -26 -39 -8l-63 55q-19 16 0 41l194 205l-233 65q-29 10 -14 37z" />
<glyph unicode="+" horiz-adv-x="1171" d="M141 651l17 107q5 20 11.5 27.5t23.5 7.5h368l55 389q1 19 8 24.5t25 5.5h111q18 0 23.5 -5.5t4.5 -24.5l-55 -389h365q17 0 21.5 -8t2.5 -27l-14 -107q-5 -20 -11.5 -26.5t-25.5 -6.5h-362l-56 -391q-4 -20 -11 -25t-26 -5h-108q-19 0 -25 5.5t-2 24.5l54 391h-367 q-19 0 -24 6.5t-3 26.5z" />
<glyph unicode="," horiz-adv-x="473" d="M33 -227l96 463q13 34 37 34h168q22 0 29 -10t2 -24l-199 -457q-2 -3 -5.5 -9.5t-4.5 -8.5t-4 -6t-5 -5t-5.5 -3t-7.5 -2.5t-9 -0.5h-59q-19 0 -28 8t-5 21z" />
<glyph unicode="-" horiz-adv-x="655" d="M78 516l20 139q2 18 8.5 25.5t24.5 7.5h461q16 0 21 -7.5t3 -25.5l-22 -139q-2 -19 -7.5 -26t-23.5 -7h-459q-20 0 -25.5 7.5t-0.5 25.5z" />
<glyph unicode="." horiz-adv-x="514" d="M80 100q0 67 49 116.5t113 49.5q55 0 87.5 -33.5t32.5 -87.5q0 -70 -47 -120t-114 -50q-54 0 -87.5 35.5t-33.5 89.5z" />
<glyph unicode="/" horiz-adv-x="860" d="M-47 -168l878 1733q12 28 41 28h115q29 0 19 -28l-877 -1733q-16 -29 -45 -29h-109q-32 0 -22 29z" />
<glyph unicode="0" horiz-adv-x="1171" d="M96 510q0 181 40.5 341t115.5 282.5t192.5 194t262.5 71.5q232 0 344 -140.5t112 -398.5q0 -259 -71.5 -457t-214.5 -312t-340 -114q-221 0 -331 138.5t-110 394.5zM268 508q0 -81 14.5 -147t46.5 -120t88.5 -84t133.5 -30q94 0 170.5 47.5t125 123t81.5 173.5t47 195 t14 192q0 66 -8.5 122.5t-29.5 106.5t-52.5 85t-80.5 55t-111 20q-94 0 -170.5 -48t-125.5 -124t-82 -175.5t-47 -197.5t-14 -194z" />
<glyph unicode="1" horiz-adv-x="1171" d="M197 33l12 94q2 20 9 27.5t26 7.5h235l146 1034l-234 -37q-19 -4 -25 1.5t-4 23.5l13 80q3 34 37 43l299 88q51 13 81 -1t23 -59l-164 -1173h244q18 0 23 -8t0 -27l-13 -94q-4 -14 -6 -19.5t-8.5 -9.5t-18.5 -4h-651q-18 0 -23.5 7.5t-0.5 25.5z" />
<glyph unicode="2" horiz-adv-x="1171" d="M78 102q-2 74 52.5 173t166.5 206q130 128 346 256q158 90 224.5 164t66.5 170q0 84 -65 129t-183 45q-76 0 -166 -31t-164 -84q-27 -21 -45 3l-53 81q-13 25 14 43q97 68 211.5 105t225.5 37q179 0 289 -82t110 -240q0 -147 -99 -258.5t-292 -218.5q-93 -50 -176 -111.5 t-161 -149t-114 -177.5h688q34 0 25 -33l-12 -96q-5 -20 -10.5 -26.5t-24.5 -6.5h-729q-68 0 -96.5 23.5t-28.5 78.5z" />
<glyph unicode="3" horiz-adv-x="1171" d="M66 109q-16 16 2 36l57 86q18 27 47 5q66 -46 154.5 -72.5t169.5 -26.5q158 0 249.5 81.5t96.5 205.5q5 99 -68.5 164t-193.5 65h-60q-28 0 -37.5 9t-5.5 38l10 64q4 30 15 40.5t35 10.5h49q126 0 212.5 70.5t86.5 163.5q0 53 -22 91t-60 57.5t-80.5 28.5t-93.5 9 q-167 0 -324 -94q-33 -20 -49 2l-43 90q-11 25 10 35q96 64 214 98.5t231 34.5q121 0 212.5 -36.5t144 -115t44.5 -190.5q-7 -113 -84 -201t-186 -127l-2 -8q104 -26 167.5 -107t59.5 -206q-8 -190 -148 -311.5t-364 -121.5q-131 0 -253.5 31t-192.5 101z" />
<glyph unicode="4" horiz-adv-x="1171" d="M47 391l4 31q9 65 58 119l692 780q68 84 123 84h57q54 0 72 -23t10 -79l-119 -840h143q35 0 29 -31l-12 -90q-4 -19 -12 -25t-25 -6h-143l-39 -280q-4 -20 -11.5 -25.5t-25.5 -5.5h-111q-19 0 -24.5 6t-1.5 25l37 278h-617q-44 0 -66.5 16t-17.5 66zM254 471l2 -8h514 l98 704l-4 4z" />
<glyph unicode="5" horiz-adv-x="1171" d="M76 113q-16 16 2 37l61 83q12 14 19.5 15.5t29.5 -10.5q128 -99 332 -99q168 0 275.5 91t107.5 243q0 116 -72.5 171.5t-187.5 55.5q-69 0 -131.5 -13t-94 -25t-110.5 -46q-29 -10 -43.5 -9t-40.5 9l-26 13q-50 26 -33 88l123 538q13 61 51 91t84 30h661q20 0 25 -7.5 t0 -25.5l-12 -94q-6 -35 -35 -35h-610l-103 -417q152 63 328 63q184 0 295.5 -95.5t111.5 -272.5q0 -156 -74.5 -275t-203.5 -181.5t-293 -62.5q-293 0 -436 140z" />
<glyph unicode="6" horiz-adv-x="1171" d="M100 496q0 144 27.5 276t87 248t145.5 201.5t209.5 134.5t272.5 49q141 0 221 -35q12 -6 14 -12.5t-2 -26.5l-28 -92q-4 -16 -14.5 -19t-28.5 3q-86 22 -168 22q-195 0 -327 -122t-183 -330q81 28 183 44.5t187 16.5q189 0 303.5 -93t114.5 -276q0 -106 -32.5 -193.5 t-85 -144.5t-122.5 -96.5t-142.5 -56.5t-147.5 -17q-242 0 -363 134.5t-121 384.5zM274 467q0 -152 81.5 -243t226.5 -91q154 0 254 86t100 236q0 109 -66.5 173t-197.5 64q-182 0 -381 -59q-17 -83 -17 -166z" />
<glyph unicode="7" horiz-adv-x="1171" d="M180.5 12q-5.5 12 5.5 31l768 1174h-721q-18 0 -23.5 7.5t-0.5 26.5l12 92q5 20 11 26.5t24 6.5h827q40 0 60.5 -15.5t13.5 -55.5l-6 -50q-8 -57 -41 -104l-737 -1120q-9 -14 -12.5 -19t-12.5 -8.5t-24 -3.5h-123q-15 0 -20.5 12z" />
<glyph unicode="8" horiz-adv-x="1171" d="M90 319q0 137 85.5 255t221.5 163l2 6q-87 34 -127.5 106t-40.5 150q0 95 42.5 173.5t113.5 128.5t158.5 77t181.5 27q181 0 285 -91t104 -235q0 -64 -21.5 -123.5t-79.5 -119t-147 -93.5l-2 -6q107 -35 158 -117.5t51 -193.5q0 -59 -18.5 -119.5t-60 -120.5t-102 -106 t-153.5 -74.5t-204 -28.5q-219 0 -333 95.5t-114 246.5zM270 350q0 -97 67 -158t212 -61q76 0 137.5 19.5t100 51t65 72t37 80.5t10.5 80q0 106 -77.5 162.5t-198.5 56.5q-85 0 -164 -33.5t-134 -104.5t-55 -165zM406 985q0 -83 66 -132.5t167 -49.5q119 0 209 71.5 t90 178.5q0 88 -61 140t-175 52q-132 0 -214 -76t-82 -184z" />
<glyph unicode="9" horiz-adv-x="1171" d="M137 899q0 106 32.5 193.5t85.5 144.5t123 96.5t143.5 56.5t148.5 17q242 0 361.5 -133.5t119.5 -384.5q0 -120 -20 -232t-58.5 -214t-100.5 -186t-142 -146t-187 -96.5t-231 -34.5q-144 0 -222 34q-14 6 -16 12.5t4 26.5l31 92q4 16 13 19t28 -2q90 -23 168 -23 q193 0 326 122.5t184 330.5q-81 -30 -183 -46t-188 -16q-189 0 -304.5 93t-115.5 276zM315 930q0 -109 67 -173.5t198 -64.5q186 0 383 60q14 68 14 166q0 152 -81 242.5t-226 90.5q-153 0 -254 -86t-101 -235z" />
<glyph unicode=":" horiz-adv-x="532" d="M90 123q11 62 56.5 103.5t105.5 41.5q62 0 96.5 -40.5t24.5 -102.5q-7 -61 -54 -102t-108 -41q-60 0 -94.5 40.5t-26.5 100.5zM205 924q8 60 54 101.5t106 41.5q62 0 96 -41t24 -102q-7 -61 -54 -103.5t-107 -42.5t-94.5 41.5t-24.5 104.5z" />
<glyph unicode=";" horiz-adv-x="520" d="M49 -227l96 463q13 34 39 34h168q22 0 29 -10t2 -24l-199 -457q-2 -3 -5 -8.5t-4 -7.5t-3.5 -6t-4 -5t-4.5 -3.5t-6 -3t-7 -1t-9 -0.5h-59q-19 0 -28 8t-5 21zM223 924q7 60 54.5 101.5t107.5 41.5t93.5 -40.5t25.5 -102.5t-54 -104t-106 -42q-61 0 -96 42t-25 104z" />
<glyph unicode="&#x3c;" horiz-adv-x="1171" d="M143 668q0 3 5.5 31.5t5.5 31.5q4 26 15.5 38t41.5 26l942 424q20 6 26.5 0.5t4.5 -23.5l-15 -111q-5 -21 -11.5 -31.5t-22.5 -17.5l-760 -338l655 -323q22 -13 27.5 -22t1.5 -31l-17 -105q-2 -11 -10.5 -17.5t-19.5 -0.5l-828 419q-16 9 -22.5 13.5t-12.5 14t-6 22.5z " />
<glyph unicode="=" horiz-adv-x="1171" d="M161.5 443q-4.5 7 0.5 26l12 98q5 19 11 26t22 7h821q19 0 23.5 -8t-0.5 -25l-13 -98l-4 -16t-4.5 -9.5t-9 -6.5t-14.5 -1h-822q-18 0 -22.5 7zM213 806.5q-5 7.5 0 24.5l12 101q5 19 11 25t22 6h821q19 0 23.5 -7t-0.5 -24l-12 -101q-4 -14 -6 -19t-8.5 -9t-18.5 -4 h-821q-18 0 -23 7.5z" />
<glyph unicode="&#x3e;" horiz-adv-x="1171" d="M82 217l16 119q5 23 12.5 33t30.5 22l748 324l-664 338q-16 7 -20 17t-2 30l16 96q3 36 33 23l827 -424q26 -15 34.5 -27.5t4.5 -36.5q0 -3 -5 -31.5t-5 -31.5q-4 -19 -16 -28.5t-39 -21.5l-942 -419q-16 -6 -23.5 0t-5.5 18z" />
<glyph unicode="?" horiz-adv-x="1042" d="M217 1264q-10 29 16 43q93 69 211 105t220 36q179 0 287 -79t108 -234q0 -66 -21 -124.5t-62.5 -109t-80.5 -86.5t-98 -82q-13 -11 -48 -38t-50 -39.5t-43.5 -37t-42 -41.5t-30.5 -40t-26 -46t-12 -47l-10 -57q-4 -18 -8.5 -22.5t-16.5 -4.5h-125q-15 0 -20.5 5.5 t-4.5 21.5l11 64q4 33 15 65t22 56t36 53.5t38.5 45t48 44t47 38t52.5 39t48 35.5q201 147 201 283q0 77 -52.5 126.5t-177.5 49.5q-69 0 -162 -29.5t-170 -78.5q-34 -19 -45 2zM270 96q2 66 49 114t113 48q41 0 78 -28.5t37 -88.5q0 -68 -46 -116t-112 -48 q-54 0 -86.5 32.5t-32.5 86.5z" />
<glyph unicode="@" horiz-adv-x="1925" d="M190 553q0 162 44 306.5t126.5 258t195.5 196.5t256.5 127t303.5 44q157 0 288.5 -42.5t228 -123t150.5 -204t54 -277.5q0 -273 -128 -432.5t-329 -159.5q-95 0 -154 33.5t-73 89.5q-59 -47 -134 -73t-145 -26q-139 0 -219 82t-80 242q0 113 28 212.5t82.5 179.5 t144.5 126.5t206 46.5q52 0 143 -11.5t146 -33.5q47 -19 37 -70q-25 -136 -53.5 -346t-28.5 -213q-6 -56 24.5 -83t106.5 -27q133 0 211 131t78 336q0 242 -158.5 378t-421.5 136q-152 0 -281 -42t-222 -116t-159 -174.5t-98 -219.5t-32 -249q0 -259 151 -414t422 -155 q121 0 279 37q17 4 22 1t10 -20l15 -59q4 -18 -0.5 -25.5t-22.5 -13.5q-117 -43 -301 -43q-342 0 -527.5 186t-185.5 504zM725 598q0 -98 51.5 -146.5t136.5 -48.5q112 0 222 70q29 264 75 531q-81 20 -176 20q-137 0 -223 -109.5t-86 -316.5z" />
<glyph unicode="A" horiz-adv-x="1228" d="M-17.5 11q-4.5 11 1.5 28l637 1317q23 50 44 65.5t68 16.5h58q52 0 68.5 -16t27.5 -66l262 -1317q5 -15 -2 -27t-25 -12h-121q-15 0 -22 1t-13.5 8t-9.5 22l-55 301h-561l-141 -301q-11 -18 -20 -24.5t-27 -6.5h-146q-19 0 -23.5 11zM410 498h460l-71 426l-51 299h-11 l-131 -289z" />
<glyph unicode="B" horiz-adv-x="1280" d="M113 102l170 1229q11 56 36.5 80.5t79.5 24.5l461 2q165 0 265 -79t100 -239q0 -65 -23 -126.5t-76.5 -117t-130.5 -83.5l-2 -13q101 -39 149 -120t48 -187q0 -221 -144.5 -347t-375.5 -126h-471q-54 0 -74 24q-14 17 -14 50q0 13 2 28zM305 172h373q75 0 134 22 t93.5 54.5t57 76t30.5 81.5t8 75q0 102 -62 160.5t-187 58.5h-373zM401 860h363q29 0 60.5 6t68 23t65 42.5t47.5 70t19 100.5q0 74 -52 119t-143 45h-370z" />
<glyph unicode="C" horiz-adv-x="1187" d="M141 555q0 417 189.5 658t496.5 241q233 0 379 -84q11 -6 11.5 -15t-9.5 -32l-37 -88q-13 -28 -38 -14q-119 61 -297 61q-113 0 -201.5 -42t-144.5 -111.5t-92.5 -165.5t-51 -196t-14.5 -212q0 -95 16.5 -165.5t56 -127t111.5 -86t176 -29.5q156 0 338 80q24 7 29 4 t12 -17q1 -2 2 -3l43 -86q16 -35 -16 -53q-193 -95 -453 -95q-257 0 -381.5 142.5t-124.5 435.5z" />
<glyph unicode="D" horiz-adv-x="1341" d="M109 102l172 1229q8 55 35 80t83 25l357 2l-2 -2q269 0 400.5 -149.5t131.5 -426.5q0 -190 -45.5 -346.5t-133 -271.5t-224 -178.5t-310.5 -63.5h-376q-90 0 -90 78q0 11 2 24zM303 170h275q112 0 201 37t148.5 99.5t99 150t56.5 184.5t17 207q0 98 -17.5 170t-59 130 t-117.5 88t-185 30h-264z" />
<glyph unicode="E" horiz-adv-x="1148" d="M141 241.5q0 51.5 6 108.5l101 733q11 78 31.5 135.5t59.5 110t107 80t162 27.5h549q22 0 28.5 -9t4.5 -34l-14 -86q-2 -24 -10.5 -32.5t-32.5 -8.5h-521q-83 0 -124.5 -37.5t-53.5 -118.5l-37 -266h631q22 0 27.5 -9t3.5 -34l-12 -78q-2 -22 -10.5 -31.5t-30.5 -9.5 h-631l-51 -356q-3 -20 -3 -37q0 -117 138 -117h561q24 0 30 -9.5t1 -33.5l-11 -86q-5 -25 -13 -34t-30 -9h-563q-78 0 -135.5 18.5t-89.5 50.5t-50 76.5t-18 96z" />
<glyph unicode="F" horiz-adv-x="1130" d="M102 39l146 1044q11 79 30.5 136t59 109.5t108.5 80t168 27.5h549q22 0 28.5 -9t4.5 -34l-14 -84q-2 -25 -10.5 -34t-32.5 -9h-527q-84 0 -125 -36.5t-53 -117.5l-39 -287h625q24 0 31 -8.5t2 -32.5l-13 -79q-5 -23 -13.5 -33t-29.5 -10h-626l-88 -623q-1 -24 -11 -31.5 t-34 -7.5h-99q-22 0 -31.5 8t-5.5 31z" />
<glyph unicode="G" horiz-adv-x="1294" d="M137 555q0 208 53 378t146.5 284t222.5 175.5t281 61.5q233 0 379 -84q11 -6 11.5 -15t-9.5 -32l-39 -88q-13 -29 -39 -14q-119 61 -295 61q-113 0 -203.5 -42t-149 -111.5t-97 -165t-54.5 -196.5t-16 -212q0 -95 16.5 -165.5t56 -127t111.5 -86t176 -29.5q160 0 279 50 l73 505q1 24 11.5 31.5t35.5 7.5h97q24 0 31.5 -7.5t3.5 -31.5l-76 -567q-6 -41 -39 -61q-169 -97 -438 -97q-268 0 -398.5 142.5t-130.5 435.5z" />
<glyph unicode="H" horiz-adv-x="1366" d="M102 39l191 1356q4 24 14.5 31.5t32.5 7.5h100q25 0 33 -7.5t4 -31.5l-78 -557h701l78 557q4 24 13.5 31.5t33.5 7.5h100q25 0 31.5 -7t5.5 -32l-193 -1356q-5 -25 -12.5 -32t-32.5 -7h-100q-25 0 -33 7.5t-4 31.5l90 635h-702l-90 -635q-4 -25 -13 -32t-32 -7h-101 q-22 0 -31.5 8t-5.5 31z" />
<glyph unicode="I" horiz-adv-x="532" d="M127 39l190 1356q4 24 15 31.5t35 7.5h100q24 0 31.5 -7.5t3.5 -31.5l-193 -1356q-1 -24 -10 -31.5t-33 -7.5h-100q-25 0 -34 8t-5 31z" />
<glyph unicode="J" horiz-adv-x="1124" d="M16 103q-2 8 9 32l55 94q13 25 43 4q148 -86 317 -86q94 0 160 26.5t107.5 83t64.5 129t39 179.5l115 830q4 24 14.5 31.5t32.5 7.5h98q25 0 32 -7.5t3 -31.5q-44 -312 -121 -865q-16 -108 -38 -187.5t-61.5 -151.5t-95.5 -117t-140.5 -71t-196.5 -26q-105 0 -219 25.5 t-203 85.5q-13 7 -15 15z" />
<glyph unicode="K" horiz-adv-x="1253" d="M102 39l191 1356q4 24 14.5 31.5t32.5 7.5h96q26 0 33.5 -6t3.5 -29l-100 -715l8 -2l233 260l437 467q25 25 67 25h148q17 0 20 -9t-8 -20l-449 -481l359 -883q15 -41 -25 -41h-100q-35 0 -49.5 6t-24.5 31l-291 747l-366 -397l-51 -348q-1 -24 -10.5 -31.5t-34.5 -7.5 h-97q-22 0 -31.5 8t-5.5 31z" />
<glyph unicode="L" horiz-adv-x="1095" d="M138 230v23q0 40 5 83l150 1063q4 24 14.5 31.5t32.5 7.5h98q25 0 33 -7.5t4 -31.5l-149 -1059q-3 -21 -3 -40q0 -128 144 -128h553q17 0 21.5 -8t2.5 -27l-14 -102q-4 -15 -6 -20t-8.5 -10t-18.5 -5h-567q-74 0 -130 17t-88.5 47.5t-52 73t-21.5 92.5z" />
<glyph unicode="M" horiz-adv-x="1609" d="M102 35l183 1298q7 52 30.5 77.5t79.5 25.5h47q44 0 64.5 -16.5t32.5 -65.5q3 -7 86 -343t92 -358l74 -313h8q25 45 155 305q29 58 190.5 361t186.5 348q25 49 50.5 65.5t68.5 16.5h63q56 0 73 -26q12 -17 12 -46q0 -14 -3 -31l-182 -1298q-4 -23 -12 -29t-29 -6h-100 q-22 0 -29 6.5t-6 28.5l152 1067h-11l-147 -281q-25 -51 -154 -289.5t-155 -281.5q-24 -49 -45.5 -65.5t-67.5 -16.5h-66q-46 0 -63.5 16.5t-28.5 65.5q-8 33 -74.5 284.5t-74.5 284.5l-68 262h-10l-148 -1046q-4 -23 -12 -29t-31 -6h-98q-21 0 -29 6.5t-4 28.5z" />
<glyph unicode="N" horiz-adv-x="1372" d="M102 39l181 1294q8 53 33 78t79 25h51q41 0 59 -16.5t40 -65.5l352 -817l123 -295h6l162 1155q4 24 14.5 31.5t34.5 7.5h96q24 0 30.5 -7.5t2.5 -31.5l-180 -1295q-8 -54 -32 -78t-79 -24h-51q-42 0 -60 17t-38 65l-373 860l-107 250h-6l-159 -1153q-4 -24 -13.5 -31.5 t-34.5 -7.5h-94q-22 0 -31.5 8t-5.5 31z" />
<glyph unicode="O" horiz-adv-x="1400" d="M143 516q0 218 55.5 397.5t151 297t222.5 181.5t272 64q250 0 380 -144t130 -411q0 -151 -29.5 -288.5t-88.5 -253.5t-142.5 -201t-197.5 -133t-247 -48q-246 0 -376 140t-130 399zM326 537q0 -188 80 -290t260 -102q103 0 188.5 41.5t145 113t100.5 167.5t60.5 204.5 t19.5 225.5q0 86 -18 155t-57.5 123t-108 83.5t-162.5 29.5q-102 0 -187.5 -42t-144 -113.5t-99 -168.5t-59 -204.5t-18.5 -222.5z" />
<glyph unicode="P" horiz-adv-x="1202" d="M102 39l183 1294q8 55 34 80t80 25h449q179 0 281 -104.5t102 -282.5q0 -65 -14 -127.5t-50.5 -127t-91.5 -112.5t-145 -78.5t-203 -30.5h-369l-77 -536q-1 -24 -10.5 -31.5t-34.5 -7.5h-97q-22 0 -31.5 8t-5.5 31zM383 741h338q153 0 236 80t83 219q0 43 -11.5 80 t-38 71t-77.5 53.5t-122 19.5h-334z" />
<glyph unicode="Q" horiz-adv-x="1400" d="M143 516q0 218 55.5 397.5t151 297t222.5 181.5t272 64q250 0 380 -144t130 -411q0 -151 -29.5 -288.5t-88.5 -253.5t-142.5 -201t-197.5 -133t-247 -48q-246 0 -376 140t-130 399zM326 537q0 -392 338 -392q127 0 228 63t162.5 170t93.5 239.5t32 279.5q0 389 -349 389 q-102 0 -186.5 -41.5t-142.5 -113t-98.5 -167.5t-59 -203.5t-18.5 -223.5zM541 -244l16 92q2 19 8.5 26t24.5 7h182q171 0 289 -38t184 -87q2 -2 6 -5t5 -4t3.5 -3t2.5 -3t0.5 -3.5t-0.5 -5t-2.5 -6t-4.5 -7.5l-55 -92q-12 -13 -19.5 -12t-29.5 12q-167 94 -410 94h-176 q-18 0 -22 7t-2 28z" />
<glyph unicode="R" horiz-adv-x="1243" d="M102 39l183 1294q8 55 34 80t80 25h455q171 0 270 -96t99 -252q0 -154 -76.5 -257.5t-202.5 -148.5v-8q72 -24 101.5 -73t41.5 -134l54 -432q5 -37 -29 -37h-131q-29 0 -35 27l-47 391q-16 113 -76.5 155.5t-167.5 42.5h-284l-82 -577q-4 -25 -13 -32t-32 -7h-105 q-22 0 -31.5 8t-5.5 31zM395 780h332q148 0 228.5 83t80.5 206q0 84 -53 139.5t-172 55.5h-346z" />
<glyph unicode="S" horiz-adv-x="1132" d="M63 123l54 108q10 23 35 13q190 -97 397 -97q348 0 348 246q0 39 -13 71.5t-32.5 56t-61 50t-78.5 45.5t-104 50q-112 52 -182.5 93.5t-123.5 90t-76 102t-23 121.5q0 184 128.5 284.5t356.5 100.5q103 0 212 -21t192 -61q11 -5 14.5 -11t-0.5 -24l-41 -114 q-13 -24 -29 -15q-178 76 -362 76q-128 0 -199.5 -57.5t-71.5 -153.5q0 -73 74.5 -128t247.5 -132q68 -31 115.5 -55.5t100 -62.5t84 -78t52.5 -96t21 -122q0 -109 -42.5 -193t-117 -133.5t-168 -74.5t-203.5 -25q-311 0 -499 105q-20 14 -5 41z" />
<glyph unicode="T" horiz-adv-x="1087" d="M158 1300l16 101q4 14 6 19.5t8.5 9.5t18.5 4h973q18 0 23.5 -7.5t0.5 -25.5l-14 -101q-2 -19 -8.5 -25.5t-26.5 -6.5h-399l-172 -1229q-5 -25 -12.5 -32t-30.5 -7h-105q-24 0 -33 7.5t-8 31.5l174 1229h-385q-19 0 -23.5 6t-2.5 26z" />
<glyph unicode="U" horiz-adv-x="1351" d="M167 402q1 94 19 219l105 774q4 24 14.5 31.5t32.5 7.5h104q24 0 31 -7.5t6 -31.5l-108 -766q-17 -111 -17 -196q0 -42 4 -78q12 -108 98 -160t267 -52q143 0 270 25l174 1227q4 24 14 31.5t31 7.5h107q23 0 28.5 -7t0.5 -32l-170 -1215q-11 -75 -51.5 -119t-125.5 -61 q-139 -25 -309 -25q-116 0 -200.5 13.5t-148.5 45t-102 80.5q-39 48 -57 121q-18 69 -17 157v10z" />
<glyph unicode="V" horiz-adv-x="1251" d="M178 1409q-3 27 21 27h137q25 0 31 -25q0 -13 73 -420t90 -481q3 -9 31.5 -157.5t30.5 -157.5h10l139 313l424 903q7 17 15 21t28 4h144q19 0 10 -27l-641 -1333q-22 -44 -39.5 -59.5t-56.5 -16.5h-86q-44 0 -63.5 15t-29.5 61z" />
<glyph unicode="W" horiz-adv-x="1652" d="M178 1409q-3 27 19 27h137q28 0 31 -25l34 -856l13 -332h10l117 332l282 791q14 43 40 66.5t77 23.5h84q41 0 57 -22t21 -68l57 -783l21 -340h12l108 342l277 846q9 25 37 25h143q10 0 12.5 -8t-2.5 -19l-460 -1333q-16 -45 -41.5 -60.5t-69.5 -15.5h-84q-37 0 -54 22.5 t-22 67.5l-67 819l-15 314h-8l-110 -316l-295 -817q-19 -46 -41 -68t-60 -22h-84q-45 0 -67.5 15.5t-26.5 60.5z" />
<glyph unicode="X" horiz-adv-x="1114" d="M-28.5 8q-3.5 8 3.5 19l529 712l-305 672q-5 7 1 16t19 9h127q25 0 34.5 -5t16.5 -24l226 -514l368 514q12 17 23.5 23t34.5 6h141q13 0 16.5 -9t-4.5 -20l-489 -664l327 -716q5 -7 0 -17t-16 -10h-133q-24 0 -33.5 5.5t-17.5 23.5l-244 563l-401 -563q-12 -17 -23.5 -23 t-34.5 -6h-149q-13 0 -16.5 8z" />
<glyph unicode="Y" horiz-adv-x="1120" d="M170 1413q-5 6 1 14.5t17 8.5h138q17 0 22.5 -4.5t11.5 -22.5l134 -352l110 -316h8l207 328l223 340q11 17 18.5 22t24.5 5h150q10 0 11.5 -8.5t-3.5 -14.5l-561 -840l-76 -542q-5 -20 -10.5 -25.5t-24.5 -5.5h-114q-18 0 -24 6t-5 25l76 542z" />
<glyph unicode="Z" horiz-adv-x="1206" d="M16 86l7 39q6 36 18 57.5t37 46.5q36 40 482.5 514.5t488.5 522.5v6h-732q-19 0 -24 8t0 25l14 98q2 18 8.5 25.5t24.5 7.5h823q53 0 75 -20q17 -16 17 -48q0 -10 -2 -22l-6 -43q-4 -34 -19.5 -59.5t-45.5 -59.5l-940 -1010v-12h827q18 0 23 -7t0 -26l-13 -96 q-4 -15 -5.5 -19.5t-8 -9t-18.5 -4.5h-947q-46 0 -70 22q-16 15 -17 41q0 10 3 23z" />
<glyph unicode="[" horiz-adv-x="612" d="M57 -141l222 1583q4 14 6.5 19.5t9 9.5t18.5 4h373q18 0 23 -8t0 -25l-9 -74q-5 -19 -10.5 -25t-23.5 -6h-230l-194 -1374h231q17 0 22 -6.5t3 -24.5l-13 -73q-2 -19 -8 -27t-24 -8h-371q-18 0 -22.5 8t-2.5 27z" />
<glyph unicode="\" horiz-adv-x="860" d="M199 1565q-4 15 4.5 21.5t19.5 6.5h115q26 0 35 -28l389 -1733q8 -29 -27 -29h-112q-29 0 -35 29z" />
<glyph unicode="]" horiz-adv-x="612" d="M27 -141l12 73q4 14 6 19t8.5 8.5t18.5 3.5h229l193 1374h-228q-19 0 -23.5 6t-2.5 25l10 74q5 19 11.5 26t23.5 7h372q18 0 23 -8t0 -25l-223 -1583q-2 -19 -8.5 -27t-24.5 -8h-371q-19 0 -23.5 8t-2.5 27z" />
<glyph unicode="^" horiz-adv-x="1042" d="M117.5 784q-3.5 10 7.5 23l457 629q14 19 21.5 28t20 16t27.5 7h33q27 0 36 -8t21 -37l281 -635q13 -31 -21 -31h-114q-33 0 -43 29l-197 463h-6q-12 -19 -160 -226t-162 -231t-24 -30.5t-33 -6.5h-123q-18 0 -21.5 10z" />
<glyph unicode="_" horiz-adv-x="993" d="M-111 -225l5 45q5 20 11 26.5t25 6.5h992q18 0 22 -7t2 -26l-6 -45q-5 -20 -11.5 -26.5t-25.5 -6.5h-991q-18 0 -23 7t0 26z" />
<glyph unicode="`" horiz-adv-x="1007" d="M399 1511q-16 19 9 31l129 62q19 3 24 0.5t14 -15.5l191 -317q7 -18 6 -22.5t-12 -12.5l-53 -35q-22 -11 -45 12z" />
<glyph unicode="a" horiz-adv-x="1112" d="M102 371q0 125 20 232.5t63.5 199.5t108.5 157t159.5 101.5t212.5 36.5q199 0 366 -45q30 -10 36 -23.5t1 -40.5q-68 -464 -125 -907q-3 -26 -33 -41q-158 -64 -409 -64q-108 0 -187 30t-124.5 85t-67 124.5t-21.5 154.5zM279 387q0 -128 64.5 -192t209.5 -64t227 35 q48 379 105 749q-86 29 -223 29q-61 0 -115 -17t-104 -57.5t-85.5 -103t-57 -159.5t-21.5 -220z" />
<glyph unicode="b" horiz-adv-x="1112" d="M90 84l193 1382q4 20 11 25.5t25 5.5h111q19 0 25 -6t2 -25l-60 -411q140 43 277 43q377 0 377 -443q0 -199 -64 -350.5t-194 -239.5t-310 -88q-219 0 -374 70q-25 9 -19 37zM272 162q98 -33 230 -33q75 0 141 31.5t118 93t82.5 161.5t30.5 228q0 299 -241 299 q-134 0 -256 -41z" />
<glyph unicode="c" horiz-adv-x="950" d="M106 406q0 205 60 361t175.5 243.5t270.5 87.5q200 0 316 -72q21 -12 6 -43l-37 -84q-12 -28 -41 -12q-97 51 -238 51q-89 0 -156.5 -45.5t-106 -122.5t-57.5 -167t-19 -191q0 -279 253 -279q127 0 252 53q5 3 9 4t7 2t5.5 0.5t4 -0.5t3.5 -3t2.5 -3.5t3 -4.5t2.5 -5 l39 -86q12 -27 -16 -43q-134 -70 -334 -70q-195 0 -299.5 107.5t-104.5 321.5z" />
<glyph unicode="d" horiz-adv-x="1110" d="M104 412q0 113 22 214t68 187.5t112.5 149.5t160 99t205.5 36q127 0 231 -31l58 399q4 20 10.5 25.5t23.5 5.5h113q19 0 25 -6t2 -25l-193 -1378q0 -1 -1 -4q-8 -22 -22 -29l-8 -4q-170 -74 -415 -74q-104 0 -181 32t-122.5 91t-67 136.5t-21.5 175.5zM285 416 q0 -150 64.5 -217.5t195.5 -67.5q53 0 121 10.5t112 26.5l105 741q-108 35 -221 35q-75 0 -140 -29t-119.5 -89t-86 -165t-31.5 -245z" />
<glyph unicode="e" horiz-adv-x="1005" d="M102 391q0 178 41 315.5t114.5 222t168.5 127t209 42.5q78 0 139.5 -18t100 -46.5t63.5 -66.5t35 -75t10 -75q0 -182 -126 -265t-394 -83q-108 0 -187 12q-6 -47 -6 -86v-9q0 -129 57 -190q59 -63 193 -63q120 0 236 57q17 6 23 4t12 -14l43 -86q9 -25 -19 -41 q-134 -76 -328 -76q-197 0 -291 99.5t-94 314.5zM295 612q73 -8 164 -8q204 0 285 46.5t81 148.5q0 64 -48.5 106.5t-153.5 42.5q-136 0 -219 -84.5t-109 -251.5z" />
<glyph unicode="f" horiz-adv-x="675" d="M90 -379l182 1313h-149q-29 0 -23 27l6 49q1 17 7.5 23t25.5 11q6 0 77 14.5t77 14.5l20 137q20 148 95.5 225.5t224.5 77.5q115 0 190 -28q27 -7 17 -33l-19 -92q-8 -23 -35 -19q-71 13 -139 13q-79 0 -114.5 -33.5t-47.5 -99.5l-20 -146h254q19 0 24 -7t0 -24l-10 -81 q-4 -11 -6.5 -15.5t-9.5 -9t-19 -4.5h-254l-168 -1258q-1 -20 -7.5 -28.5t-24.5 -14.5l-123 -43q-19 -7 -27.5 1.5t-3.5 29.5z" />
<glyph unicode="g" horiz-adv-x="1110" d="M104 414q0 202 63 354t193 240t314 88q217 0 377 -68q21 -9 18 -39l-139 -977q-7 -47 -12 -76.5t-15 -72.5t-21 -71.5t-30 -63.5t-41.5 -57.5t-55 -46.5t-72 -37.5t-91.5 -22t-113 -8.5q-86 0 -187 17.5t-153 41.5q-26 11 -29.5 16.5t5.5 24.5l32 94q5 13 12 17.5t12.5 4 t21.5 -4.5q60 -21 140.5 -36.5t143.5 -15.5q75 0 122 14.5t79 53t48.5 92.5t29.5 145q-147 -45 -275 -45q-194 0 -285.5 116.5t-91.5 322.5zM281 424q0 -143 62.5 -218t180.5 -75q132 0 256 41q8 56 51.5 368t51.5 369q-96 35 -226 35q-76 0 -143 -32t-119.5 -94t-83 -163.5 t-30.5 -230.5z" />
<glyph unicode="h" horiz-adv-x="1116" d="M82 31l201 1435q4 20 11 25.5t25 5.5h109q19 0 25 -6t2 -25l-58 -415q121 47 289 47q111 0 186 -33.5t112 -96.5q36 -62 46 -152q4 -34 4 -72q0 -61 -10 -130l-82 -583q-4 -20 -11.5 -25.5t-25.5 -5.5h-110q-18 0 -24 6t-5 25l82 583q9 61 9 111q1 89 -29 139 q-46 78 -191 78q-168 0 -262 -43l-121 -868q-4 -20 -10.5 -25.5t-24.5 -5.5h-108q-19 0 -26 6t-3 25z" />
<glyph unicode="i" horiz-adv-x="516" d="M121 31l141 1013q4 19 12.5 25t26.5 6h107q20 0 26 -6t2 -25l-141 -1013q-4 -20 -11 -25.5t-26 -5.5h-106q-19 0 -27 6t-4 25zM281 1343q0 56 39.5 98t93.5 42q44 0 72 -30t28 -75q0 -54 -41.5 -94.5t-93.5 -40.5q-41 0 -69.5 28.5t-28.5 71.5z" />
<glyph unicode="j" horiz-adv-x="542" d="M-176 -330q-3 26 24 35q69 24 120 55.5t82.5 65.5t53 82t32.5 93t20 110l131 933q1 19 9.5 25t27.5 6h108q19 0 26 -6t3 -25l-127 -901q-27 -190 -83 -309t-141.5 -183.5t-222.5 -101.5q-25 -9 -28 17zM301 1343q0 56 40.5 98t94.5 42q43 0 72 -30t29 -73 q-1 -56 -42.5 -96.5t-93.5 -40.5q-43 0 -71.5 28.5t-28.5 71.5z" />
<glyph unicode="k" horiz-adv-x="980" d="M80 31l201 1435q4 20 11 25.5t25 5.5h109q18 0 24 -6t5 -25l-129 -901l8 -4l471 498q16 16 39 16h151q10 0 12 -9t-6 -15l-311 -330l228 -698q2 -8 -1 -15.5t-14 -7.5h-123q-34 0 -41 23l-176 567l-272 -277l-39 -282q-4 -20 -10.5 -25.5t-24.5 -5.5h-108q-19 0 -26 6 t-3 25z" />
<glyph unicode="l" horiz-adv-x="540" d="M123 182l180 1284q4 20 10.5 25.5t24.5 5.5h113q19 0 25.5 -6t2.5 -25l-174 -1233q-3 -24 -3 -41q0 -24 6 -34q10 -16 52 -15q26 0 72 4q22 3 25 -20l14 -86q7 -30 -27 -39q-64 -25 -168 -25q-101 -1 -136 49q-23 33 -23 91q0 29 6 65z" />
<glyph unicode="m" horiz-adv-x="1767" d="M82 29l121 882q11 73 43.5 112.5t107.5 55.5q27 7 107 13t129 6q118 0 191.5 -25.5t127.5 -85.5q78 53 187 82t221 29q97 0 167 -24.5t110.5 -69t62.5 -106.5t22 -137.5t-10 -162.5l-80 -569q-5 -19 -10.5 -24t-22.5 -5h-110q-19 0 -26 5.5t-3 23.5l76 540q10 79 10 142 q-1 33 -3 61q-8 82 -63.5 125t-166.5 43q-63 0 -146.5 -20.5t-138.5 -49.5q17 -51 17 -130q0 -69 -13 -160l-78 -551q-4 -19 -10.5 -24t-23.5 -5h-109q-18 0 -24 5.5t-5 23.5l78 551q10 63 10 117q-1 15 -1 29q-4 66 -24.5 113.5t-77 74t-149.5 26.5q-128 0 -196 -16 l-125 -895q-4 -18 -10.5 -23.5t-24.5 -5.5h-108q-19 0 -26 5.5t-3 23.5z" />
<glyph unicode="n" horiz-adv-x="1116" d="M82 31l125 893q18 137 147 155q112 19 246 19q259 0 358 -121q70 -86 70 -249q0 -68 -12 -148l-76 -549q-4 -20 -11 -25.5t-26 -5.5h-108q-18 0 -24 6t-5 25l78 542q9 69 9 124q1 45 -5 81q-14 82 -81.5 122t-201.5 40q-83 0 -186 -16l-125 -893q-4 -20 -10.5 -25.5 t-24.5 -5.5h-108q-19 0 -26 6t-3 25z" />
<glyph unicode="o" horiz-adv-x="1105" d="M102 393q0 167 43 302.5t117 222.5t171.5 133.5t209.5 46.5q196 0 302 -111.5t106 -318.5q0 -317 -147 -504t-400 -187q-196 0 -299 106.5t-103 309.5zM276 410q0 -283 248 -283q77 0 138.5 33t100 87t64.5 126t36.5 145.5t10.5 151.5q0 278 -243 278q-90 0 -160 -45.5 t-111.5 -123t-62.5 -171t-21 -198.5z" />
<glyph unicode="p" horiz-adv-x="1110" d="M23 -385l192 1372q3 26 31 35q179 76 405 76q205 0 302.5 -120t97.5 -329q0 -194 -64 -345.5t-189.5 -239t-293.5 -87.5q-144 0 -252 35l-57 -397q-1 -18 -8 -23.5t-25 -5.5h-111q-19 0 -25.5 5.5t-2.5 23.5zM274 168q115 -37 226 -37q60 0 113 16.5t101 54.5t82.5 96 t55 146t20.5 199q0 160 -66.5 230.5t-195.5 70.5q-54 0 -120 -10.5t-111 -28.5z" />
<glyph unicode="q" horiz-adv-x="1112" d="M104 410q0 316 146.5 502t417.5 186q228 0 383 -70q24 -9 18 -37l-192 -1382q-4 -20 -10.5 -25.5t-24.5 -5.5h-113q-18 0 -24 6t-5 25l60 411q-143 -43 -279 -43q-192 0 -284.5 116.5t-92.5 316.5zM281 420q0 -149 60.5 -218t180.5 -69q136 0 258 41l105 737 q-96 35 -228 35q-75 0 -140.5 -29.5t-119.5 -90t-85 -164.5t-31 -242z" />
<glyph unicode="r" horiz-adv-x="722" d="M113 31l127 899q13 77 42.5 111t104.5 44q151 21 371 21q28 0 36.5 -7.5t2.5 -37.5l-19 -107q-4 -18 -10.5 -26t-15 -7.5t-21.5 1.5q-234 14 -315 16l-131 -907q-4 -20 -10.5 -25.5t-24.5 -5.5h-109q-18 0 -23.5 5.5t-4.5 25.5z" />
<glyph unicode="s" horiz-adv-x="921" d="M51 102l37 84q15 30 45 15q144 -72 309 -72q102 0 165.5 44t64.5 124q0 62 -53 103t-168 87q-144 57 -211.5 126.5t-67.5 170.5q0 148 100.5 231t284.5 83q167 0 301 -60q24 -12 12 -39l-39 -94q-6 -12 -13 -14t-17 4q-122 51 -258 51q-95 0 -147 -43t-52 -112 q0 -53 45 -88.5t166 -84.5q68 -29 111.5 -53.5t89 -62.5t68 -88t22.5 -113q0 -82 -34.5 -146t-93 -102t-131.5 -57t-155 -19q-102 0 -203 20.5t-170 61.5q-23 10 -8 43z" />
<glyph unicode="t" horiz-adv-x="735" d="M119 963l8 59q2 18 7.5 24.5t23.5 10.5l159 30l62 191q6 22 13.5 30.5t27.5 16.5l67 25q13 5 22 -1.5t5 -23.5l-37 -250h244q17 0 21.5 -7.5t2.5 -23.5l-12 -81q-5 -19 -10 -24t-23 -5h-241l-94 -664q-3 -21 -3 -38q0 -42 18 -64q26 -32 99 -33q37 0 154 15q11 5 16.5 1 t7 -7.5t2.5 -12.5l15 -90q1 -8 1 -14.5t-4.5 -11.5t-15.5 -9q-88 -29 -225 -29q-151 0 -206 68q-38 47 -38 132q0 37 7 81l94 676h-146q-33 0 -22 29z" />
<glyph unicode="u" horiz-adv-x="1099" d="M147 489l76 558q4 19 11.5 24.5t25.5 5.5h109q19 0 24.5 -5.5t1.5 -24.5l-76 -547q-14 -86 -14 -150q0 -35 4 -64q12 -81 71.5 -115t190.5 -34q88 0 195 17l127 893q4 20 10.5 25t24.5 5h110q19 0 25 -5.5t2 -24.5l-125 -895q-18 -132 -147 -156q-125 -16 -256 -16 q-263 0 -347 114q-56 76 -57 226q0 75 14 169z" />
<glyph unicode="v" horiz-adv-x="995" d="M133 1055q-3 20 17 20h126q24 0 27 -18l107 -565l53 -334h10l141 329l263 570q6 18 28 18h135q24 0 15 -20l-457 -975q-25 -53 -45.5 -71.5t-65.5 -18.5h-77q-38 0 -58 17.5t-30 70.5z" />
<glyph unicode="w" horiz-adv-x="1458" d="M133 1057q-3 22 19 22h133q21 0 24 -20l27 -592l14 -283h10l111 258l215 514q17 36 40.5 57t68.5 21h61q38 0 52.5 -20t21.5 -64l67 -477l43 -303h13l94 301l194 588q9 20 31 20h133q19 0 13 -22l-349 -975q-19 -55 -45.5 -73.5t-66.5 -18.5h-70q-46 0 -62 16.5t-24 67.5 l-63 426l-41 327h-9l-135 -338l-184 -415q-20 -44 -42.5 -64t-66.5 -20h-73q-39 0 -58.5 18t-23.5 74z" />
<glyph unicode="x" horiz-adv-x="933" d="M-32 9q-3 9 7 22l418 538l-231 475q-6 8 -2 19.5t20 11.5h119q21 0 29.5 -5.5t15.5 -18.5l162 -351l264 351q17 24 45 24h137q11 0 15 -5t2 -11t-6 -10l-371 -471l270 -549q6 -7 3 -18t-19 -11h-131q-15 0 -24 4t-12.5 8t-8.5 13l-189 411l-313 -409q-7 -8 -8 -9.5 t-7 -6.5t-9 -6.5t-9.5 -3t-13.5 -1.5h-137q-13 0 -16 9z" />
<glyph unicode="y" horiz-adv-x="972" d="M-138 -370q-4 6 3 26l35 86q7 19 14.5 21t30.5 -7q121 -43 200 -43q67 0 108.5 34t82.5 124l63 139h-26q-19 0 -27.5 1.5t-19.5 7.5t-17.5 21.5t-11.5 41.5l-166 971q-3 22 16 22h123q24 0 27 -20q4 -20 42 -256.5t42 -255.5l61 -393h13q9 19 182 397l233 508q5 12 11 16 t22 4h129q24 0 15 -22l-572 -1239q-62 -135 -137 -195.5t-193 -60.5q-123 0 -254 55q-25 11 -29 17z" />
<glyph unicode="z" horiz-adv-x="913" d="M-6 70l4 30q11 66 53 105l688 719l-2 6h-540q-20 0 -25.5 5.5t-3.5 22.5l14 86q3 31 33 31h655q47 0 64.5 -17.5t11.5 -58.5l-4 -32q-10 -53 -45 -93l-694 -724l2 -5h622q37 0 27 -28l-10 -86q-5 -19 -11 -25t-24 -6h-746q-70 0 -70 54q0 8 1 16z" />
<glyph unicode="{" horiz-adv-x="702" d="M150 635l12 82q2 14 6.5 19t21.5 9q61 12 94 59t46 144l26 207q25 183 106.5 259.5t260.5 72.5q21 0 18 -17l-14 -100q-3 -22 -25 -22q-146 0 -165 -152l-35 -252q-13 -96 -58.5 -164t-113.5 -100l-2 -8q123 -67 98 -258l-45 -322q-4 -43 0 -74.5t33.5 -54t89.5 -33.5 q9 -3 11 -3.5t5.5 -3.5t2 -5t-0.5 -8l-14 -100q-3 -17 -21 -17q-144 5 -220.5 83t-53.5 245l39 282q13 98 -6.5 144.5t-79.5 60.5q-11 5 -14 9.5t-2 17.5z" />
<glyph unicode="|" horiz-adv-x="436" d="M195 -248v1811q0 19 6.5 24.5t25.5 5.5h109q20 0 26.5 -5.5t6.5 -24.5v-1811q0 -20 -6.5 -25.5t-26.5 -5.5h-109q-18 0 -25 6t-7 25z" />
<glyph unicode="}" horiz-adv-x="702" d="M39 -182l12 100q3 23 25 23q86 4 122.5 45.5t45.5 113.5l43 316q13 94 59.5 159.5t112.5 96.5v8q-57 31 -84.5 95.5t-14.5 160.5l37 256q9 70 -15 110t-108 56q-8 3 -9.5 3.5t-5 3.5t-2 5t0.5 8l14 101q3 16 21 16q141 -5 218 -86.5t54 -251.5l-30 -209q-13 -98 7.5 -145 t78.5 -58q2 -1 5.5 -2.5t4.5 -2t3.5 -2t2.5 -2.5t2 -4.5t0.5 -6.5t-0.5 -8l-12 -82q-1 -13 -6.5 -17.5t-22.5 -9.5q-61 -14 -93.5 -61t-45.5 -144l-37 -270q-25 -183 -106 -259.5t-261 -72.5q-19 0 -16 17z" />
<glyph unicode="~" horiz-adv-x="1171" d="M160 551q-16 16 0 35q140 162 284 162q60 0 133 -34t141 -68t113 -34q44 0 79 26t81 83q16 19 37 4l49 -37q18 -15 2 -41q-62 -89 -128 -131.5t-152 -42.5q-59 0 -129.5 32.5t-136.5 64.5t-113 32q-85 0 -176 -88q-22 -19 -37 -4z" />
<glyph unicode="&#xa2;" horiz-adv-x="1171" d="M207 406q0 200 58.5 354t170.5 242.5t262 93.5l25 182q4 16 11 21.5t20 5.5h39q15 0 19.5 -5.5t0.5 -21.5l-27 -184q152 -14 244 -68q19 -13 4 -43l-35 -84q-13 -29 -43 -12q-86 40 -192 49l-111 -803q109 2 234 53q12 7 19 6t8.5 -3t7.5 -13l41 -86q12 -27 -19 -43 q-118 -66 -313 -70l-27 -182q-1 -17 -6.5 -21.5t-19.5 -4.5h-41q-14 0 -19.5 5t-1.5 21l27 187q-336 38 -336 424zM379 412q0 -234 184 -275l111 797q-77 -10 -135.5 -58.5t-92.5 -123t-50.5 -160.5t-16.5 -180z" />
<glyph unicode="&#xa3;" horiz-adv-x="1171" d="M102 49q0 6 2 12q0 3 1 6.5t2 9t2 9.5q4 25 13.5 41.5t18 24.5t33.5 28q62 48 103.5 106t61 122.5t27 121t7.5 125.5h-162q-17 0 -21 7t-2 26l11 66q2 18 8 25t24 7h146l-6 129q-9 469 452 469q188 0 303 -67q11 -7 11 -15t-7 -28l-32 -80q-10 -26 -41 -10 q-100 49 -228 49q-89 0 -147 -21.5t-86 -60.5t-41 -94.5t-12 -123.5t2 -147h393q18 0 23 -6.5t0 -23.5l-11 -68q-2 -18 -8 -25.5t-24 -7.5h-373q-18 -348 -176 -495h622q15 0 20.5 -3.5t5.5 -11t-1 -18.5l-12 -94q-5 -21 -10.5 -27t-24.5 -6h-805q-35 0 -49.5 12.5 t-12.5 36.5z" />
<glyph unicode="&#xa5;" horiz-adv-x="1171" d="M162 416l6 57q5 19 11.5 26t23.5 7h819q34 0 25 -33l-9 -57l-4 -16t-4.5 -9.5t-9 -6.5t-14.5 -1h-334l-51 -354q-5 -19 -10.5 -24t-24.5 -5h-111q-18 0 -23 5.5t-1 23.5l49 354h-314q-30 0 -24 33zM193 649l10 56q2 18 8.5 25t24.5 7h219l-205 617q-5 6 1 14t19 8h127 q14 0 21.5 -4t11.5 -20l111 -353l80 -286h8l155 286l205 353q15 24 43 24h139q11 0 13.5 -8t-2.5 -14l-375 -617h248q17 0 21.5 -7t2.5 -25l-8 -56q-3 -33 -33 -33h-819q-18 0 -22 6.5t-4 26.5z" />
<glyph unicode="&#xa8;" horiz-adv-x="1116" d="M403 1358q0 46 38 84.5t87 38.5q37 0 66 -29.5t29 -67.5q0 -46 -42 -84t-85 -38q-38 0 -66 29t-27 67zM760 1358q0 47 39.5 85t87.5 38q38 0 66 -29t28 -68q0 -45 -40.5 -83.5t-84.5 -38.5q-41 0 -68.5 28.5t-27.5 67.5z" />
<glyph unicode="&#xa9;" horiz-adv-x="1681" d="M182 717q0 207 97 376.5t267 266t378 96.5q155 0 292 -57t235 -155t155 -235t57 -292q0 -207 -96.5 -376.5t-266 -266.5t-376.5 -97q-208 0 -378 97t-267 266.5t-97 376.5zM285 717q0 -184 82.5 -331.5t229 -230.5t327.5 -83q179 0 324.5 83t229 230.5t83.5 331.5 q0 137 -49 256.5t-133.5 204.5t-202.5 133.5t-252 48.5q-181 0 -327.5 -83t-229 -230t-82.5 -330zM528 700q0 217 108.5 349.5t289.5 132.5q176 0 278 -113q12 -21 -4 -37l-61 -55q-15 -9 -35 8q-72 72 -176 72q-129 0 -196.5 -97.5t-67.5 -259.5q0 -161 68 -258.5 t196 -97.5q104 0 180 76q17 17 33 4l61 -51q18 -14 4 -33q-56 -62 -122.5 -92.5t-157.5 -30.5q-183 0 -290.5 133.5t-107.5 349.5z" />
<glyph unicode="&#xaa;" horiz-adv-x="768" d="M121 815q0 219 104 340t297 121q135 0 246 -29q27 -10 33.5 -23.5t-0.5 -31.5q-42 -258 -80 -571q-1 -16 -8 -23.5t-25 -15.5q-117 -50 -280 -50q-287 0 -287 283zM272 836q0 -92 43 -134.5t131 -42.5q80 0 138 19q24 211 65 455q-51 14 -137 14q-50 0 -91 -15.5 t-75.5 -50t-54 -97t-19.5 -148.5z" />
<glyph unicode="&#xab;" horiz-adv-x="960" d="M141 500q1 15 7.5 29t20 32.5t15.5 22.5l238 321q14 20 28 28.5t44 8.5h98q19 0 22.5 -12t-8.5 -29l-293 -405l189 -394q12 -39 -31 -39h-102q-19 0 -31 5.5t-15.5 10.5t-13.5 21l-151 322q-23 54 -17 78zM465 500q2 12 7.5 24.5t10.5 20.5t13.5 21t11.5 18l237 321 q14 20 28 28.5t42 8.5h98q20 0 24 -12t-7 -29l-293 -405l188 -394q6 -18 -2.5 -28.5t-27.5 -10.5h-103q-20 0 -31.5 5t-16.5 11.5t-11 20.5l-152 322q-23 52 -16 78z" />
<glyph unicode="&#xad;" horiz-adv-x="655" d="M78 516l20 139q2 18 8.5 25.5t24.5 7.5h461q16 0 21 -7.5t3 -25.5l-22 -139q-2 -19 -7.5 -26t-23.5 -7h-459q-20 0 -25.5 7.5t-0.5 25.5z" />
<glyph unicode="&#xae;" horiz-adv-x="1130" d="M184 983q0 198 132.5 333.5t328.5 135.5q195 0 328 -135.5t133 -333.5q0 -194 -135.5 -329.5t-325.5 -135.5q-196 0 -328.5 134.5t-132.5 330.5zM266 983q0 -162 108.5 -274.5t270.5 -112.5q159 0 268 113t109 274q0 166 -108 278.5t-269 112.5q-163 0 -271 -112 t-108 -279zM451 725v496q0 26 10 37.5t35 11.5h182q79 0 126.5 -45.5t47.5 -118.5q0 -42 -23 -78.5t-61 -60.5q45 -17 63 -82l46 -156q5 -5 -0.5 -13.5t-16.5 -8.5h-53q-16 0 -19 16l-45 147q-18 72 -98 72h-108v-217q0 -12 -4 -15t-17 -3h-49q-11 0 -13.5 3t-2.5 15z M537 1018h127q51 0 75.5 23t24.5 61q0 36 -22 61t-72 25h-133v-170z" />
<glyph unicode="&#xb2;" horiz-adv-x="792" d="M131 811q0 47 36.5 103.5t93.5 107.5t117.5 94t117.5 74q98 55 133 86.5t35 77.5q0 42 -37 65t-101 23q-92 0 -200 -60q-4 -2 -11 -5t-10 -4.5t-8 -3t-8.5 -0.5t-7.5 4t-7 9l-38 64q-9 28 18 47q62 38 139 61t146 23q123 0 197.5 -50.5t74.5 -150.5q0 -29 -4.5 -55 t-17.5 -49.5t-23.5 -40.5t-34 -37.5t-37 -31.5t-46 -31t-46 -27.5t-51.5 -28.5q-122 -73 -168 -112q-58 -49 -86 -103h414q23 0 27 -9t-1 -22l-8 -65q-5 -33 -35 -33h-469q-94 0 -94 80z" />
<glyph unicode="&#xb3;" horiz-adv-x="792" d="M117 823q0 9 6 15q23 38 41 61q9 12 18 12q4 0 27 -10q87 -55 199 -55q98 0 150 43t52 108q0 48 -40.5 79.5t-118.5 31.5h-45q-26 0 -34 7t-3 26l10 63q5 18 12.5 24.5t26.5 6.5h41q76 0 121 32.5t45 88.5q0 46 -39 66t-97 20q-91 0 -198 -47q-30 -13 -37 -13 q-8 0 -14 13l-31 65q-4 16 -4 17q0 13 20 24q124 72 293 72q110 0 184 -53t74 -142q0 -134 -129 -200q0 -1 -1 -2t-1 -2v-3q56 -20 84.5 -65.5t28.5 -108.5q0 -118 -98 -198t-250 -80q-174 0 -279 80q-14 11 -14 24z" />
<glyph unicode="&#xb4;" horiz-adv-x="923" d="M528 1253l177 316q15 26 40 20l132 -37q28 -7 10 -32l-256 -308q-11 -16 -21.5 -19t-21.5 3l-51 23q-23 9 -9 34z" />
<glyph unicode="&#xb8;" horiz-adv-x="968" d="M250 -388.5q-1 5.5 6 19.5l18 41q10 16 17 17.5t18 -4.5q64 -23 119 -23q111 0 111 76q0 65 -107 65q-44 0 -51 9q-15 15 2 47l74 161q1 1 3 3.5t2.5 4t2.5 3t4 2.5t5 1.5t7 0.5h62q13 0 8 -15l-62 -133q93 -6 136 -48.5t43 -102.5q0 -66 -65 -119t-169 -53 q-109 0 -172 37q-11 5 -12 10.5z" />
<glyph unicode="&#xb9;" horiz-adv-x="792" d="M209 738.5q-5 7.5 0 27.5l8 63q2 19 9 25t30 6h131l80 561l-135 -24q-9 -1 -16.5 -0.5t-10.5 7t0 19.5l6 56q5 21 10 28t23 13l197 49q37 13 63.5 0.5t20.5 -51.5l-93 -658h136q23 0 29 -6t1 -25l-8 -63q-5 -22 -12 -28.5t-29 -6.5h-413q-22 0 -27 7.5z" />
<glyph unicode="&#xba;" horiz-adv-x="761" d="M121 811q0 216 110 339.5t271 123.5q141 0 212.5 -77.5t71.5 -225.5q0 -202 -107 -321.5t-271 -119.5q-137 0 -212 72.5t-75 208.5zM266 829q0 -174 154 -174q59 0 104.5 28.5t71 75t38.5 99.5t13 109q0 82 -36.5 132t-116.5 50q-109 0 -168.5 -93.5t-59.5 -226.5z" />
<glyph unicode="&#xbb;" horiz-adv-x="960" d="M50.5 73q-4.5 10 8.5 29l297 396l-178 403q-7 17 1.5 29t27.5 12h100q27 0 38 -8.5t20 -28.5l147 -321q2 -4 7.5 -17.5t7 -20t4.5 -22t-1 -24.5q-11 -41 -38 -76l-244 -324q-12 -19 -26.5 -28t-43.5 -9h-104q-19 0 -23.5 10zM377 73q-4 10 8 29l297 396l-180 403 q-5 18 3.5 29.5t26.5 11.5h99q8 0 14 -1t10.5 -1.5t8.5 -3.5t6.5 -4t6 -5.5t4 -5.5t4.5 -8t5 -8l146 -321q2 -4 7.5 -17.5t7 -20t4.5 -22t-1 -24.5q-10 -39 -39 -76l-242 -324q-12 -19 -27 -28t-44 -9h-103q-18 0 -22 10z" />
<glyph unicode="&#xbc;" horiz-adv-x="1781" d="M256 554.5q-5 7.5 0 27.5l8 63q2 19 9 25t30 6h131l80 561l-135 -25q-16 -2 -23.5 3.5t-3.5 23.5l6 55q5 21 10 28t23 13l197 49q37 13 63.5 0.5t20.5 -51.5l-92 -657h135q23 0 29 -6t1 -25l-8 -63q-5 -22 -12 -28.5t-29 -6.5h-413q-22 0 -27 7.5zM426 -16l1012 1413 q11 18 17.5 23t23.5 5h69q30 0 13 -28l-1012 -1413q-10 -17 -20 -23t-27 -6h-62q-30 0 -14 29zM934 238q0 1 2 13t2 13q8 41 39 72l436 457q19 19 27.5 26.5t25.5 16t35 8.5h45q37 0 51.5 -15t10.5 -53l-68 -473h80q21 0 25 -8t2 -29l-9 -51q-1 -2 -2 -7.5t-1.5 -7.5t-2 -6 t-3 -5.5t-4 -3.5t-5.5 -3t-7.5 -1.5t-10.5 -0.5h-80l-21 -147q-4 -23 -11.5 -28t-31.5 -5h-69q-21 0 -27.5 5.5t-5.5 27.5l22 145h-383q-21 0 -34 3t-22 17t-5 40zM1128 309l2 -6h267l49 340h-4q-2 0 -2 2z" />
<glyph unicode="&#xbd;" horiz-adv-x="1781" d="M211 554.5q-5 7.5 0 27.5l8 63q2 19 9 25t30 6h131l80 561l-135 -25q-16 -2 -23.5 3.5t-3.5 23.5l6 55q5 21 10 28t23 13l197 49q37 13 63.5 0.5t20.5 -51.5l-92 -657h135q23 0 29 -6t1 -25l-8 -63q-5 -22 -12 -28.5t-29 -6.5h-413q-22 0 -27 7.5zM362 -16l1012 1413 q11 18 17.5 23t23.5 5h70q29 0 12 -28l-1012 -1413q-10 -17 -20 -23t-27 -6h-61q-31 0 -15 29zM1012 80q0 60 63.5 138t143 138.5t157.5 102.5q96 50 133 83.5t37 78.5q0 43 -37 66.5t-100 23.5q-45 0 -101 -16.5t-102 -45.5q-13 -7 -18.5 -9.5t-14.5 -1t-16 12.5l-39 64 q-11 24 19 45q61 41 136.5 63.5t145.5 22.5q125 0 200 -50.5t75 -150.5q0 -56 -17 -99.5t-62 -82t-73.5 -57t-99.5 -58.5q-7 -4 -10 -6q-60 -34 -98 -57.5t-85 -66.5t-71 -89h415q16 0 22 -3.5t6 -11t-1 -18.5l-10 -63q-4 -33 -35 -33h-467q-96 0 -96 80z" />
<glyph unicode="&#xbe;" horiz-adv-x="1781" d="M199 639q0 8 6 14q26 43 41 62q9 12 18 12q4 0 27 -10q87 -55 198 -55q98 0 150.5 43t52.5 108q0 47 -41 79t-119 32h-45q-26 0 -33.5 6.5t-2.5 25.5l10 64q5 18 12.5 24.5t26.5 6.5h41q76 0 121 32t45 88q0 46 -39 66t-97 20q-91 0 -198 -47q-28 -12 -37 -12 q-8 0 -14 12l-31 66l-4 16q0 14 20 25q124 72 293 72q110 0 184 -53t74 -142q0 -66 -34 -118t-95 -83q0 -1 -1 -2t-1 -2v-2q56 -20 84.5 -65.5t28.5 -108.5q0 -118 -98 -198t-250 -80q-176 0 -279 79q-14 11 -14 25zM451 -16l1011 1413q11 18 17.5 23t23.5 5h70q29 0 12 -28 l-1012 -1413q-10 -17 -20 -23t-27 -6h-61q-30 0 -14 29zM989 238q0 1 2 13t2 13q8 41 39 72l436 457q19 19 27.5 26.5t25.5 16t35 8.5h46q37 0 51 -15t10 -53l-68 -473h80q21 0 25 -8t2 -29l-8 -51q-7 -25 -13 -30q-9 -5 -24 -5h-80l-21 -147q-4 -23 -11.5 -28t-31.5 -5h-69 q-21 0 -27.5 5.5t-5.5 27.5l23 145h-383q-21 0 -34 3t-22.5 17t-5.5 40zM1184 309l2 -6h266l49 340h-4q-2 0 -2 2z" />
<glyph unicode="&#xc6;" horiz-adv-x="1695" d="M-16 14q0 7 2 9q385 819 557 1179q108 234 362 234h801q18 0 22.5 -9t2.5 -26l-15 -103q-2 -19 -8.5 -25.5t-26.5 -6.5h-471q-87 0 -131.5 -39.5t-56.5 -126.5q-7 -44 -18.5 -129t-18.5 -129h592q15 0 21 -4t5.5 -11.5t-1.5 -19.5l-13 -94q-2 -19 -9 -27t-26 -8h-591 q-5 -39 -15.5 -108.5t-18.5 -127t-14 -108.5q-29 -164 142 -164h528q17 0 21 -8t2 -25l-15 -106q-2 -18 -7 -24.5t-23 -6.5h-545q-150 0 -218.5 67t-68.5 195q0 22 4 72h-416q-36 -80 -145 -311q-13 -23 -35 -23h-139q-16 0 -16 14zM385 485h371q33 213 84 600 q26 147 65 189q-86 0 -136.5 -26.5t-76.5 -86.5q-13 -25 -90 -190z" />
<glyph unicode="&#xe6;" horiz-adv-x="1656" d="M76 252q0 69 16 128.5t53.5 112t94 89.5t141.5 58.5t192 21.5q98 0 201 -19q27 94 27 129q0 89 -54 129.5t-165 40.5q-149 0 -277 -41q-17 -7 -25 -4.5t-12 18.5l-22 89q-6 21 22 34q152 60 357 60q242 0 309 -150q138 150 352 150q78 0 139.5 -18t100 -46.5t63.5 -66.5 t35 -75t10 -75q0 -183 -128.5 -265.5t-395.5 -82.5q-85 0 -184 12q-6 -47 -6 -86q0 -141 58.5 -201.5t192.5 -60.5q120 0 236 57q24 10 35 -10l43 -86q11 -26 -19 -41q-134 -76 -329 -76t-287 99q-97 -50 -213.5 -74.5t-218.5 -24.5q-87 0 -151 17.5t-100 43.5t-57 64.5 t-27.5 73t-6.5 76.5zM252 274q0 -74 46.5 -110.5t143.5 -36.5q66 0 162.5 16.5t173.5 59.5q0 4 -2 6q-28 67 -28 180q0 55 6 119q-116 14 -185 14q-152 0 -234.5 -57.5t-82.5 -190.5zM944 614q73 -8 164 -8q200 0 283.5 44.5t83.5 144.5q0 66 -46.5 109.5t-154.5 43.5 q-136 0 -220 -84.5t-110 -249.5z" />
<glyph unicode="&#x152;" horiz-adv-x="1800" d="M143 516q0 442 189 691t506 249q167 0 280 -61q71 41 187 41h503q23 0 29 -9.5t4 -31.5l-12 -88q-5 -25 -12.5 -33t-30.5 -8h-477q-81 0 -124 -38t-55 -118l-36 -266h604q23 0 30.5 -9.5t2.5 -33.5l-13 -78q-3 -12 -5 -18t-6 -12t-11.5 -8.5t-18.5 -2.5h-604l-53 -356 q-17 -154 135 -154h547q24 0 31 -9.5t2 -33.5l-13 -88q-5 -23 -12.5 -32t-30.5 -9h-549q-117 0 -192 43q-129 -66 -289 -66q-239 0 -372.5 141t-133.5 398zM326 539q0 -187 82 -290.5t256 -103.5q103 0 182 39q-17 58 -2 166l102 733q14 107 49 174q-76 29 -170 29 q-132 0 -231.5 -62.5t-156.5 -170t-84 -236.5t-27 -278z" />
<glyph unicode="&#x153;" horiz-adv-x="1771" d="M102 393q0 167 43 302.5t117 222.5t171.5 133.5t209.5 46.5q131 0 222 -53.5t134 -155.5q142 209 402 209q78 0 139.5 -18t100 -46.5t63.5 -66.5t35 -75t10 -75q0 -182 -126 -265t-394 -83q-108 0 -187 12q-6 -50 -6 -86q0 -141 58 -201.5t192 -60.5q120 0 236 57 q17 6 22.5 4t11.5 -14l43 -86q12 -26 -18 -41q-134 -76 -328 -76q-272 0 -346 201q-141 -201 -403 -201q-196 0 -299 106.5t-103 309.5zM276 408q0 -281 248 -281q77 0 138.5 33t100 87t64.5 126t36.5 145.5t10.5 151.5q0 278 -243 278q-90 0 -160 -45.5t-111.5 -123 t-62.5 -171.5t-21 -200zM1061 612q73 -8 162 -8q141 0 222.5 22t113.5 63.5t32 109.5q0 64 -48 106.5t-152 42.5q-136 0 -220 -85t-110 -251z" />
<glyph unicode="&#x2c6;" horiz-adv-x="1126" d="M352 1229q-13 13 2 28l293 267q43 37 82 37q26 0 43 -7.5t35 -29.5l207 -262q11 -18 10 -26t-14 -19l-37 -31q-17 -12 -39 4l-229 192l-285 -196q-23 -16 -37 4z" />
<glyph unicode="&#x2da;" horiz-adv-x="1052" d="M512 1354q0 92 65.5 156.5t157.5 64.5q75 0 122.5 -46t47.5 -118q0 -91 -66 -154t-157 -63q-74 0 -122 44.5t-48 115.5zM604 1364q0 -38 25 -62t63 -24q49 0 86 35.5t37 87.5q0 41 -24.5 65.5t-67.5 24.5q-50 0 -84.5 -36.5t-34.5 -90.5z" />
<glyph unicode="&#x2dc;" horiz-adv-x="1122" d="M360 1320q-2 5 7 19q93 142 225 142q48 0 121 -36t108 -36q64 0 105 59q11 14 15 16.5t15 -1.5l80 -29q26 -10 17 -31q-77 -153 -222 -153q-47 0 -125 35.5t-122 35.5q-54 0 -107 -59q-8 -12 -14 -14t-19 4l-69 35q-13 8 -15 13z" />
<glyph unicode="&#x401;" horiz-adv-x="1148" d="M141 241.5q0 51.5 6 108.5l101 733q11 78 31.5 135.5t59.5 110t107 80t162 27.5h549q22 0 28.5 -9t4.5 -34l-14 -86q-2 -24 -10.5 -32.5t-32.5 -8.5h-521q-83 0 -124.5 -37.5t-53.5 -118.5l-37 -266h631q22 0 27.5 -9t3.5 -34l-12 -78q-2 -22 -10.5 -31.5t-30.5 -9.5 h-631l-51 -356q-23 -154 135 -154h561q24 0 30 -9.5t1 -33.5l-11 -86q-5 -25 -13 -34t-30 -9h-563q-78 0 -135.5 18.5t-89.5 50.5t-50 76.5t-18 96zM498 1645q0 46 38 84t87 38q37 0 65.5 -29t28.5 -67q0 -46 -42 -84.5t-85 -38.5q-38 0 -66 29.5t-26 67.5zM854 1645 q0 47 39.5 84.5t87.5 37.5q38 0 66 -29t28 -67q0 -45 -40.5 -84t-84.5 -39q-40 0 -68 29t-28 68z" />
<glyph unicode="&#x402;" horiz-adv-x="1552" d="M158 1298l16 103q4 14 6 19.5t8.5 9.5t18.5 4h1102q20 0 24.5 -7t-0.5 -24l-14 -103q-2 -19 -8.5 -25.5t-26.5 -6.5l-530 -2l-52 -359q187 56 359 56q207 0 312.5 -108t105.5 -306q0 -60 -10 -122.5t-37.5 -140t-71 -147t-116.5 -140.5t-167 -126q-10 -7 -17.5 -6 t-17.5 12l-51 86q-10 17 13 33q129 77 211.5 226.5t82.5 301.5q0 279 -286 279q-159 0 -332 -62l-98 -712q-5 -20 -10.5 -25.5t-22.5 -5.5h-125q-19 0 -26 6t-3 25l174 1235h-385q-19 0 -23.5 6.5t-2.5 25.5z" />
<glyph unicode="&#x403;" horiz-adv-x="1077" d="M102 39l146 1044q9 62 22 109.5t40 95.5t64.5 78.5t97.5 50t138 19.5h557q22 0 29 -10t2 -31l-12 -86q-5 -26 -12 -34.5t-29 -8.5h-533q-84 0 -125 -36.5t-53 -117.5l-151 -1073q-1 -24 -11 -31.5t-34 -7.5h-99q-22 0 -31.5 8t-5.5 31zM663 1609q1 9 17 19l311 207 q29 16 39 -2l66 -117q16 -22 -9 -33l-358 -159q-18 -5 -24 -2.5t-11 14.5l-24 53q-8 11 -7 20z" />
<glyph unicode="&#x404;" horiz-adv-x="1187" d="M141 555q0 417 189.5 658t496.5 241q233 0 379 -84q11 -6 11.5 -15t-9.5 -32l-37 -88q-13 -28 -38 -14q-119 61 -297 61q-105 0 -189 -35t-140.5 -98.5t-93 -142.5t-57.5 -177h588q20 0 23.5 -9.5t-0.5 -22.5l-13 -99q-2 -18 -8 -25t-24 -7h-586q-4 -26 -4 -111 q0 -95 16.5 -165.5t56 -127t111.5 -86t176 -29.5q156 0 338 80q24 7 29 4t12 -17q1 -2 2 -3l43 -86q16 -35 -16 -53q-193 -95 -453 -95q-257 0 -381.5 142.5t-124.5 435.5z" />
<glyph unicode="&#x405;" horiz-adv-x="1132" d="M63 123l54 108q10 23 35 13q190 -97 397 -97q348 0 348 246q0 39 -13 71.5t-32.5 56t-61 50t-78.5 45.5t-104 50q-112 52 -182.5 93.5t-123.5 90t-76 102t-23 121.5q0 184 128.5 284.5t356.5 100.5q103 0 212 -21t192 -61q11 -5 14.5 -11t-0.5 -24l-41 -114 q-13 -24 -29 -15q-178 76 -362 76q-128 0 -199.5 -57.5t-71.5 -153.5q0 -73 74.5 -128t247.5 -132q68 -31 115.5 -55.5t100 -62.5t84 -78t52.5 -96t21 -122q0 -109 -42.5 -193t-117 -133.5t-168 -74.5t-203.5 -25q-311 0 -499 105q-20 14 -5 41z" />
<glyph unicode="&#x406;" horiz-adv-x="532" d="M127 39l190 1356q4 24 15 31.5t35 7.5h100q24 0 31.5 -7.5t3.5 -31.5l-193 -1356q-1 -24 -10 -31.5t-33 -7.5h-100q-25 0 -34 8t-5 31z" />
<glyph unicode="&#x407;" horiz-adv-x="532" d="M127 39l190 1356q4 24 15 31.5t35 7.5h100q24 0 31.5 -7.5t3.5 -31.5l-193 -1356q-1 -24 -10 -31.5t-33 -7.5h-100q-25 0 -34 8t-5 31zM180 1638q0 46 38 84.5t87 38.5q37 0 65.5 -29t28.5 -67q0 -46 -42 -84.5t-85 -38.5q-38 0 -66 29t-26 67zM537 1638q0 47 39.5 85 t87.5 38q38 0 66 -29t28 -67q0 -45 -40.5 -84t-84.5 -39q-41 0 -68.5 28.5t-27.5 67.5z" />
<glyph unicode="&#x408;" horiz-adv-x="1124" d="M16 103q-2 8 9 32l55 94q13 25 43 4q148 -86 317 -86q94 0 160 26.5t107.5 83t64.5 129t39 179.5l115 830q4 24 14.5 31.5t32.5 7.5h98q25 0 32 -7.5t3 -31.5q-44 -312 -121 -865q-16 -108 -38 -187.5t-61.5 -151.5t-95.5 -117t-140.5 -71t-196.5 -26q-105 0 -219 25.5 t-203 85.5q-13 7 -15 15z" />
<glyph unicode="&#x409;" horiz-adv-x="1980" d="M-30.5 85.5q1.5 7.5 2 11t5 8t6.5 5.5l7 3.5t6 3.5q41 16 75 37.5t61 41.5t52 59t42 64.5t37 86t31.5 95.5t32 121t31 133.5t34.5 161.5q17 79 26 121l57 269q25 129 135 129h494q57 0 82.5 -32t15.5 -97l-57 -420h346q106 0 186 -26t125.5 -65t74 -93t37.5 -102t9 -101 q0 -227 -145.5 -363.5t-374.5 -136.5h-467q-55 0 -74.5 23.5t-13.5 78.5l164 1166h-365l-49 -232q-7 -33 -20 -96q-23 -114 -35 -168t-33 -147t-34.5 -137.5t-36.5 -116t-43 -106.5t-48.5 -86t-59 -78t-69 -58.5t-84 -51t-98.5 -34.5q-36 -12 -43 29l-23 84q-3 8 -1.5 15.5z M1044 172h359q76 0 136 20.5t95.5 52t58.5 73.5t31.5 81.5t8.5 79.5q0 114 -62 181t-188 67h-361z" />
<glyph unicode="&#x40a;" horiz-adv-x="2027" d="M100 20v9q32 230 98 686.5t97 687.5q4 20 10.5 25.5t24.5 5.5h121q30 0 30 -21q0 -13 -3.5 -36.5t-4.5 -33.5l-70 -483h605l75 545q4 19 12 25t23 6h121q31 0 31 -21v-6q-3 -37 -10 -63q-11 -82 -33.5 -243t-34.5 -243h344q107 0 187.5 -23.5t126 -59t74 -86.5t37.5 -97 t9 -98q0 -233 -144.5 -364.5t-377.5 -131.5h-461q-47 0 -67.5 17t-20.5 55v16q0 10 2 12q54 403 84 602h-604l-94 -673q-4 -20 -10.5 -24.5t-26.5 -4.5h-123q-27 0 -27 20zM1096 172h354q77 0 137.5 21t95.5 53.5t58 75t31 81t8 76.5q0 223 -254 223h-357z" />
<glyph unicode="&#x40b;" horiz-adv-x="1554" d="M158 1300l16 101q4 14 6 19.5t8.5 9.5t18.5 4h1089q18 0 23 -8t0 -25l-14 -101q-2 -19 -8.5 -25.5t-24.5 -6.5h-516l-51 -363q85 25 187.5 41.5t172.5 16.5q454 0 387 -482l-63 -450q-4 -20 -10.5 -25.5t-24.5 -5.5h-117q-20 0 -26.5 6t-2.5 25l62 442q24 173 -33 252.5 t-223 79.5q-64 0 -161.5 -18t-172.5 -46l-98 -710q-5 -20 -10.5 -25.5t-22.5 -5.5h-123q-19 0 -26 6t-3 25l174 1237h-387q-19 0 -23.5 6t-2.5 26z" />
<glyph unicode="&#x40c;" horiz-adv-x="1222" d="M102 31l193 1372q4 20 11.5 25.5t25.5 5.5h117q19 0 24.5 -6t-0.5 -25l-78 -553h264q188 0 271 207l139 354q9 27 41 27h111q33 0 16 -39l-137 -367q-76 -189 -203 -254l-2 -10q39 -13 67 -33t45 -40.5t28.5 -53t16.5 -59.5t11 -70l57 -475q5 -37 -30 -37h-119 q-31 0 -37 27l-53 456q-13 114 -65.5 156.5t-160.5 42.5l-282 -2l-92 -649q-1 -19 -9 -25t-26 -6h-115q-19 0 -26 6t-3 25zM636 1615q1 9 17 19l312 207q29 16 39 -2l65 -117q16 -22 -8 -32l-359 -160q-18 -5 -23.5 -2.5t-10.5 14.5l-25 53q-8 11 -7 20z" />
<glyph unicode="&#x40e;" horiz-adv-x="1126" d="M96 14l27 103q7 16 14.5 18.5t24.5 -0.5q87 -13 135 -10q60 2 100.5 29t75.5 96l76 143h-33q-20 0 -29 1.5t-21.5 7.5t-20 21.5t-13.5 41.5l-252 946q-3 25 25 25h135q9 0 14.5 -1.5t9.5 -7t5 -8t4 -12.5l135 -535l86 -356h14l185 371l266 524q10 16 18.5 20.5t26.5 4.5 h129q26 0 14 -27l-612 -1200q-71 -145 -153 -197.5t-212 -52.5q-78 0 -153 23q-30 10 -21 32zM434 1716q-14 23 10 39l45 35q19 9 23 7.5t16 -15.5q115 -140 222 -140q108 0 264 146q16 12 23.5 12.5t13.5 -6.5l34 -33q4 -6 6.5 -10.5t3.5 -8t0 -7.5t-1.5 -5t-3.5 -5t-3 -5 q-184 -219 -362 -219q-92 0 -167.5 60.5t-123.5 154.5z" />
<glyph unicode="&#x40f;" horiz-adv-x="1361" d="M115 127q120 868 180 1278q1 18 9 23.5t26 5.5h119q22 0 27.5 -6.5t0.5 -24.5l-176 -1239h703q57 418 174 1241q1 18 8.5 23.5t25.5 5.5h117q12 0 18 -0.5t8.5 -5.5t2.5 -8v-15q-60 -409 -180 -1278q-18 -127 -134 -127h-313l-61 -289q-6 -33 -29 -33h-111q-16 0 -16 33 q12 149 27 289h-326q-55 0 -83 35.5t-17 91.5z" />
<glyph unicode="&#x410;" horiz-adv-x="1228" d="M-17.5 11q-4.5 11 1.5 28l637 1317q23 50 44 65.5t68 16.5h58q52 0 68.5 -16t27.5 -66l262 -1317q5 -15 -2 -27t-25 -12h-121q-15 0 -22 1t-13.5 8t-9.5 22l-55 301h-561l-141 -301q-11 -18 -20 -24.5t-27 -6.5h-146q-19 0 -23.5 11zM410 498h460l-71 426l-51 299h-11 l-131 -289z" />
<glyph unicode="&#x411;" horiz-adv-x="1243" d="M113 102l168 1203q18 129 137 129h719q16 0 20 -7t2 -26l-14 -101q-3 -32 -31 -32h-653l-53 -381h346q106 0 186 -26t125.5 -65t74 -93t37.5 -102t9 -101q0 -227 -145.5 -363.5t-374.5 -136.5h-467q-54 0 -74 24t-12 78zM307 172h359q76 0 136 20.5t95 52t58 73.5 t31.5 81.5t8.5 79.5q0 114 -62 181t-188 67h-362z" />
<glyph unicode="&#x412;" horiz-adv-x="1280" d="M113 102l170 1229q11 56 36.5 80.5t79.5 24.5l461 2q165 0 265 -79t100 -239q0 -65 -23 -126.5t-76.5 -117t-130.5 -83.5l-2 -13q101 -39 149 -120t48 -187q0 -221 -144.5 -347t-375.5 -126h-471q-54 0 -74 24t-12 78zM305 172h373q75 0 134 22t93.5 54.5t57 76 t30.5 81.5t8 75q0 102 -62 160.5t-187 58.5h-373zM401 860h363q29 0 60.5 6t68 23t65 42.5t47.5 70t19 100.5q0 74 -52 119t-143 45h-370z" />
<glyph unicode="&#x413;" horiz-adv-x="1077" d="M102 39l146 1044q9 62 22 109.5t40 95.5t64.5 78.5t97.5 50t138 19.5h557q22 0 29 -10t2 -31l-12 -86q-5 -26 -12 -34.5t-29 -8.5h-533q-84 0 -125 -36.5t-53 -117.5l-151 -1073q-1 -24 -11 -31.5t-34 -7.5h-99q-22 0 -31.5 8t-5.5 31z" />
<glyph unicode="&#x414;" horiz-adv-x="1433" d="M-47 -307l27 387q5 45 20 64.5t57 23.5l66 4q71 74 110.5 155.5t83.5 247.5q60 234 193 730q34 131 154 131h598q59 0 86 -35.5t16 -93.5q-71 -533 -158 -1139l68 -4q73 -8 57 -86l-76 -383q-4 -19 -11 -25t-19 -6h-111q-19 0 -16 31l28 305h-962l-66 -305 q-6 -31 -30 -31h-95q-23 0 -20 29zM326 170h698l154 1096h-504l-129 -504q-70 -282 -114.5 -398t-104.5 -194z" />
<glyph unicode="&#x415;" horiz-adv-x="1148" d="M141 241.5q0 51.5 6 108.5l101 733q11 78 31.5 135.5t59.5 110t107 80t162 27.5h549q22 0 28.5 -9t4.5 -34l-14 -86q-2 -24 -10.5 -32.5t-32.5 -8.5h-521q-83 0 -124.5 -37.5t-53.5 -118.5l-37 -266h631q22 0 27.5 -9t3.5 -34l-12 -78q-2 -22 -10.5 -31.5t-30.5 -9.5 h-631l-51 -356q-23 -154 135 -154h561q24 0 30 -9.5t1 -33.5l-11 -86q-5 -25 -13 -34t-30 -9h-563q-78 0 -135.5 18.5t-89.5 50.5t-50 76.5t-18 96z" />
<glyph unicode="&#x416;" horiz-adv-x="1908" d="M14 13q-5 13 2 24l191 475q42 106 92.5 165.5t149.5 90.5v10q-116 66 -132 254l-34 367q-6 39 28 39h111q31 0 33 -27l39 -354q8 -64 29.5 -107.5t53.5 -64t62.5 -28t69.5 -7.5h223l78 553q1 20 8 25.5t26 5.5h115q19 0 27 -6t4 -25l-78 -553h223q188 0 271 207l139 354 q11 27 39 27h110q21 0 24.5 -14t-3.5 -25l-139 -367q-69 -189 -203 -254l-2 -10q90 -30 123 -89t47 -167l55 -475q5 -37 -29 -37h-122q-27 0 -33 27l-53 456q-17 114 -68.5 155.5t-159.5 41.5h-244l-92 -649q-1 -19 -9.5 -25t-27.5 -6h-114q-19 0 -26 6t-3 25l94 649h-243 q-107 0 -170 -41.5t-111 -155.5l-186 -456q-9 -27 -37 -27h-121q-22 0 -27 13z" />
<glyph unicode="&#x417;" horiz-adv-x="1155" d="M22 92.5q-1 7.5 11 32.5l39 88q10 24 45 8q167 -78 340 -78q213 0 318.5 88t105.5 234q0 94 -76 156.5t-223 62.5h-97q-44 0 -51 7q-9 10 -6 38l10 72q4 28 17.5 35.5t46.5 7.5h96q149 0 240.5 74.5t91.5 195.5q0 88 -72 131t-194 43q-161 0 -359 -78q-14 -9 -23.5 -5.5 t-12.5 7t-7 13.5l-33 82q-9 26 -4.5 34.5t23.5 16.5q180 100 438 100q198 0 317 -80t119 -231q0 -136 -84.5 -235t-208.5 -144l-2 -10q117 -17 179.5 -93t62.5 -198q0 -215 -159.5 -352.5t-434.5 -137.5q-288 0 -438 97q-14 11 -15 18.5z" />
<glyph unicode="&#x418;" horiz-adv-x="1382" d="M111 102l184 1303q4 20 10.5 25.5t24.5 5.5h119q18 0 23.5 -5.5t4.5 -25.5l-162 -1147h9q3 4 110 156t121 170l555 770q33 47 56.5 64.5t64.5 17.5h55q55 0 72.5 -24.5t9.5 -78.5l-182 -1302q-4 -20 -10.5 -25.5t-24.5 -5.5h-119q-18 0 -23.5 5.5t-4.5 25.5 q5 45 80.5 572.5t80.5 578.5h-6q-9 -11 -46 -63t-74 -105t-77 -111t-42 -61l-549 -760q-35 -48 -58 -65t-63 -17h-55q-55 0 -72.5 24t-11.5 78z" />
<glyph unicode="&#x419;" horiz-adv-x="1382" d="M111 102l184 1303q4 20 10.5 25.5t24.5 5.5h119q18 0 23.5 -5.5t4.5 -25.5l-162 -1147h9q3 4 110 156t121 170l555 770q33 47 56.5 64.5t64.5 17.5h55q55 0 72.5 -24.5t9.5 -78.5l-182 -1302q-4 -20 -10.5 -25.5t-24.5 -5.5h-119q-18 0 -23.5 5.5t-4.5 25.5 q5 45 80.5 572.5t80.5 578.5h-6q-9 -11 -46 -63t-74 -105t-77 -111t-42 -61l-549 -760q-35 -48 -58 -65t-63 -17h-55q-55 0 -72.5 24t-11.5 78zM535 1716q-14 23 10 39l45 35q19 9 23 7.5t16 -15.5q115 -140 221 -140q108 0 264 146q16 12 23.5 12.5t13.5 -6.5l35 -33 q4 -6 6.5 -10.5t3.5 -8t0 -7.5t-1.5 -5t-3.5 -5t-3 -5q-184 -219 -363 -219q-92 0 -167 60.5t-123 154.5z" />
<glyph unicode="&#x41a;" horiz-adv-x="1222" d="M102 31l193 1372q4 20 11.5 25.5t25.5 5.5h117q19 0 24.5 -6t-0.5 -25l-78 -553h264q188 0 271 207l139 354q9 27 41 27h111q33 0 16 -39l-137 -367q-76 -189 -203 -254l-2 -10q39 -13 67 -33t45 -40.5t28.5 -53t16.5 -59.5t11 -70l57 -475q5 -37 -30 -37h-119 q-31 0 -37 27l-53 456q-13 114 -65.5 156.5t-160.5 42.5l-282 -2l-92 -649q-1 -19 -9 -25t-26 -6h-115q-19 0 -26 6t-3 25z" />
<glyph unicode="&#x41b;" horiz-adv-x="1349" d="M-30.5 85.5q1.5 7.5 2 11t5 8t6.5 5.5l7 3.5t6 3.5q41 16 75 37.5t61 41.5t52 59t42 64.5t37 86t31.5 95.5t32 121t31 133.5t34.5 161.5q17 79 26 121l57 269q25 129 135 129h623q57 0 83.5 -32.5t16.5 -96.5l-180 -1276q-1 -19 -9 -25t-28 -6h-119q-19 0 -25.5 6 t-2.5 25l174 1237h-496l-49 -232q-7 -33 -20 -96q-23 -114 -35 -168t-33 -147t-34.5 -137.5t-36.5 -116t-43 -106.5t-48.5 -86t-59 -78t-69 -58.5t-84 -51t-98.5 -34.5q-36 -12 -43 29l-23 84q-3 8 -1.5 15.5z" />
<glyph unicode="&#x41c;" horiz-adv-x="1609" d="M102 35l183 1298q7 52 30.5 77.5t79.5 25.5h47q44 0 64.5 -16.5t32.5 -65.5q3 -7 86 -343t92 -358l74 -313h8q25 45 155 305q29 58 190.5 361t186.5 348q25 49 50.5 65.5t68.5 16.5h63q56 0 73 -25.5t9 -77.5l-182 -1298q-4 -23 -12 -29t-29 -6h-100q-22 0 -29 6.5 t-6 28.5l152 1067h-11l-147 -281q-25 -51 -154 -289.5t-155 -281.5q-24 -49 -45.5 -65.5t-67.5 -16.5h-66q-46 0 -63.5 16.5t-28.5 65.5q-8 33 -74.5 284.5t-74.5 284.5l-68 262h-10l-148 -1046q-4 -23 -12 -29t-31 -6h-98q-21 0 -29 6.5t-4 28.5z" />
<glyph unicode="&#x41d;" horiz-adv-x="1366" d="M102 39l191 1356q4 24 14.5 31.5t32.5 7.5h100q25 0 33 -7.5t4 -31.5l-78 -557h701l78 557q4 24 13.5 31.5t33.5 7.5h100q25 0 31.5 -7t5.5 -32l-193 -1356q-5 -25 -12.5 -32t-32.5 -7h-100q-25 0 -33 7.5t-4 31.5l90 635h-702l-90 -635q-4 -25 -13 -32t-32 -7h-101 q-22 0 -31.5 8t-5.5 31z" />
<glyph unicode="&#x41e;" horiz-adv-x="1400" d="M143 516q0 218 55.5 397.5t151 297t222.5 181.5t272 64q250 0 380 -144t130 -411q0 -151 -29.5 -288.5t-88.5 -253.5t-142.5 -201t-197.5 -133t-247 -48q-246 0 -376 140t-130 399zM326 537q0 -188 80 -290t260 -102q103 0 188.5 41.5t145 113t100.5 167.5t60.5 204.5 t19.5 225.5q0 86 -18 155t-57.5 123t-108 83.5t-162.5 29.5q-102 0 -187.5 -42t-144 -113.5t-99 -168.5t-59 -204.5t-18.5 -222.5z" />
<glyph unicode="&#x41f;" horiz-adv-x="1361" d="M102 31l179 1276q21 129 137 129h827q57 0 84 -32.5t17 -96.5l-181 -1276q-1 -20 -8 -25.5t-27 -5.5h-116q-20 0 -26.5 6t-2.5 25l174 1237h-700l-174 -1237q-4 -20 -11 -25.5t-26 -5.5h-117q-19 0 -26 6t-3 25z" />
<glyph unicode="&#x420;" horiz-adv-x="1202" d="M102 39l183 1294q8 55 34 80t80 25h449q179 0 281 -104.5t102 -282.5q0 -65 -14 -127.5t-50.5 -127t-91.5 -112.5t-145 -78.5t-203 -30.5h-369l-77 -536q-1 -24 -10.5 -31.5t-34.5 -7.5h-97q-22 0 -31.5 8t-5.5 31zM383 741h338q153 0 236 80t83 219q0 43 -11.5 80 t-38 71t-77.5 53.5t-122 19.5h-334z" />
<glyph unicode="&#x421;" horiz-adv-x="1187" d="M141 555q0 417 189.5 658t496.5 241q233 0 379 -84q11 -6 11.5 -15t-9.5 -32l-37 -88q-13 -28 -38 -14q-119 61 -297 61q-113 0 -201.5 -42t-144.5 -111.5t-92.5 -165.5t-51 -196t-14.5 -212q0 -95 16.5 -165.5t56 -127t111.5 -86t176 -29.5q156 0 338 80q24 7 29 4 t12 -17q1 -2 2 -3l43 -86q16 -35 -16 -53q-193 -95 -453 -95q-257 0 -381.5 142.5t-124.5 435.5z" />
<glyph unicode="&#x422;" horiz-adv-x="1087" d="M158 1300l16 101q4 14 6 19.5t8.5 9.5t18.5 4h973q18 0 23.5 -7.5t0.5 -25.5l-14 -101q-2 -19 -8.5 -25.5t-26.5 -6.5h-399l-172 -1229q-5 -25 -12.5 -32t-30.5 -7h-105q-24 0 -33 7.5t-8 31.5l174 1229h-385q-19 0 -23.5 6t-2.5 26z" />
<glyph unicode="&#x423;" horiz-adv-x="1126" d="M96 14l27 103q7 16 14.5 18.5t24.5 -0.5q87 -13 135 -10q60 2 100.5 29t75.5 96l76 143h-33q-20 0 -29 1.5t-21.5 7.5t-20 21.5t-13.5 41.5l-252 946q-3 25 25 25h135q9 0 14.5 -1.5t9.5 -7t5 -8t4 -12.5l135 -535l86 -356h14l185 371l266 524q10 16 18.5 20.5t26.5 4.5 h129q26 0 14 -27l-612 -1200q-71 -145 -153 -197.5t-212 -52.5q-78 0 -153 23q-30 10 -21 32z" />
<glyph unicode="&#x424;" horiz-adv-x="1652" d="M154 641q0 151 55 279.5t151 218.5t225.5 146t280.5 71l6 45q4 20 13 26.5t28 6.5h113q23 0 29.5 -7t1.5 -26l-6 -45q263 -23 404.5 -162t141.5 -363q0 -123 -35.5 -230.5t-100 -190t-154 -144.5t-198.5 -98.5t-232 -48.5l-13 -86q-4 -22 -11.5 -27.5t-27.5 -5.5h-112 q-39 0 -33 33l12 86q-252 20 -395 159t-143 363zM326 655q0 -159 96 -260t293 -121l131 926q-159 -16 -279 -95t-180.5 -196t-60.5 -254zM897 272q248 17 387 171.5t139 373.5q0 163 -97 265.5t-298 119.5z" />
<glyph unicode="&#x425;" horiz-adv-x="1114" d="M-28.5 8q-3.5 8 3.5 19l529 712l-305 672q-5 7 1 16t19 9h127q25 0 34.5 -5t16.5 -24l226 -514l368 514q12 17 23.5 23t34.5 6h141q13 0 16.5 -9t-4.5 -20l-489 -664l327 -716q5 -7 0 -17t-16 -10h-133q-24 0 -33.5 5.5t-17.5 23.5l-244 563l-401 -563q-12 -17 -23.5 -23 t-34.5 -6h-149q-13 0 -16.5 8z" />
<glyph unicode="&#x426;" horiz-adv-x="1400" d="M117 129l178 1276q4 20 11.5 25.5t25.5 5.5h117q19 0 25 -5.5t5 -25.5l-176 -1239h701l174 1239q4 20 10.5 25.5t25.5 5.5h117q20 0 26.5 -6t2.5 -25l-176 -1239h63q77 0 60 -78l-72 -377q-7 -30 -31 -30h-96q-24 0 -21 30l27 289h-899q-53 0 -80.5 32.5t-17.5 96.5z" />
<glyph unicode="&#x427;" horiz-adv-x="1243" d="M166 1020l55 385q4 20 10.5 25.5t24.5 5.5h117q19 0 25.5 -6t2.5 -25l-53 -365q-17 -123 10.5 -194t111.5 -105t241 -34q147 0 254 26l94 672q4 20 11 25.5t26 5.5h116q18 0 24 -6t5 -25l-194 -1374q-4 -20 -10.5 -25.5t-24.5 -5.5h-117q-20 0 -26.5 6t-2.5 25l74 538 q-114 -24 -264 -24q-287 0 -416 114.5t-94 360.5z" />
<glyph unicode="&#x428;" horiz-adv-x="1921" d="M115 129l180 1276q4 20 10.5 25.5t24.5 5.5h125q20 0 26 -6t2 -25l-174 -1239h541l174 1239q4 20 11.5 25.5t25.5 5.5h115q19 0 25 -5.5t5 -25.5l-176 -1239h529l176 1239q1 19 9.5 25t27.5 6h118q19 0 25 -6t2 -25q-14 -112 -180 -1276q-7 -63 -41 -96t-84 -33h-1407 q-105 0 -90 129z" />
<glyph unicode="&#x429;" horiz-adv-x="1957" d="M117 129l178 1276q4 20 11.5 25.5t25.5 5.5h123q20 0 26 -6t2 -25l-176 -1239h543l174 1239q4 20 11.5 25.5t25.5 5.5h115q19 0 25 -5.5t5 -25.5l-176 -1239h529l176 1239q1 19 9.5 25t27.5 6h118q18 0 24 -6t5 -25l-176 -1239h63q17 0 29.5 -4.5t18.5 -9.5t9 -15.5 t3.5 -15.5t0 -18.5t-0.5 -14.5l-74 -377q-4 -18 -10 -24t-17 -6h-100q-21 0 -18 30l24 289h-1466q-49 0 -73.5 32.5t-14.5 96.5z" />
<glyph unicode="&#x42a;" horiz-adv-x="1611" d="M139 1300l15 101q4 14 6.5 19.5t9 9.5t18.5 4h549q57 0 83 -32t16 -97l-60 -418h346q106 0 187 -26t126.5 -65t74 -93t37.5 -102t9 -101q0 -227 -146 -363.5t-376 -136.5h-463q-57 0 -77.5 24t-12.5 78l164 1166h-481q-18 0 -22.5 6t-2.5 26zM676 172h360 q77 0 136.5 20.5t95 52t58 74t30.5 81t8 79.5q0 115 -61 181.5t-189 66.5h-360z" />
<glyph unicode="&#x42b;" horiz-adv-x="1640" d="M111 100l184 1305q4 20 10.5 25.5t24.5 5.5h121q12 0 17.5 -0.5t8 -7t2.5 -8v-15.5l-73 -520h346q106 0 186.5 -26t126 -65t73.5 -93t37 -102t9 -101q0 -226 -145.5 -362t-374.5 -136h-467q-58 0 -77.5 25.5t-8.5 74.5zM305 172h359q77 0 137.5 20.5t95.5 52t57.5 74 t30.5 81t8 79.5q0 115 -61 180.5t-189 65.5h-360zM1255 41l195 1362q4 20 11.5 25.5t25.5 5.5h119q22 0 26 -5t4 -26l-194 -1374q-1 -18 -9 -23.5t-28 -5.5h-123q-20 0 -26 9t-1 32z" />
<glyph unicode="&#x42c;" horiz-adv-x="1243" d="M113 102l182 1303q4 20 11.5 25.5t25.5 5.5h119q20 0 26 -6t2 -25l-71 -518h346q106 0 186 -26t125.5 -65t74 -93t37.5 -102t9 -101q0 -227 -145.5 -363.5t-374.5 -136.5h-467q-54 0 -74 24t-12 78zM307 172h359q76 0 136 20.5t95 52t58 73.5t31.5 81.5t8.5 79.5 q0 114 -62 181t-188 67h-362z" />
<glyph unicode="&#x42d;" horiz-adv-x="1202" d="M40.5 87q-1.5 7 10.5 34l39 76q9 16 15 18t30 -6q131 -64 314 -64q117 0 209.5 41.5t152 115.5t95 167t48.5 205h-589q-18 0 -23.5 7.5t-3.5 25.5l16 98q4 14 6 19.5t8.5 9.5t18.5 4h580q28 440 -344 440q-166 0 -316 -64q-20 -5 -24.5 -1.5t-10.5 16.5l-36 90 q-5 24 -1.5 32t17.5 15q169 84 397 84q262 0 382 -146.5t120 -431.5q0 -219 -51 -390.5t-143.5 -281t-217.5 -166.5t-276 -57q-267 0 -408 95q-13 8 -14.5 15z" />
<glyph unicode="&#x42e;" horiz-adv-x="1810" d="M102 31l193 1372q4 20 11.5 25.5t25.5 5.5h114q19 0 26 -6t3 -25l-80 -565h248q67 291 232.5 454.5t404.5 163.5q240 0 359.5 -150.5t119.5 -426.5q0 -419 -182.5 -660.5t-482.5 -241.5q-131 0 -227.5 43.5t-152 122t-82 176t-26.5 216.5q0 74 8 137h-241l-92 -641 q-1 -19 -9 -25t-26 -6h-115q-19 0 -26 6t-3 25zM791 541q0 -188 75 -293t236 -105q120 0 213 59.5t148.5 162.5t83.5 231.5t28 277.5q0 414 -311 414q-113 0 -204 -60t-149 -163.5t-89 -237.5t-31 -286z" />
<glyph unicode="&#x42f;" horiz-adv-x="1259" d="M20.5 13q-3.5 13 4.5 24l163 414q34 82 83.5 135t134.5 82q-92 41 -139.5 122t-47.5 193q0 209 138.5 332t347.5 123h450q56 0 75 -24.5t13 -80.5l-180 -1304q-4 -18 -10.5 -23.5t-24.5 -5.5h-123q-20 0 -26 5.5t-5 23.5q8 45 42 293.5t42 293.5h-280q-111 0 -183.5 -43 t-119.5 -155l-158 -391q-9 -27 -39 -27h-133q-21 0 -24.5 13zM408 989q0 -96 57 -152.5t182 -56.5h332l65 484h-344q-80 0 -139 -25t-91 -67t-47 -87.5t-15 -95.5z" />
<glyph unicode="&#x430;" horiz-adv-x="1112" d="M102 371q0 125 20 232.5t63.5 199.5t108.5 157t159.5 101.5t212.5 36.5q199 0 366 -45q30 -10 36 -23.5t1 -40.5q-68 -464 -125 -907q-3 -26 -33 -41q-158 -64 -409 -64q-108 0 -187 30t-124.5 85t-67 124.5t-21.5 154.5zM279 387q0 -128 64.5 -192t209.5 -64t227 35 q48 379 105 749q-86 29 -223 29q-61 0 -115 -17t-104 -57.5t-85.5 -103t-57 -159.5t-21.5 -220z" />
<glyph unicode="&#x431;" horiz-adv-x="1097" d="M96 397q0 187 41.5 430t128.5 385q106 176 355 238q174 42 325 66q20 4 26 -1t11 -26l14 -78q6 -31 -30 -37q-79 -21 -275 -55q-162 -38 -245 -126t-123 -282q1 0 2 -1t2 -1q71 54 165.5 80.5t186.5 26.5q172 0 264 -115.5t92 -300.5q0 -82 -15.5 -163t-55.5 -165.5 t-99 -148.5t-155.5 -105t-216.5 -41q-93 0 -164.5 24.5t-115 64.5t-71 96t-37.5 113t-10 122zM268 391q0 -39 5.5 -73t21.5 -70t42 -62t71 -42.5t104 -16.5q84 0 149 35.5t102 88t60.5 120.5t31 124t7.5 109q0 56 -9.5 98t-34 80.5t-74 59t-121.5 20.5q-83 0 -170.5 -29 t-143.5 -85q-41 -166 -41 -357z" />
<glyph unicode="&#x432;" horiz-adv-x="1032" d="M92 86l90 664q24 165 129 257.5t289 92.5q90 0 158 -22t106.5 -59.5t57 -81.5t18.5 -93q0 -26 -7 -55t-23 -64t-51 -66.5t-83 -50.5v-8q104 -29 147.5 -89.5t43.5 -150.5q0 -185 -130.5 -284t-340.5 -99q-105 0 -210 18t-173 50q-27 9 -21 41zM266 154q94 -31 240 -31 q138 0 212.5 62.5t74.5 172.5q0 158 -244 158h-37q-23 0 -32 6t-5 23l12 73q4 24 16.5 29.5t51.5 7.5q108 4 160.5 51t52.5 109q0 57 -45 98t-141 41q-199 0 -232 -223z" />
<glyph unicode="&#x433;" horiz-adv-x="899" d="M41 240q0 58 22.5 109t55 88.5t88 75.5t101.5 62.5t116 57.5q13 6 51 23.5t55.5 26.5t50 26.5t49.5 31t36 31.5t27.5 37t8.5 39q0 32 -12.5 52.5t-36.5 28.5t-44.5 10.5t-51.5 2.5q-131 0 -311 -70q-9 -8 -23.5 -6.5t-23.5 23.5l-31 72q-15 33 12 49q90 44 200.5 69 t209.5 25q139 0 219 -64.5t80 -175.5q0 -52 -20 -98t-53 -82t-88 -72t-114 -64.5t-141 -62.5q-57 -25 -96.5 -47t-78.5 -52t-59 -65t-20 -75q0 -63 48 -87t143 -24q120 0 311 80q30 23 45 -6l37 -86q3 -6 4.5 -11.5t1 -9.5t-1 -6.5t-3 -5t-4 -3.5t-5 -3t-4.5 -2 q-186 -98 -392 -98q-169 0 -263.5 62.5t-94.5 193.5z" />
<glyph unicode="&#x434;" horiz-adv-x="1126" d="M102 362q0 92 17 177t57 165.5t100 140t152.5 95t208.5 35.5q165 0 268 -49l8 4q4 97 -8 175.5t-41 140t-82.5 95t-128.5 33.5q-118 0 -256 -43q-31 -19 -43 17l-20 69q-8 25 10 31q166 68 313 68q427 0 418 -605q-2 -58 -5.5 -112.5t-12.5 -127t-22.5 -137.5t-37 -137 t-53 -131t-73 -114t-95.5 -92.5t-121.5 -60t-150.5 -22.5q-87 0 -157 21.5t-115 57.5t-75 86.5t-42.5 104.5t-12.5 115zM276 377q0 -252 232 -252q77 0 140 32t104.5 87.5t71.5 120t46.5 141t24.5 138t10 122.5q-106 63 -276 63q-83 0 -147.5 -31t-102 -77.5t-62 -109.5 t-33 -119.5t-8.5 -114.5z" />
<glyph unicode="&#x435;" horiz-adv-x="1005" d="M102 391q0 178 41 315.5t114.5 222t168.5 127t209 42.5q78 0 139.5 -18t100 -46.5t63.5 -66.5t35 -75t10 -75q0 -182 -126 -265t-394 -83q-108 0 -187 12q-6 -47 -6 -86q-2 -136 57 -199t193 -63q120 0 236 57q17 6 23 4t12 -14l43 -86q9 -25 -19 -41q-134 -76 -328 -76 q-197 0 -291 99.5t-94 314.5zM295 612q73 -8 164 -8q204 0 285 46.5t81 148.5q0 64 -48.5 106.5t-153.5 42.5q-136 0 -219 -84.5t-109 -251.5z" />
<glyph unicode="&#x436;" horiz-adv-x="1515" d="M2.5 11q-4.5 11 1.5 22l152 354q34 79 73.5 124.5t112.5 66.5v4q-47 23 -69.5 70t-34.5 122q-3 18 -17.5 133.5t-17.5 134.5q0 8 0.5 11.5t2.5 10t7.5 9t15.5 2.5h107q27 0 29 -24q38 -247 41 -258q16 -87 58 -117.5t111 -30.5h134q4 28 28 197.5t29 201.5q4 20 11 25.5 t26 5.5h106q20 0 26.5 -6.5t2.5 -24.5l-57 -399h135q70 0 122.5 31t90.5 117q8 20 56 129.5t56 128.5q8 24 33 24h109q32 0 18 -33l-112 -268q-56 -148 -156 -192q0 -2 -2 -4q67 -21 94 -66.5t39 -124.5q3 -17 25.5 -177t25.5 -177v-7v-8t-1.5 -6.5t-4 -6.5t-8 -3.5 t-12.5 -1.5h-117q-23 0 -29 23l-51 337q-10 73 -58.5 108.5t-115.5 35.5h-156q-4 -36 -32.5 -237.5t-32.5 -237.5q-4 -18 -11.5 -23.5t-25.5 -5.5h-107q-20 0 -26 5.5t-2 23.5l65 475h-143q-168 0 -228 -144l-147 -337q-6 -23 -31 -23h-116q-18 0 -22.5 11z" />
<glyph unicode="&#x437;" horiz-adv-x="948" d="M20 94l39 78q12 26 41 10q157 -59 273 -59q154 0 232.5 63.5t78.5 161.5q0 67 -53.5 106.5t-163.5 39.5h-88q-38 0 -48.5 6.5t-6.5 34.5l10 63q4 24 15.5 32.5t35.5 8.5h86q109 0 174.5 44.5t65.5 117.5q0 141 -211 141q-104 0 -273 -57q-23 -9 -29 -3q-5 4 -8 13l-28 80 q-9 26 12 41q157 80 354 80q166 0 259.5 -66t93.5 -188q0 -93 -54.5 -165.5t-152.5 -109.5l4 -6q81 -19 126.5 -85t45.5 -146q0 -146 -124 -248t-335 -102q-241 0 -360 73q-22 16 -11 41z" />
<glyph unicode="&#x438;" horiz-adv-x="1099" d="M147 489l76 558q4 19 11.5 24.5t25.5 5.5h109q19 0 24.5 -5.5t1.5 -24.5l-76 -547q-22 -133 -11 -214t70 -115t189 -34q92 0 199 17l127 893q4 20 10.5 25t24.5 5h110q19 0 25 -5.5t2 -24.5l-125 -895q-18 -132 -147 -156q-122 -16 -261 -16q-261 0 -344 113.5t-41 395.5 z" />
<glyph unicode="&#x439;" horiz-adv-x="1099" d="M147 489l76 558q4 19 11.5 24.5t25.5 5.5h109q19 0 24.5 -5.5t1.5 -24.5l-76 -547q-22 -133 -11 -214t70 -115t189 -34q92 0 199 17l127 893q4 20 10.5 25t24.5 5h110q19 0 25 -5.5t2 -24.5l-125 -895q-18 -132 -147 -156q-122 -16 -261 -16q-261 0 -344 113.5t-41 395.5 zM344 1409q-14 23 10 39l45 35q19 9 23 7.5t16 -15.5q115 -140 221 -140q109 0 265 146q16 12 23.5 12.5t13.5 -6.5l34 -33q4 -6 6.5 -10.5t3.5 -8t0 -7.5t-1.5 -5t-3.5 -5t-3 -5q-184 -219 -362 -219q-92 0 -167.5 60.5t-123.5 154.5z" />
<glyph unicode="&#x43a;" horiz-adv-x="1009" d="M80 31l141 1013q4 19 12.5 25t26.5 6h107q19 0 24.5 -6t1.5 -25l-55 -397h168q71 0 124 31t91 117l110 256q10 24 35 24h113q30 0 16 -33l-112 -268q-55 -146 -156 -190l-2 -4q67 -23 94 -68t39 -123l51 -354v-6v-7t-0.5 -6.5t-2.5 -6.5l-4.5 -4.5t-7.5 -3.5t-11 -1h-117 q-25 0 -31 23l-49 337q-11 73 -59.5 108.5t-114.5 35.5h-193l-67 -473q-4 -20 -10.5 -25.5t-24.5 -5.5h-106q-19 0 -27 6t-4 25z" />
<glyph unicode="&#x43b;" horiz-adv-x="1107" d="M-35 68q-6 23 0.5 33.5t30.5 21.5q52 24 82.5 45.5t64 62.5t58 106t50.5 164.5t56 250.5l33 180q12 68 44 105.5t99 37.5h494q97 0 84 -102l-133 -942q-4 -20 -12 -25.5t-29 -5.5h-99q-19 0 -25.5 5.5t-6.5 25.5q21 148 62.5 444.5t62.5 444.5h-373q-12 -49 -33 -162 q-31 -152 -54.5 -251.5t-53 -187.5t-58.5 -140t-70.5 -94.5t-89.5 -66.5t-116 -43q-38 -10 -45 17z" />
<glyph unicode="&#x43c;" horiz-adv-x="1384" d="M82 29l135 970q12 76 92 76h62q37 0 54.5 -12t27.5 -49l135 -416q8 -25 45 -147t45 -146h6l186 313q17 26 119 195t123 201q23 37 43 49t55 12h62q41 0 58.5 -23t12.5 -53l-137 -970q-4 -19 -11 -24t-26 -5h-102q-19 0 -25 5.5t-2 23.5l107 766h-10l-158 -271l-205 -338 q-24 -37 -42 -49t-54 -12h-45q-35 0 -50 12.5t-26 48.5q-9 26 -54 160t-48 143q-3 7 -48 145.5t-47 143.5h-8l-104 -749q-4 -18 -10.5 -23.5t-24.5 -5.5h-102q-19 0 -26 5.5t-3 23.5z" />
<glyph unicode="&#x43d;" horiz-adv-x="1122" d="M84 37l141 1003q4 22 13.5 28.5t29.5 6.5h101q19 0 26 -6.5t6 -28.5l-55 -387h512l55 387q4 22 12.5 28.5t28.5 6.5h99q24 0 30 -6t2 -29l-143 -1003q-2 -23 -9 -30t-30 -7h-98q-21 0 -29 7.5t-4 29.5l66 465h-514l-66 -465q-4 -23 -13 -30t-28 -7h-98q-21 0 -30 7.5 t-5 29.5z" />
<glyph unicode="&#x43e;" horiz-adv-x="1105" d="M102 393q0 167 43 302.5t117 222.5t171.5 133.5t209.5 46.5q196 0 302 -111.5t106 -318.5q0 -317 -147 -504t-400 -187q-196 0 -299 106.5t-103 309.5zM276 410q0 -283 248 -283q77 0 138.5 33t100 87t64.5 126t36.5 145.5t10.5 151.5q0 278 -243 278q-90 0 -160 -45.5 t-111.5 -123t-62.5 -171t-21 -198.5z" />
<glyph unicode="&#x43f;" horiz-adv-x="1116" d="M82 31l125 893q18 137 147 155q112 19 246 19q259 0 358 -121t58 -397l-76 -549q-4 -20 -11 -25.5t-26 -5.5h-108q-18 0 -24 6t-5 25l78 542q17 123 3.5 204.5t-81 122t-201.5 40.5q-83 0 -186 -16l-125 -893q-4 -20 -10.5 -25.5t-24.5 -5.5h-108q-19 0 -26 6t-3 25z" />
<glyph unicode="&#x440;" horiz-adv-x="1110" d="M23 -385l192 1372q3 26 31 35q179 76 405 76q205 0 302.5 -120t97.5 -329q0 -194 -64 -345.5t-189.5 -239t-293.5 -87.5q-144 0 -252 35l-57 -397q-1 -18 -8 -23.5t-25 -5.5h-111q-19 0 -25.5 5.5t-2.5 23.5zM274 168q115 -37 226 -37q60 0 113 16.5t101 54.5t82.5 96 t55 146t20.5 199q0 160 -66.5 230.5t-195.5 70.5q-54 0 -120 -10.5t-111 -28.5z" />
<glyph unicode="&#x441;" horiz-adv-x="950" d="M106 406q0 205 60 361t175.5 243.5t270.5 87.5q200 0 316 -72q21 -12 6 -43l-37 -84q-12 -28 -41 -12q-97 51 -238 51q-89 0 -156.5 -45.5t-106 -122.5t-57.5 -167t-19 -191q0 -279 253 -279q127 0 252 53q5 3 9 4t7 2t5.5 0.5t4 -0.5t3.5 -3t2.5 -3.5t3 -4.5t2.5 -5 l39 -86q12 -27 -16 -43q-134 -70 -334 -70q-195 0 -299.5 107.5t-104.5 321.5z" />
<glyph unicode="&#x442;" horiz-adv-x="1767" d="M82 29l121 882q11 73 43.5 112.5t107.5 55.5q27 7 107 13t129 6q118 0 191.5 -25.5t127.5 -85.5q78 53 187 82t221 29q97 0 167 -24.5t110.5 -69t62.5 -106.5t22 -137.5t-10 -162.5l-80 -569q-5 -19 -10.5 -24t-22.5 -5h-110q-19 0 -26 5.5t-3 23.5l76 540 q16 121 7.5 203.5t-64 125t-166.5 42.5q-63 0 -146.5 -20.5t-138.5 -49.5q32 -96 4 -290l-78 -551q-4 -19 -10.5 -24t-23.5 -5h-109q-18 0 -24 5.5t-5 23.5l78 551q13 80 9.5 146t-24.5 113.5t-77.5 74t-149.5 26.5q-128 0 -196 -16l-125 -895q-4 -18 -10.5 -23.5 t-24.5 -5.5h-108q-19 0 -26 5.5t-3 23.5z" />
<glyph unicode="&#x443;" horiz-adv-x="972" d="M-138 -370q-4 6 3 26l35 86q7 19 14.5 21t30.5 -7q121 -43 200 -43q67 0 108.5 34t82.5 124l63 139h-26q-19 0 -27.5 1.5t-19.5 7.5t-17.5 21.5t-11.5 41.5l-166 971q-3 22 16 22h123q24 0 27 -20q4 -20 42 -256.5t42 -255.5l61 -393h13q9 19 182 397l233 508q5 12 11 16 t22 4h129q24 0 15 -22l-572 -1239q-62 -135 -137 -195.5t-193 -60.5q-123 0 -254 55q-25 11 -29 17z" />
<glyph unicode="&#x444;" horiz-adv-x="1400" d="M109 451q0 123 32 226.5t88 177t132.5 125.5t165 78t186.5 29l53 379q4 20 10.5 25.5t24.5 5.5h112q18 0 24 -6t5 -25l-53 -379q213 -6 330.5 -124.5t117.5 -335.5q0 -274 -161.5 -453.5t-444.5 -196.5l-51 -362q-4 -18 -10.5 -23.5t-24.5 -5.5h-113q-18 0 -23.5 5.5 t-4.5 23.5l53 362q-223 17 -335.5 143.5t-112.5 330.5zM272 465q0 -67 18 -125t53.5 -105t95 -76.5t136.5 -35.5l115 815q-189 -8 -303.5 -137t-114.5 -336zM754 123q106 10 188.5 55t132 114.5t74.5 153.5t25 177q0 144 -77.5 226t-230.5 89z" />
<glyph unicode="&#x445;" horiz-adv-x="933" d="M-32 9q-3 9 7 22l418 538l-231 475q-6 8 -2 19.5t20 11.5h119q21 0 29.5 -5.5t15.5 -18.5l162 -351l264 351q17 24 45 24h137q11 0 15 -5t2 -11t-6 -10l-371 -471l270 -549q6 -7 3 -18t-19 -11h-131q-15 0 -24 4t-12.5 8t-8.5 13l-189 411l-313 -409q-7 -8 -8 -9.5 t-7 -6.5t-9 -6.5t-9.5 -3t-13.5 -1.5h-137q-13 0 -16 9z" />
<glyph unicode="&#x446;" horiz-adv-x="1198" d="M147 489l76 558q4 19 11.5 24.5t25.5 5.5h109q19 0 24.5 -5.5t1.5 -24.5l-78 -553q-17 -123 -9 -202t68 -117t189 -38q144 0 264 64q-34 99 -6 297l76 549q4 20 10.5 25t24.5 5h108q19 0 25.5 -5.5t5.5 -24.5l-80 -562q-11 -87 -8.5 -154.5t36.5 -118.5t105 -79 q42 -18 52 -41.5t-2 -60.5l-99 -389q-10 -29 -26 -29h-107q-19 0 -16 29l53 374q-65 19 -94 60q-150 -96 -367 -96q-249 0 -332 115t-41 394z" />
<glyph unicode="&#x447;" horiz-adv-x="1038" d="M131 809l33 235q4 20 11.5 25.5t25.5 5.5h110q19 0 25 -6t2 -25l-33 -239q-20 -150 25.5 -202t181.5 -52q58 0 133 10t123 29l63 454q1 19 9 25t26 6h111q19 0 25 -6t2 -25l-142 -1013q-4 -20 -10.5 -25.5t-24.5 -5.5h-110q-19 0 -26 6t-3 25l57 407q-55 -19 -139 -31 t-143 -12q-207 0 -285 100.5t-47 313.5z" />
<glyph unicode="&#x448;" horiz-adv-x="1763" d="M132.5 277.5q-10.5 91.5 8.5 199.5l80 570q4 20 10.5 25t24.5 5h111q19 0 24.5 -5.5t1.5 -24.5q-7 -36 -41.5 -274.5t-34.5 -264.5q-16 -121 -7.5 -203.5t64 -125t167.5 -42.5q68 0 148.5 18.5t135.5 49.5q-19 75 -18.5 135t14.5 158l78 549q1 19 8.5 24.5t26.5 5.5h108 q19 0 26 -5.5t3 -24.5l-78 -551q-13 -80 -10 -146t24 -113.5t77.5 -73.5t150.5 -26q125 0 197 17l124 893q4 20 10.5 25t24.5 5h109q19 0 25.5 -5.5t5.5 -24.5l-125 -879q-11 -76 -43 -115t-107 -57q-66 -16 -235 -16q-120 0 -193.5 24.5t-126.5 83.5q-79 -51 -187.5 -79.5 t-219.5 -28.5q-118 0 -197.5 37t-116.5 103t-47.5 157.5z" />
<glyph unicode="&#x449;" horiz-adv-x="1855" d="M130.5 319.5q0.5 74.5 10.5 157.5l80 570q4 20 10.5 25t24.5 5h109q18 0 23.5 -6t4.5 -24l-78 -541q-15 -83 -12 -151t23.5 -116.5t74 -75t140.5 -26.5q63 0 144.5 20t139.5 48q-30 97 -4 291l78 551q1 19 8.5 24.5t26.5 5.5h106q19 0 25.5 -6t5.5 -24l-76 -537 q-7 -45 -10 -79t-2 -75t8 -70.5t23.5 -59t42 -48t65.5 -30t92 -11.5q142 0 261 68q-13 42 -16 92t1 93t13 106q5 42 37.5 275.5t37.5 275.5q4 20 10.5 25t24.5 5h109q19 0 25.5 -6t2.5 -24l-75 -551q-6 -46 -8.5 -77t-2 -71.5t8.5 -68.5t23.5 -57.5t43 -52t66.5 -38.5 q42 -18 51 -40.5t-4 -59.5l-92 -389q-4 -16 -10 -21.5t-17 -5.5h-113q-21 0 -18 29l53 372q-69 29 -92 64q-156 -100 -344 -100q-97 0 -167 25t-122 83q-179 -108 -407 -108q-98 0 -169 25t-111 70.5t-62 107.5t-21.5 136.5z" />
<glyph unicode="&#x44a;" horiz-adv-x="1284" d="M81.5 929.5q-4.5 7.5 0.5 24.5l12 88q2 18 8 25.5t23 7.5h434q35 0 54.5 -21t13.5 -65l-45 -289q147 45 295 45q346 0 346 -315q0 -61 -13.5 -120.5t-48.5 -121t-89 -107.5t-142 -75t-199 -29q-101 0 -210 19t-181 51q-25 9 -18 39l120 836h-338q-18 0 -22.5 7.5z M502 156q106 -33 248 -33q80 0 141.5 26t95 68t50 89t16.5 95q0 94 -48.5 143.5t-164.5 49.5q-141 0 -279 -43z" />
<glyph unicode="&#x44b;" horiz-adv-x="1437" d="M88 86l133 958q4 20 11.5 25.5t25.5 5.5h111q19 0 24.5 -6t1.5 -25l-47 -344q147 45 293 45q348 0 348 -315q0 -61 -13.5 -120.5t-49 -121t-89.5 -107.5t-142 -75t-199 -29q-102 0 -210.5 19t-179.5 51q-25 9 -18 39zM266 156q93 -33 250 -33q80 0 140.5 26t94 68t50 89 t16.5 95q0 93 -49 143t-162 50q-142 0 -280 -43zM1055 37l143 1003q4 22 11.5 28.5t27.5 6.5h98q21 0 29 -6.5t4 -28.5l-141 -1003q-4 -23 -13 -30t-28 -7h-99q-20 0 -26.5 7.5t-5.5 29.5z" />
<glyph unicode="&#x44c;" horiz-adv-x="1050" d="M88 86l133 958q4 20 11.5 25.5t25.5 5.5h111q19 0 24.5 -6t1.5 -25l-47 -344q147 45 293 45q348 0 348 -315q0 -61 -13.5 -120.5t-49 -121t-89.5 -107.5t-142 -75t-199 -29q-102 0 -210.5 19t-179.5 51q-25 9 -18 39zM266 156q93 -33 250 -33q80 0 140.5 26t94 68t50 89 t16.5 95q0 93 -49 143t-162 50q-142 0 -280 -43z" />
<glyph unicode="&#x44d;" horiz-adv-x="946" d="M31 92l39 78q12 25 41 12q119 -51 233 -51q164 0 249.5 95t111.5 270h-396q-21 0 -18 28l12 97q3 22 25 22h389q2 14 2 31q0 262 -238 262q-117 0 -248 -49q-25 -11 -34 10l-31 84q-7 17 -4.5 26.5t18.5 16.5q139 74 320 74q391 0 391 -434q0 -314 -145.5 -500.5 t-397.5 -186.5q-195 0 -313 74q-23 11 -6 41z" />
<glyph unicode="&#x44e;" horiz-adv-x="1464" d="M82 37l141 1003q4 22 13 28.5t28 6.5h96q25 0 32 -6.5t3 -28.5l-57 -399h184q57 221 180.5 339t315.5 118q191 0 290 -111t99 -319q0 -324 -145.5 -507.5t-382.5 -183.5q-191 0 -289 106t-98 308q0 49 6 101h-179l-65 -455q-5 -23 -12.5 -30t-30.5 -7h-96 q-20 0 -28.5 7.5t-4.5 29.5zM664 401q0 -274 231 -274q89 0 157.5 49.5t107 130t58 172t19.5 187.5q0 131 -55 206.5t-174 75.5q-107 0 -186.5 -74t-118.5 -196.5t-39 -276.5z" />
<glyph unicode="&#x44f;" horiz-adv-x="1081" d="M20 18q0 12 3 15l114 293q15 35 26 55.5t30.5 45t47 40t64.5 25.5v2q-149 66 -149 231q0 157 102.5 253.5t280.5 96.5h424q75 0 75 -67q0 -13 -2 -17q-22 -153 -66 -474t-69 -490q-1 -17 -10 -22t-29 -5h-104q-31 0 -31 23v6q12 70 30.5 206t30.5 205h-260 q-85 0 -138 -30t-83 -113q-14 -36 -50.5 -135t-49.5 -135q-15 -27 -37 -27h-125q-25 0 -25 18zM332 731q0 -67 44 -107t138 -40h295q8 58 22.5 170t22.5 170h-315q-107 0 -157 -57t-50 -136z" />
<glyph unicode="&#x451;" horiz-adv-x="1005" d="M102 391q0 178 41 315.5t114.5 222t168.5 127t209 42.5q78 0 139.5 -18t100 -46.5t63.5 -66.5t35 -75t10 -75q0 -182 -126 -265t-394 -83q-108 0 -187 12q-6 -47 -6 -86q-2 -136 57 -199t193 -63q120 0 236 57q17 6 23 4t12 -14l43 -86q9 -25 -19 -41q-134 -76 -328 -76 q-197 0 -291 99.5t-94 314.5zM295 612q73 -8 164 -8q204 0 285 46.5t81 148.5q0 64 -48.5 106.5t-153.5 42.5q-136 0 -219 -84.5t-109 -251.5zM403 1372q0 46 38 84.5t87 38.5q37 0 66 -29t29 -67q0 -46 -42 -84.5t-85 -38.5q-38 0 -66 29t-27 67zM760 1372q0 47 39.5 85 t87.5 38q38 0 66 -29t28 -67q0 -45 -40.5 -84t-84.5 -39q-41 0 -68.5 28.5t-27.5 67.5z" />
<glyph unicode="&#x452;" horiz-adv-x="1097" d="M98 31l164 1183h-82q-16 0 -19 5t-1 24l8 53q1 2 2.5 7t2 6.5t2 5t3.5 5t4.5 3t6 2t8.5 0.5h84l18 141q4 20 10.5 25.5t24.5 5.5h108q18 0 24 -6t5 -25l-20 -141h405q28 0 18 -29l-6 -53q-2 -18 -6.5 -23.5t-21.5 -5.5h-406l-31 -221q131 45 275 45q373 0 373 -407 q0 -146 -50.5 -293.5t-150 -274.5t-229.5 -198q-25 -16 -35 8l-43 78q-13 16 12 31q137 88 228 266t91 373q0 132 -60 197t-191 65q-134 0 -242 -43l-113 -809q-4 -20 -10.5 -25.5t-24.5 -5.5h-108q-19 0 -25 6t-2 25z" />
<glyph unicode="&#x453;" horiz-adv-x="899" d="M41 240q0 58 22.5 109t55 88.5t88 75.5t101.5 62.5t116 57.5q13 6 51 23.5t55.5 26.5t50 26.5t49.5 31t36 31.5t27.5 37t8.5 39q0 32 -12.5 52.5t-36.5 28.5t-44.5 10.5t-51.5 2.5q-131 0 -311 -70q-9 -8 -23.5 -6.5t-23.5 23.5l-31 72q-15 33 12 49q90 44 200.5 69 t209.5 25q139 0 219 -64.5t80 -175.5q0 -52 -20 -98t-53 -82t-88 -72t-114 -64.5t-141 -62.5q-57 -25 -96.5 -47t-78.5 -52t-59 -65t-20 -75q0 -63 48 -87t143 -24q120 0 311 80q30 23 45 -6l37 -86q3 -6 4.5 -11.5t1 -9.5t-1 -6.5t-3 -5t-4 -3.5t-5 -3t-4.5 -2 q-186 -98 -392 -98q-169 0 -263.5 62.5t-94.5 193.5zM508 1284l176 315q16 28 41 21l131 -37q28 -7 10 -33l-256 -307q-11 -16 -21.5 -19t-21.5 3l-51 22q-23 9 -8 35z" />
<glyph unicode="&#x454;" horiz-adv-x="950" d="M106 406q0 205 60 361t175.5 243.5t270.5 87.5q200 0 316 -72q21 -12 6 -43l-37 -84q-12 -28 -41 -12q-97 51 -238 51q-123 0 -203.5 -85.5t-111.5 -223.5h393q20 0 17 -23l-15 -104q-7 -21 -22 -21h-395q-2 -25 -2 -69q0 -279 253 -279q127 0 252 53q5 3 9 4t7 2 t5.5 0.5t4 -0.5t3.5 -3t2.5 -3.5t3 -4.5t2.5 -5l39 -86q12 -27 -16 -43q-134 -70 -334 -70q-195 0 -299.5 107.5t-104.5 321.5z" />
<glyph unicode="&#x455;" horiz-adv-x="921" d="M51 102l37 84q15 30 45 15q144 -72 309 -72q102 0 165.5 44t64.5 124q0 62 -53 103t-168 87q-144 57 -211.5 126.5t-67.5 170.5q0 148 100.5 231t284.5 83q167 0 301 -60q24 -12 12 -39l-39 -94q-6 -12 -13 -14t-17 4q-122 51 -258 51q-95 0 -147 -43t-52 -112 q0 -53 45 -88.5t166 -84.5q68 -29 111.5 -53.5t89 -62.5t68 -88t22.5 -113q0 -82 -34.5 -146t-93 -102t-131.5 -57t-155 -19q-102 0 -203 20.5t-170 61.5q-23 10 -8 43z" />
<glyph unicode="&#x456;" horiz-adv-x="516" d="M121 31l141 1013q4 19 12.5 25t26.5 6h107q20 0 26 -6t2 -25l-141 -1013q-4 -20 -11 -25.5t-26 -5.5h-106q-19 0 -27 6t-4 25zM281 1343q0 56 39.5 98t93.5 42q44 0 72 -30t28 -75q0 -54 -41.5 -94.5t-93.5 -40.5q-41 0 -69.5 28.5t-28.5 71.5z" />
<glyph unicode="&#x457;" horiz-adv-x="516" d="M111 1358q0 46 38 84.5t87 38.5q37 0 65.5 -29.5t28.5 -67.5q0 -46 -42 -84t-85 -38q-38 0 -66 29t-26 67zM121 31l141 1013q4 19 12.5 25t26.5 6h107q20 0 26 -6t2 -25l-141 -1013q-4 -20 -11 -25.5t-26 -5.5h-106q-19 0 -27 6t-4 25zM467 1358q0 47 39.5 85t87.5 38 q38 0 66 -29t28 -68q0 -45 -40.5 -83.5t-84.5 -38.5q-41 0 -68.5 28.5t-27.5 67.5z" />
<glyph unicode="&#x458;" horiz-adv-x="542" d="M-176 -330q-3 26 24 35q69 24 120 55.5t82.5 65.5t53 82t32.5 93t20 110l131 933q1 19 9.5 25t27.5 6h108q19 0 26 -6t3 -25l-127 -901q-27 -190 -83 -309t-141.5 -183.5t-222.5 -101.5q-25 -9 -28 17zM301 1343q0 56 40.5 98t94.5 42q43 0 72 -30t29 -73 q-1 -56 -42.5 -96.5t-93.5 -40.5q-43 0 -71.5 28.5t-28.5 71.5z" />
<glyph unicode="&#x459;" horiz-adv-x="1640" d="M-35 68q-6 23 0.5 33.5t30.5 21.5q52 24 82.5 45.5t64 62.5t58 106t50.5 164.5t56 250.5l33 180q12 68 44 105.5t99 37.5h420q44 0 61.5 -23.5t12.5 -58.5l-41 -293q147 45 293 45q98 0 167 -23.5t107 -67.5t55 -98.5t17 -125.5q0 -61 -13.5 -120.5t-48.5 -121 t-89 -107.5t-142 -75t-199 -29q-101 0 -210 19t-181 51q-21 9 -18 39l119 834h-285q-12 -49 -33 -162q-31 -152 -54.5 -251.5t-53 -187.5t-58.5 -140t-70.5 -94.5t-89.5 -66.5t-116 -43q-38 -10 -45 17zM856 154q106 -33 244 -33q79 0 140 26.5t95 69t51 89.5t17 95 q0 94 -48.5 143.5t-164.5 49.5q-135 0 -277 -43z" />
<glyph unicode="&#x45a;" horiz-adv-x="1660" d="M82 37l141 1003q4 22 13.5 28.5t29.5 6.5h99q21 0 28.5 -6.5t3.5 -28.5l-49 -362h443l49 366q4 20 11.5 25.5t25.5 5.5h110q18 0 24 -6t5 -25l-49 -348q142 49 286 49q98 0 167 -23.5t107 -68t55 -99.5t17 -126q0 -61 -13 -119.5t-48 -120t-89 -107t-142.5 -75 t-200.5 -29.5q-100 0 -205 19t-176 51q-25 9 -18 39l61 444h-438l-76 -493q-1 -22 -10 -29.5t-29 -7.5h-98q-21 0 -30 7.5t-5 29.5zM887 156q100 -33 239 -33q81 0 142.5 25.5t95 67.5t50 87.5t16.5 93.5q0 96 -48.5 145.5t-164.5 49.5q-135 0 -273 -43z" />
<glyph unicode="&#x45b;" horiz-adv-x="1116" d="M82 31l164 1186h-80q-17 0 -20.5 6.5t1.5 19.5l9 55q1 11 2.5 16t7 9t16.5 4h82l19 139q4 20 11 25.5t25 5.5h109q19 0 25 -6t2 -25l-19 -139h414q16 0 19 -6.5t1 -22.5l-6 -55q-3 -10 -4 -12t-4.5 -7t-8.5 -6t-13 -1h-414l-31 -228q123 45 289 45q111 0 186 -33.5 t111.5 -96t47 -151.5t-6.5 -200l-74 -522q-4 -20 -11.5 -25.5t-25.5 -5.5h-110q-18 0 -24 6t-5 25l74 520q24 171 -23.5 249.5t-189.5 78.5q-166 0 -260 -43l-113 -805q-4 -20 -10.5 -25.5t-24.5 -5.5h-108q-19 0 -26 6t-3 25z" />
<glyph unicode="&#x45c;" horiz-adv-x="1009" d="M80 31l141 1013q4 19 12.5 25t26.5 6h107q19 0 24.5 -6t1.5 -25l-55 -397h168q71 0 124 31t91 117l110 256q10 24 35 24h113q30 0 16 -33l-112 -268q-55 -146 -156 -190l-2 -4q67 -23 94 -68t39 -123l51 -354v-6v-7t-0.5 -6.5t-2.5 -6.5l-4.5 -4.5t-7.5 -3.5t-11 -1h-117 q-25 0 -31 23l-49 337q-11 73 -59.5 108.5t-114.5 35.5h-193l-67 -473q-4 -20 -10.5 -25.5t-24.5 -5.5h-106q-19 0 -27 6t-4 25zM535 1253l176 316q15 27 41 20l131 -37q28 -7 10 -32l-256 -308q-11 -16 -21.5 -19t-21.5 3l-51 23q-22 8 -8 34z" />
<glyph unicode="&#x45e;" horiz-adv-x="972" d="M-138 -370q-4 6 3 26l35 86q7 19 14.5 21t30.5 -7q121 -43 200 -43q67 0 108.5 34t82.5 124l63 139h-26q-19 0 -27.5 1.5t-19.5 7.5t-17.5 21.5t-11.5 41.5l-166 971q-3 22 16 22h123q24 0 27 -20q4 -20 42 -256.5t42 -255.5l61 -393h13q9 19 182 397l233 508q5 12 11 16 t22 4h129q24 0 15 -22l-572 -1239q-62 -135 -137 -195.5t-193 -60.5q-123 0 -254 55q-25 11 -29 17zM301 1413q-14 23 10 39l45 35q19 9 23 7.5t16 -15.5q115 -140 221 -140q109 0 265 146q16 12 23.5 12.5t13.5 -6.5l34 -33q4 -6 6.5 -10.5t3.5 -8t0 -7.5t-1.5 -5t-3.5 -5 t-3 -5q-184 -219 -362 -219q-92 0 -167.5 60.5t-123.5 154.5z" />
<glyph unicode="&#x45f;" horiz-adv-x="1099" d="M147 489l76 558q4 19 11.5 24.5t25.5 5.5h109q19 0 24.5 -5.5t1.5 -24.5l-76 -547q-22 -133 -10 -214t71.5 -115t190.5 -34q88 0 195 17l127 893q4 20 10.5 25t24.5 5h110q19 0 25 -5.5t2 -24.5l-125 -895q-18 -132 -147 -156q-125 -16 -256 -16q-263 0 -347.5 113.5 t-42.5 395.5zM362 -512l74 369q13 34 39 34l152 23q19 1 26 -11t0 -24l-139 -385q-9 -16 -12.5 -21t-11.5 -9.5t-21 -4.5h-74q-20 0 -28 7.5t-5 21.5z" />
<glyph unicode="&#x490;" horiz-adv-x="1093" d="M102 39l146 1044q9 62 22.5 109.5t41 95t65.5 79t98.5 50.5t138.5 19l428 2l33 241q5 20 10.5 25.5t22.5 5.5h98q21 0 28 -6t3 -25l-41 -293q-16 -120 -141 -120h-443q-84 0 -125 -36.5t-53 -117.5l-151 -1073q-1 -24 -11 -31.5t-34 -7.5h-99q-22 0 -31.5 8t-5.5 31z" />
<glyph unicode="&#x491;" horiz-adv-x="944" d="M84 37l102 715q9 69 29.5 123t57.5 101.5t99 73t146 25.5l348 2l33 238q4 17 10.5 21.5t20.5 4.5h98q19 0 25 -5t2 -21l-39 -281q-6 -52 -40 -82t-93 -30h-361q-73 0 -112 -34t-50 -106l-104 -745q-1 -23 -9 -30t-32 -7h-96q-21 0 -30 7.5t-5 29.5z" />
<glyph unicode="&#x4d9;" horiz-adv-x="1001" d="M51 260q0 181 127 264.5t395 83.5q105 0 187 -12q6 46 6 86q2 136 -58 199t-194 63q-117 0 -233 -57q-17 -6 -23 -4t-12 14l-43 86q-16 25 16 41q137 76 330 76q197 0 291 -99.5t94 -314.5q0 -178 -41 -315.5t-114.5 -221.5t-168.5 -126.5t-209 -42.5q-97 0 -168.5 26 t-109 69t-55 89.5t-17.5 95.5zM211 279q0 -65 47.5 -107.5t153.5 -42.5q136 0 219.5 85t109.5 251q-73 8 -163 8q-204 0 -285.5 -46t-81.5 -148z" />
<glyph unicode="&#x2000;" horiz-adv-x="934" />
<glyph unicode="&#x2001;" horiz-adv-x="1868" />
<glyph unicode="&#x2002;" horiz-adv-x="934" />
<glyph unicode="&#x2003;" horiz-adv-x="1868" />
<glyph unicode="&#x2004;" horiz-adv-x="622" />
<glyph unicode="&#x2005;" horiz-adv-x="467" />
<glyph unicode="&#x2006;" horiz-adv-x="311" />
<glyph unicode="&#x2007;" horiz-adv-x="311" />
<glyph unicode="&#x2008;" horiz-adv-x="233" />
<glyph unicode="&#x2009;" horiz-adv-x="373" />
<glyph unicode="&#x200a;" horiz-adv-x="103" />
<glyph unicode="&#x2010;" horiz-adv-x="655" d="M78 516l20 139q2 18 8.5 25.5t24.5 7.5h461q16 0 21 -7.5t3 -25.5l-22 -139q-2 -19 -7.5 -26t-23.5 -7h-459q-20 0 -25.5 7.5t-0.5 25.5z" />
<glyph unicode="&#x2011;" horiz-adv-x="655" d="M78 516l20 139q2 18 8.5 25.5t24.5 7.5h461q16 0 21 -7.5t3 -25.5l-22 -139q-2 -19 -7.5 -26t-23.5 -7h-459q-20 0 -25.5 7.5t-0.5 25.5z" />
<glyph unicode="&#x2012;" horiz-adv-x="655" d="M78 516l20 139q2 18 8.5 25.5t24.5 7.5h461q16 0 21 -7.5t3 -25.5l-22 -139q-2 -19 -7.5 -26t-23.5 -7h-459q-20 0 -25.5 7.5t-0.5 25.5z" />
<glyph unicode="&#x2013;" horiz-adv-x="993" d="M77.5 538q-4.5 8 0.5 25l12 99q5 19 11 25.5t24 6.5h831q19 0 24.5 -7.5t0.5 -24.5l-12 -99q-5 -19 -11.5 -26t-23.5 -7h-834q-18 0 -22.5 8z" />
<glyph unicode="&#x2014;" horiz-adv-x="1986" d="M72 563l12 99q5 19 11 25.5t24 6.5h1839q18 0 22.5 -7.5t-0.5 -24.5l-12 -99q-5 -19 -11.5 -26t-23.5 -7h-1837q-18 0 -22 7t-2 26z" />
<glyph unicode="&#x2018;" horiz-adv-x="577" d="M201.5 955.5q-6.5 11.5 1.5 23.5l198 457q8 21 15.5 27.5t27.5 6.5h58q20 0 28 -7t5 -21l-99 -461q-2 -15 -11.5 -26t-25.5 -11h-170q-21 0 -27.5 11.5z" />
<glyph unicode="&#x2019;" horiz-adv-x="577" d="M244 973l96 463q11 29 23 34q6 3 14 3h168q21 0 28 -11.5t2 -25.5l-200 -457q-6 -21 -14.5 -28t-28.5 -7h-60q-38 0 -28 29z" />
<glyph unicode="&#x201a;" horiz-adv-x="473" d="M31 -225q16 78 48.5 229t47.5 229q13 35 39 35h168q31 0 31 -24v-4l-3 -2v-5q-28 -65 -94 -216t-102 -236q-12 -22 -18.5 -28.5t-24.5 -6.5h-60q-32 0 -32 18v11z" />
<glyph unicode="&#x201c;" horiz-adv-x="845" d="M201.5 956.5q-6.5 12.5 1.5 24.5l198 457q8 21 16 28t27 7h58q20 0 28 -7.5t5 -21.5l-99 -463q-2 -14 -11.5 -25.5t-25.5 -11.5h-170q-21 0 -27.5 12.5zM543 981l198 457q8 21 16 28t27 7h60q34 0 28 -29l-94 -463q-4 -11 -7.5 -17.5t-11.5 -13t-20 -6.5h-170 q-19 0 -25 11.5t-1 25.5z" />
<glyph unicode="&#x201d;" horiz-adv-x="845" d="M203 975l96 461q4 12 7 18t10.5 12.5t19.5 6.5h168q21 0 28.5 -11.5t2.5 -23.5l-199 -457q-8 -21 -16.5 -29t-26.5 -8h-62q-37 0 -28 31zM543 975l96 461q4 37 39 37h168q19 0 26 -12.5t0 -22.5l-196 -457q-8 -21 -17 -29t-28 -8h-60q-34 0 -28 31z" />
<glyph unicode="&#x201e;" horiz-adv-x="792" d="M33 -227l96 463q13 34 37 34h168q22 0 29 -10t2 -24l-199 -457q-2 -3 -5.5 -9.5t-4.5 -8.5t-4 -6t-5 -5t-5.5 -3t-7.5 -2.5t-9 -0.5h-59q-19 0 -28 8t-5 21zM352 -227l97 463q4 11 7 16.5t10.5 11.5t18.5 6h168q22 0 29 -10t2 -24l-199 -457q-2 -3 -5.5 -9.5t-4.5 -8.5 t-4 -6t-5 -5t-5.5 -3t-7.5 -2.5t-9 -0.5h-59q-19 0 -28 8t-5 21z" />
<glyph unicode="&#x2026;" horiz-adv-x="1468" d="M74 100q0 67 49 116.5t113 49.5q56 0 90 -34t34 -89q0 -68 -48.5 -118t-114.5 -50q-54 0 -88.5 35.5t-34.5 89.5zM557 98q0 68 49 118t113 50q55 0 89 -34.5t34 -88.5q0 -68 -49 -118t-115 -50q-54 0 -87.5 34.5t-33.5 88.5zM1038 100q0 67 50 116.5t116 49.5 q54 0 87.5 -34.5t33.5 -88.5q0 -67 -48.5 -117.5t-113.5 -50.5q-54 0 -89.5 35.5t-35.5 89.5z" />
<glyph unicode="&#x202f;" horiz-adv-x="373" />
<glyph unicode="&#x2030;" horiz-adv-x="2613" d="M176 862q0 232 109.5 379.5t296.5 147.5q158 0 233.5 -89.5t75.5 -250.5q0 -233 -107.5 -373.5t-304.5 -140.5q-148 0 -225.5 85.5t-77.5 241.5zM330 868q0 -213 166 -213q68 0 118.5 38t77.5 99.5t40 126.5t13 132q0 215 -167 215q-67 0 -117.5 -38t-77.5 -99.5 t-40 -127.5t-13 -133zM406 -16l1011 1413q11 18 17.5 23t23.5 5h70q29 0 12 -28l-1012 -1413q-10 -17 -20 -23t-27 -6h-61q-30 0 -14 29zM1038 313q0 232 109.5 380.5t296.5 148.5q159 0 234 -90t75 -252q0 -233 -109 -372.5t-305 -139.5q-146 0 -223.5 85t-77.5 240z M1192 322q0 -213 164 -213q56 0 101 25.5t72.5 66t46 93.5t25.5 104.5t7 103.5q0 215 -168 215q-67 0 -117.5 -38t-77.5 -99t-40 -126t-13 -132zM1845 313q0 232 109.5 380.5t296.5 148.5q159 0 234 -90t75 -252q0 -233 -109 -372.5t-305 -139.5q-146 0 -223.5 85t-77.5 240 zM1999 322q0 -213 164 -213q56 0 101 25.5t72.5 66t46 93.5t25.5 104.5t7 103.5q0 215 -168 215q-67 0 -117.5 -38t-77.5 -99t-40 -126t-13 -132z" />
<glyph unicode="&#x2039;" horiz-adv-x="634" d="M141 500q1 15 7.5 29t20 32.5t15.5 22.5l238 321q14 20 28 28.5t44 8.5h98q19 0 22.5 -12t-8.5 -29l-293 -405l189 -394q12 -39 -31 -39h-102q-19 0 -31 5.5t-15.5 10.5t-13.5 21l-151 322q-23 54 -17 78z" />
<glyph unicode="&#x203a;" horiz-adv-x="634" d="M50.5 73q-4.5 10 8.5 29l297 396l-178 403q-7 17 1.5 29t27.5 12h100q27 0 38 -8.5t20 -28.5l147 -321q2 -4 7.5 -17.5t7 -20t4.5 -22t-1 -24.5q-11 -41 -38 -76l-244 -324q-12 -19 -26.5 -28t-43.5 -9h-104q-19 0 -23.5 10z" />
<glyph unicode="&#x2044;" horiz-adv-x="366" d="M-356 -16l1011 1413q11 18 17.5 23t23.5 5h70q29 0 12 -28l-1011 -1413q-10 -17 -20.5 -23t-27.5 -6h-61q-30 0 -14 29z" />
<glyph unicode="&#x205f;" horiz-adv-x="467" />
<glyph unicode="&#x2070;" horiz-adv-x="792" d="M137 1047q0 232 109.5 379t296.5 147q158 0 233.5 -89.5t75.5 -250.5q0 -233 -107.5 -373.5t-304.5 -140.5q-148 0 -225.5 86t-77.5 242zM291 1053q0 -213 166 -213q68 0 119 38t78 99t40 126t13 132q0 215 -168 215q-67 0 -117.5 -38t-77.5 -99.5t-40 -127t-13 -132.5z " />
<glyph unicode="&#x2074;" horiz-adv-x="792" d="M109 971l4 24q8 40 39 74l438 455q17 18 26 27t26.5 17.5t35.5 8.5h43q37 0 52 -16t9 -54l-65 -473h78q22 0 26 -10t0 -27l-6 -51q-7 -25 -13 -30q-7 -5 -24 -5h-80l-22 -147q-1 -22 -10 -27.5t-31 -5.5h-72q-21 0 -28 5.5t-3 27.5l21 145h-383q-31 0 -48.5 12.5 t-12.5 49.5zM305 1042l2 -8h264l50 340h-3q-2 0 -4 2q-158 -174 -309 -334z" />
<glyph unicode="&#x2075;" horiz-adv-x="792" d="M135 829l41 70q17 19 41 4q98 -55 211 -55q102 0 162.5 43t60.5 127q0 58 -43.5 87.5t-109.5 29.5q-88 0 -183 -37q-7 -3 -20 -8t-17.5 -6.5t-12.5 -2.5t-14.5 0.5t-14.5 5.5l-33 15q-33 17 -23 61l80 324q8 36 33 56t61 16h422q17 0 22 -6.5t3 -24.5l-8 -66 q-4 -18 -11.5 -24t-25.5 -6h-371l-47 -197q78 27 186 27q123 0 196 -63.5t73 -172.5q0 -144 -102.5 -226.5t-266.5 -82.5q-153 0 -281 78q-21 15 -8 34z" />
<glyph unicode="&#x2076;" horiz-adv-x="792" d="M143 1036q0 113 29.5 209.5t86 171.5t148 117.5t207.5 42.5q82 0 152 -23q15 -5 18.5 -10.5t-0.5 -21.5l-16 -62q-5 -18 -12 -22t-29 0q-91 14 -113 14q-119 0 -188.5 -56.5t-103.5 -162.5q108 24 219 24q130 0 206 -56.5t76 -170.5q0 -82 -33 -144.5t-88.5 -97.5 t-118.5 -52t-132 -17q-153 0 -230.5 82.5t-77.5 234.5zM287 1026q0 -87 46 -134.5t138 -47.5q88 0 145.5 46t57.5 124q0 52 -38.5 84t-113.5 32q-106 0 -229 -30q-6 -43 -6 -74z" />
<glyph unicode="&#x2077;" horiz-adv-x="690" d="M193 772l473 660h-437q-32 0 -26 32l8 66q3 15 8 21.5t10 7t21 0.5h532q33 0 47.5 -11.5t10.5 -44.5l-4 -33q-9 -38 -27 -65l-457 -647q-9 -10 -14 -14.5t-14 -8.5t-21 -4h-94q-46 0 -16 41z" />
<glyph unicode="&#x2078;" horiz-adv-x="792" d="M135 936q0 75 44.5 143.5t119.5 98.5v4q-76 35 -76 131q0 122 97 193t233 71q125 0 194.5 -54.5t69.5 -142.5q0 -34 -9 -67t-39.5 -70.5t-78.5 -60.5l2 -4q103 -41 103 -170q0 -36 -10.5 -73.5t-37 -77t-65 -69.5t-101 -49.5t-139.5 -19.5q-153 0 -230 59.5t-77 157.5z M287 958q0 -51 39.5 -83.5t122.5 -32.5q100 0 151 49.5t51 112.5q0 55 -47 85.5t-117 30.5q-76 0 -138 -44t-62 -118zM369 1327q0 -42 38.5 -69t96.5 -27q73 0 119.5 34.5t46.5 90.5q0 44 -35 70t-100 26q-73 0 -119.5 -36.5t-46.5 -88.5z" />
<glyph unicode="&#x2079;" horiz-adv-x="792" d="M164 1268q0 66 21.5 120t57 89t83.5 58.5t99 33.5t105 10q153 0 233.5 -83t80.5 -234q0 -113 -29.5 -209.5t-86 -171.5t-148 -117.5t-207.5 -42.5q-85 0 -152 22q-15 5 -18.5 11t0.5 22l18 62q5 18 12 22t29 0q91 -14 113 -14q223 0 291 219q-112 -25 -217 -25 q-131 0 -208 57t-77 171zM313 1284q0 -52 38.5 -84.5t113.5 -32.5q102 0 229 31q6 43 6 74q0 87 -45 134.5t-137 47.5q-89 0 -147 -46t-58 -124z" />
<glyph unicode="&#x207a;" horiz-adv-x="759" d="M160 1137l10 67q3 31 41 31h217l31 211q1 15 6.5 22.5t12.5 9t20 1.5h69q19 0 25 -5.5t2 -27.5l-29 -211h221q19 0 24 -7.5t3 -23.5l-10 -67q-2 -19 -7.5 -25t-27.5 -6h-221l-31 -213q-4 -20 -11.5 -26.5t-25.5 -6.5h-69q-19 0 -26 7t-3 26l29 213h-220q-22 0 -27 6 t-3 25z" />
<glyph unicode="&#x207b;" horiz-adv-x="425" d="M131 1135l10 77q5 19 11.5 26t25.5 7h295q20 0 25 -7.5t0 -25.5l-11 -77q-5 -24 -9.5 -29.5t-24.5 -5.5h-295q-20 0 -25.5 6.5t-1.5 28.5z" />
<glyph unicode="&#x207c;" horiz-adv-x="759" d="M174 1018l10 65q5 20 11.5 27.5t23.5 7.5h524q22 0 28 -8.5t1 -26.5l-10 -65q-6 -25 -13 -29t-24 -4h-524q-33 0 -27 33zM207 1249l10 68q5 19 11.5 26t23.5 7h524q22 0 28 -7.5t1 -25.5l-10 -68q-3 -10 -3.5 -12t-3 -8t-6 -6.5t-9.5 -2t-15 -1.5h-525q-20 0 -25.5 6.5 t-0.5 23.5z" />
<glyph unicode="&#x207d;" horiz-adv-x="393" d="M162 1042q0 177 84.5 321.5t224.5 252.5q25 22 41 12l41 -43q11 -9 13.5 -15.5t0 -10.5t-11.5 -13q-121 -127 -177 -244t-56 -255q0 -168 102 -340q7 -10 6 -16.5t-12 -16.5l-41 -31q-25 -16 -41 -6q-79 77 -126.5 180.5t-47.5 224.5z" />
<glyph unicode="&#x207e;" horiz-adv-x="399" d="M17.5 693.5q-2.5 6.5 0 10.5t11.5 13q120 128 175.5 245t55.5 255q0 171 -100 339q-8 9 -7.5 16.5t15.5 16.5l39 29q23 21 41 8q172 -172 172 -405q0 -178 -84 -323.5t-223 -252.5q-25 -20 -41 -10l-41 43q-11 9 -13.5 15.5z" />
<glyph unicode="&#x207f;" horiz-adv-x="774" d="M109.5 560q0.5 3 0.5 6.5t1 8.5l82 576q12 101 108 113q90 12 178 12q183 0 248 -79t39 -265l-49 -354q-2 -13 -3.5 -18t-7.5 -8t-9 -3h-19h-74q-28 0 -32 8q-4 6 -1 21l50 350q18 117 -15 167t-151 50q-66 0 -121 -8l-82 -562q0 -5 -0.5 -9t-2 -7t-2 -5t-3.5 -3.5 t-3.5 -2t-5 -1t-5.5 -0.5h-7h-8h-74h-6.5h-6h-5t-4.5 0.5t-3.5 1.5t-3 2.5t-2 3.5t-1 5z" />
<glyph unicode="&#x2080;" horiz-adv-x="792" d="M39 129q0 232 109 380t296 148q159 0 234.5 -90t75.5 -252q0 -233 -109 -372.5t-305 -139.5q-146 0 -223.5 85.5t-77.5 240.5zM193 137q0 -98 36 -155.5t127 -57.5q56 0 101 25.5t72.5 66t46 93.5t25.5 104.5t7 103.5q0 215 -168 215q-67 0 -117.5 -38t-77 -99 t-39.5 -126t-13 -132z" />
<glyph unicode="&#x2081;" horiz-adv-x="655" d="M92 -152l6 64q5 21 10.5 26t28.5 5h133l78 561l-135 -23q-13 -5 -21 1t-4 24l7 57l4 16t4.5 10t9 9t14.5 6l197 49q36 13 62 0.5t20 -51.5l-92 -659h137q24 0 29.5 -5.5t1.5 -25.5l-9 -64q-5 -20 -12 -26t-29 -6h-413q-22 0 -27 6.5t0 25.5z" />
<glyph unicode="&#x2082;" horiz-adv-x="763" d="M31 -104q0 46 36.5 102t93 107.5t117.5 95t117 73.5q96 50 133 83.5t37 78.5q0 43 -37 66.5t-100 23.5q-104 0 -203 -61q-13 -7 -18.5 -9.5t-14.5 -1t-16 12.5l-39 63q-11 24 19 45q61 41 136.5 64t145.5 23q125 0 200 -50.5t75 -150.5q0 -56 -17 -99.5t-62 -82 t-73.5 -57t-99.5 -58.5q-7 -4 -10 -6q-60 -34 -98 -57.5t-85 -66.5t-71 -89h415q16 0 22 -3.5t6 -11t-1 -18.5l-10 -64q-4 -32 -35 -32h-467q-96 0 -96 80z" />
<glyph unicode="&#x2083;" horiz-adv-x="741" d="M20 -92q0 7 7 14q26 43 41 62q9 12 18 12q4 0 27 -10q89 -56 198 -56q98 0 150.5 43.5t52.5 108.5q0 47 -41 79t-119 32h-45q-26 0 -34 6.5t-3 25.5l11 64q5 18 12 24t27 6h40q76 0 121 32.5t45 88.5q0 46 -38.5 66t-96.5 20q-91 0 -198 -47q-28 -12 -37 -12t-15 12 l-30 66l-4 16q0 14 20 25q123 71 293 71q110 0 184 -52.5t74 -141.5q0 -66 -34 -118t-95 -83q0 -1 -1 -2t-1 -2v-2q56 -20 84.5 -65.5t28.5 -108.5q0 -118 -98.5 -198.5t-250.5 -80.5q-173 0 -278 80q-15 12 -15 25z" />
<glyph unicode="&#x2084;" horiz-adv-x="792" d="M10 53q0 1 2 13.5t2 13.5q8 41 39 72l436 456q18 18 27 26t26.5 16.5t35.5 8.5h45q37 0 51 -14.5t10 -52.5l-68 -473h80q21 0 25 -8t2 -29l-8 -51q-7 -25 -13 -30q-7 -5 -24 -5h-80l-20 -148q-4 -22 -11.5 -27t-31.5 -5h-70q-21 0 -27.5 5t-5.5 27l23 146h-383 q-22 0 -34.5 3t-22 16.5t-5.5 39.5zM205 125l2 -6h266l49 340h-4q-2 0 -2 2z" />
<glyph unicode="&#x2085;" horiz-adv-x="792" d="M45 -86l41 70q17 19 41 4q99 -56 211 -56q102 0 162.5 43t60.5 127q0 58 -43.5 87.5t-109.5 29.5q-88 0 -183 -37q-6 -2 -17 -6.5t-15.5 -5.5t-12 -3t-12 -1.5t-10.5 2t-13 4.5l-32 14q-33 17 -23 62l80 323q8 36 33 56t61 16h422q17 0 22 -6.5t3 -24.5l-9 -65 q-4 -19 -11.5 -25t-24.5 -6h-371l-47 -197q78 27 186 27q123 0 195.5 -63t72.5 -172q0 -145 -102 -227.5t-266 -82.5q-153 0 -281 78q-22 16 -8 35z" />
<glyph unicode="&#x2086;" horiz-adv-x="792" d="M45 121q0 113 29.5 209.5t86 171.5t148 117.5t207.5 42.5q82 0 152 -23q24 -9 18 -33l-18 -63q-5 -18 -11.5 -21.5t-29.5 0.5q-85 13 -111 13q-225 0 -295 -218q116 25 221 25q130 0 206.5 -56.5t76.5 -172.5q0 -66 -22.5 -120t-59 -88.5t-85.5 -58t-100.5 -33.5 t-105.5 -10q-153 0 -230 83t-77 235zM186 109q0 -84 47 -132.5t138 -48.5q89 0 145.5 45t56.5 123q0 54 -37 86.5t-112 32.5q-113 0 -231 -33q-7 -48 -7 -73z" />
<glyph unicode="&#x2087;" horiz-adv-x="690" d="M53.5 -174.5q-5.5 9.5 9.5 29.5l474 661h-439q-17 0 -21.5 8t-2.5 29l8 53q4 23 12 30t27 7h532q33 0 47.5 -11.5t10.5 -45.5l-4 -33q-5 -30 -27 -66l-459 -645q-16 -26 -47 -26h-96q-19 0 -24.5 9.5z" />
<glyph unicode="&#x2088;" horiz-adv-x="792" d="M37 20q0 73 44.5 141.5t119.5 98.5v4q-76 37 -76 131q0 122 97 193t233 71q125 0 193.5 -53t68.5 -143q0 -24 -5.5 -48.5t-18 -53t-38.5 -54.5t-63 -43l2 -4q102 -42 102 -170q0 -37 -10.5 -74.5t-37 -76t-65.5 -68.5t-101.5 -49t-139.5 -19q-152 0 -228.5 60t-76.5 157z M188 43q0 -52 38.5 -84.5t123.5 -32.5q100 0 150.5 49.5t50.5 110.5q0 57 -46 87t-118 30q-75 0 -137 -43.5t-62 -116.5zM268 412q0 -42 39.5 -70.5t95.5 -28.5q74 0 121 34t47 93q0 43 -35.5 70t-99.5 27q-74 0 -121 -36.5t-47 -88.5z" />
<glyph unicode="&#x2089;" horiz-adv-x="792" d="M66 352q0 65 21.5 118.5t57 88.5t83.5 58.5t99 34t105 10.5q153 0 233 -82.5t80 -235.5q0 -112 -29.5 -208t-86 -171t-148 -117.5t-207.5 -42.5q-81 0 -151 23q-28 6 -19 33l19 61q5 18 11.5 21.5t29.5 -0.5q76 -13 110 -13q119 0 189 56t104 161q-108 -24 -219 -24 q-130 0 -206 56.5t-76 172.5zM215 369q0 -53 38.5 -85t113.5 -32q118 0 229 31q6 41 6 73q0 84 -46.5 132.5t-137.5 48.5q-89 0 -146 -45t-57 -123z" />
<glyph unicode="&#x208a;" horiz-adv-x="759" d="M35 205l8 67q4 12 6.5 17t11 9.5t23.5 4.5h217l31 213q4 19 12.5 25t26.5 6h71q19 0 26 -6t3 -25l-31 -213h222q22 0 27 -8.5t-1 -22.5l-10 -65q-2 -18 -9 -25.5t-26 -7.5h-221l-29 -211q-4 -22 -11.5 -28.5t-25.5 -6.5h-71q-20 0 -27.5 6.5t-3.5 28.5l31 211h-219 q-22 0 -27.5 6t-3.5 25z" />
<glyph unicode="&#x208b;" horiz-adv-x="425" d="M6 203l12 78q3 32 37 32h295q20 0 25 -6.5t0 -25.5l-10 -78q-5 -23 -10 -28t-25 -5h-297q-19 0 -23.5 5t-3.5 28z" />
<glyph unicode="&#x208c;" horiz-adv-x="759" d="M47 86l10 66q5 21 11 27.5t24 6.5h524q23 0 28.5 -6.5t0.5 -27.5l-10 -66q-2 -20 -8.5 -26.5t-28.5 -6.5h-524q-18 0 -23.5 7t-3.5 26zM80 317l10 68q5 21 10.5 27t24.5 6h524q23 0 28.5 -7t0.5 -26l-10 -68q-2 -18 -8.5 -24t-28.5 -6h-525q-18 0 -23 6t-3 24z" />
<glyph unicode="&#x208d;" horiz-adv-x="393" d="M70 164q0 177 84.5 321t224.5 252q25 22 41 13l41 -43q16 -15 15 -21t-13 -18q-121 -128 -177.5 -245t-56.5 -255q0 -167 103 -340q7 -10 6 -16.5t-12 -16.5l-41 -31q-25 -16 -41 -6q-79 77 -126.5 181t-47.5 225z" />
<glyph unicode="&#x208e;" horiz-adv-x="399" d="M-56.5 -175q2.5 4 11.5 13q120 128 175.5 245t55.5 255q0 172 -100 340q-8 9 -7.5 16.5t15.5 16.5l39 28q24 21 41 9q172 -172 172 -406q0 -178 -84 -323t-223 -252q-26 -20 -41 -11l-41 43q-11 9 -13.5 15.5t0 10.5z" />
<glyph unicode="&#x20ac;" horiz-adv-x="1171" d="M94 547l10 55q2 18 8.5 25.5t24.5 7.5h807q18 0 23.5 -7.5t3.5 -25.5l-10 -55q-2 -19 -8.5 -26t-24.5 -7h-533q-39 -371 338 -371q132 0 289 68q6 3 11.5 4.5t9 1t6 -1t4.5 -4t3 -4.5t3 -6t2 -6l33 -82q5 -12 6 -20t-3.5 -14t-7.5 -8l-12 -8q-150 -86 -395 -86 q-112 0 -201.5 31.5t-154 95t-94 168t-17.5 242.5h-96q-16 0 -20.5 6.5t-4.5 26.5zM129 788l8 56q2 18 9 25.5t26 7.5h94q61 264 212 393t372 129q205 0 340 -78q1 0 3.5 -1.5t3.5 -2.5t3 -2.5t3 -3t2 -3.5t1 -5t-0.5 -6t-2 -7.5t-3.5 -9.5l-43 -88q-9 -27 -37 -14 q-131 57 -264 57q-312 0 -403 -358h524q19 0 24 -7t3 -26l-9 -56q-2 -19 -8 -25.5t-26 -6.5h-807q-18 0 -22.5 6t-2.5 26z" />
<glyph unicode="&#x2105;" horiz-adv-x="1634" d="M152 895q0 218 106 357t281 139q58 0 116.5 -13.5t96.5 -36.5q21 -12 4 -43l-25 -59q-4 -17 -12 -18t-31 10q-86 31 -151 31q-81 -3 -138 -57.5t-81.5 -131.5t-24.5 -168q0 -182 166 -182q79 0 178 37q19 8 26 6.5t11 -14.5l26 -70q7 -21 -22 -35q-113 -55 -248 -55 q-278 0 -278 303zM283 -16l1011 1413q11 18 18.5 23t24.5 5h70q27 0 10 -28l-1011 -1413q-20 -29 -50 -29h-59q-32 0 -14 29zM885 276q0 231 113.5 368.5t275.5 137.5q299 0 299 -321q0 -224 -111.5 -352.5t-294.5 -128.5q-282 0 -282 296zM1024 295q0 -193 164 -193 q64 0 113 33.5t77 88t42 116.5t14 127q0 190 -162 190q-82 0 -140 -54t-83 -133.5t-25 -174.5z" />
<glyph unicode="&#x2116;" horiz-adv-x="2060" d="M102 31l181 1302q8 53 33 78t79 25h51q43 0 61 -16.5t38 -65.5l327 -834l99 -256h6l162 1141q4 20 10.5 25.5t24.5 5.5h114q19 0 25 -6t2 -25l-185 -1303q-6 -53 -30 -77.5t-78 -24.5h-53q-42 0 -61 16.5t-38 65.5l-340 858l-86 225h-6l-157 -1134q-4 -20 -11 -25.5 t-26 -5.5h-113q-19 0 -26 6t-3 25zM1370 481l8 62q1 10 3 15t9.5 9t22.5 4h510q21 0 25 -7t2 -23l-8 -58q-1 -11 -3 -16t-9.5 -9.5t-22.5 -4.5h-510q-21 0 -25 6t-2 22zM1399 977q0 216 110 339.5t271 123.5q140 0 211 -77.5t71 -225.5q0 -202 -107 -321.5t-272 -119.5 q-139 0 -211.5 72t-72.5 209zM1542 995q0 -172 154 -172q58 0 103.5 28.5t72 75t40 100t13.5 108.5q0 180 -156 180q-109 0 -168 -93t-59 -227z" />
<glyph unicode="&#x2122;" horiz-adv-x="1667" d="M121 1352v59q0 25 22 25h584q23 0 23 -25v-59q0 -25 -23 -25h-235v-674q0 -16 -5.5 -20t-19.5 -4h-74q-14 0 -19 4t-5 20v674h-226q-22 0 -22 25zM827 651v725q0 60 58 60h41q31 0 49.5 -13t30.5 -43q4 -4 74.5 -184t74.5 -184q12 -25 30 -74t29 -74h9q8 23 18 49.5 t22.5 58t18.5 46.5l148 362q19 56 77 56h45q58 0 58 -60v-725q0 -11 -4 -16t-7.5 -5.5t-13.5 -0.5h-72h-11.5t-6 2t-4 6.5t-0.5 13.5v586h-6l-47 -125l-138 -336q-11 -28 -22 -37.5t-39 -9.5h-41q-28 0 -40 9.5t-23 37.5l-131 320l-54 143h-4v-588q0 -16 -4.5 -19t-19.5 -3 h-72q-10 0 -13.5 0.5t-6.5 5.5t-3 16z" />
<glyph unicode="&#x2153;" horiz-adv-x="1781" d="M217 554.5q-5 7.5 0 27.5l8 63q2 19 9 25t30 6h131l80 561l-135 -25q-16 -2 -23.5 3.5t-3.5 23.5l6 55q5 21 10 28t23 13l197 49q37 13 63.5 0.5t20.5 -51.5l-92 -657h135q23 0 29.5 -6t1.5 -25l-9 -63q-5 -22 -12 -28.5t-29 -6.5h-413q-22 0 -27 7.5zM352 -16l1012 1413 q11 18 17.5 23t23.5 5h70q29 0 12 -28l-1012 -1413q-10 -17 -20 -23t-27 -6h-61q-31 0 -15 29zM1030 92q0 8 6 14q26 43 41 62q9 12 19 12q3 0 26 -10q87 -55 199 -55q98 0 150.5 43t52.5 108q0 47 -41 79t-119 32h-45q-26 0 -34 7t-3 26l10 63q5 18 12.5 24.5t26.5 6.5h41 q76 0 121 32.5t45 88.5q0 46 -38.5 66t-96.5 20q-92 0 -199 -47q-30 -13 -37 -13t-14 13l-31 65l-4 16q0 13 21 25q124 72 293 72q110 0 184 -53t74 -142q0 -66 -34 -118t-95 -83q0 -1 -1 -2t-1 -2v-2q112 -40 112 -174q0 -118 -98 -198t-250 -80q-174 0 -279 80 q-14 11 -14 24z" />
<glyph unicode="&#x2154;" horiz-adv-x="1781" d="M160 627q0 61 63.5 139t143 138t157.5 102q99 56 133.5 86.5t34.5 76.5q0 42 -36.5 65t-100.5 23q-95 0 -201 -59q-4 -2 -12.5 -6t-11.5 -5t-9 -1.5t-10 2.5t-8 10l-39 64q-9 27 19 47q62 38 138.5 61t145.5 23q123 0 198 -50.5t75 -150.5q0 -29 -4.5 -55t-17.5 -49.5 t-23.5 -40.5t-34 -37.5t-37 -31.5t-46 -31t-46 -27.5t-51.5 -28.5q-122 -73 -168 -112q-58 -49 -86 -103h413q23 0 27.5 -9t-0.5 -22l-8 -65q-5 -33 -35 -33h-469q-94 0 -94 80zM436 -16l1012 1413q11 18 17.5 23t23.5 5h70q29 0 12 -28l-1012 -1413q-10 -17 -20 -23t-27 -6 h-61q-31 0 -15 29zM1085 92q0 7 7 14q26 43 41 62q9 12 18 12q4 0 27 -10q87 -55 198 -55q98 0 150.5 43t52.5 108q0 47 -41 79t-119 32h-45q-26 0 -34 7t-3 26l11 63q5 18 12 24.5t26 6.5h41q76 0 121 32.5t45 88.5q0 46 -38.5 66t-96.5 20q-91 0 -198 -47q-30 -13 -37 -13 q-9 0 -15 13l-30 65l-4 16q0 14 20 25q124 72 293 72q110 0 184 -53t74 -142q0 -66 -34 -118t-95 -83q0 -1 -1 -2t-1 -2v-2q112 -40 112 -174q0 -118 -98 -198t-250 -80q-173 0 -278 80q-15 12 -15 24z" />
<glyph unicode="&#x2155;" horiz-adv-x="1781" d="M206 554.5q-5 7.5 1 27.5l8 63q2 19 9 25t30 6h131l80 561l-135 -25q-16 -2 -23.5 3.5t-3.5 23.5l6 55q5 21 10 28t23 13l197 49q37 13 63.5 0.5t20.5 -51.5l-93 -657h136q23 0 29 -6t1 -25l-8 -63q-5 -22 -12 -28.5t-29 -6.5h-414q-22 0 -27 7.5zM344 -16l1012 1413 q11 18 17.5 23t23.5 5h69q30 0 13 -28l-1012 -1413q-10 -17 -20 -23t-27 -6h-62q-30 0 -14 29zM1030 98l41 70q17 19 41 4q98 -55 211 -55q102 0 162.5 43t60.5 127q0 58 -43 87t-110 29q-91 0 -183 -36q-7 -3 -20 -8t-17.5 -6.5t-13 -2.5t-15 0.5t-14.5 5.5l-32 15 q-33 17 -23 61l80 324q8 36 33 55.5t61 15.5h422q17 0 22 -6t3 -24l-8 -66q-4 -19 -12 -25t-25 -6h-371l-47 -196q75 26 186 26q123 0 196 -63t73 -172q0 -144 -102.5 -226.5t-266.5 -82.5q-154 0 -281 77q-22 16 -8 35z" />
<glyph unicode="&#x2156;" horiz-adv-x="1781" d="M152 627q0 61 63.5 139t143 138t157.5 102q99 56 133.5 86.5t34.5 76.5q0 42 -36.5 65t-100.5 23q-95 0 -201 -59q-4 -2 -12.5 -6t-11.5 -5t-9 -1.5t-10 2.5t-8 10l-39 64q-9 28 18 47q62 38 139 61t146 23q123 0 197.5 -50.5t74.5 -150.5q0 -29 -4.5 -55t-17.5 -49.5 t-23.5 -40.5t-34 -37.5t-37 -31.5t-46 -31t-46 -27.5t-51.5 -28.5q-122 -73 -168 -112q-58 -49 -86 -103h414q23 0 27.5 -9t-0.5 -22l-8 -65q-5 -33 -35 -33h-469q-94 0 -94 80zM434 -16l1012 1413q11 18 17.5 23t23.5 5h69q30 0 13 -28l-1012 -1413q-10 -17 -20 -23t-27 -6 h-61q-31 0 -15 29zM1085 98l41 70q17 19 41 4q98 -55 211 -55q102 0 163 43.5t61 126.5q0 58 -43.5 87t-110.5 29q-90 0 -182 -36q-7 -3 -20 -8t-17.5 -6.5t-13 -2.5t-15 0.5t-14.5 5.5l-33 15q-33 17 -23 61l80 324q8 36 33.5 55.5t61.5 15.5h421q17 0 22 -6t3 -24l-8 -66 q-4 -19 -12 -25t-25 -6h-371l-47 -196q75 26 187 26q123 0 195.5 -63t72.5 -172q0 -144 -102.5 -226.5t-266.5 -82.5q-153 0 -280 77q-23 16 -9 35z" />
<glyph unicode="&#x2157;" horiz-adv-x="1781" d="M162 639q0 8 6 14q26 43 41 62q9 12 18 12q4 0 27 -10q87 -55 199 -55q98 0 150 43t52 108q0 48 -40.5 79.5t-118.5 31.5h-45q-26 0 -34 6.5t-3 25.5l10 64q5 18 12.5 24.5t26.5 6.5h41q76 0 121 32t45 88q0 46 -38.5 66t-96.5 20q-92 0 -199 -47q-28 -12 -37 -12 q-8 0 -14 12l-31 66l-4 16q0 14 20 25q124 72 293 72q110 0 184 -53t74 -142q0 -66 -34 -118t-95 -83q0 -1 -1 -2t-1 -2v-2q56 -20 84.5 -65.5t28.5 -108.5q0 -118 -98 -198t-250 -80q-176 0 -279 79q-14 11 -14 25zM403 -16l1012 1413q11 18 17.5 23t23.5 5h70q29 0 12 -28 l-1012 -1413q-10 -17 -20 -23t-27 -6h-61q-31 0 -15 29zM1075 98l41 70q17 19 41 4q98 -55 211 -55q102 0 162.5 43t60.5 127q0 58 -43 87t-110 29q-91 0 -183 -36q-7 -3 -20 -8t-17.5 -6.5t-12.5 -2.5t-14.5 0.5t-14.5 5.5l-33 15q-33 17 -23 61l80 324q8 36 33 55.5 t61 15.5h422q17 0 22 -6t3 -24l-8 -66q-4 -19 -12 -25t-25 -6h-371l-47 -196q75 26 186 26q123 0 196 -63t73 -172q0 -144 -102.5 -226.5t-266.5 -82.5q-154 0 -281 77q-22 16 -8 35z" />
<glyph unicode="&#x2158;" horiz-adv-x="1781" d="M127 786l4 25q8 40 39 74l438 454q17 19 26 27.5t26.5 17.5t35.5 9h43q38 0 53 -16.5t9 -53.5l-66 -473h78q16 0 22.5 -4.5t6 -12.5t-1.5 -20l-6 -51q-7 -25 -13 -30q-7 -5 -24 -5h-80l-23 -147q-1 -22 -10 -27.5t-31 -5.5h-71q-21 0 -28 5.5t-3 27.5l20 145h-383 q-32 0 -49 12t-12 49zM324 858l2 -8h264l49 340h-2q-2 0 -4 2q-158 -174 -309 -334zM436 -16l1012 1413q11 18 17.5 23t23.5 5h70q29 0 12 -28l-1012 -1413q-10 -17 -20 -23t-27 -6h-61q-31 0 -15 29zM1112 98l41 70q17 19 41 4q98 -55 211 -55q102 0 162.5 43t60.5 127 q0 58 -43 87t-110 29q-91 0 -183 -36q-7 -3 -20 -8t-17.5 -6.5t-13 -2.5t-15 0.5t-14.5 5.5l-32 15q-33 17 -23 61l80 324q8 36 33 55.5t61 15.5h422q17 0 22 -6t3 -24l-9 -66q-4 -19 -11.5 -25t-24.5 -6h-371l-47 -196q75 26 186 26q123 0 195.5 -63t72.5 -172 q0 -145 -102 -227t-266 -82q-154 0 -281 77q-22 16 -8 35z" />
<glyph unicode="&#x2159;" horiz-adv-x="1781" d="M209 554.5q-5 7.5 0 27.5l8 63q2 19 9 25t30 6h131l80 561l-135 -25q-16 -2 -23.5 3.5t-3.5 23.5l6 55q5 21 10 28t23 13l197 49q37 13 63.5 0.5t20.5 -51.5l-93 -657h136q23 0 29 -6t1 -25l-8 -63q-5 -22 -12 -28.5t-29 -6.5h-413q-22 0 -27 7.5zM362 -16l1012 1413 q11 18 17.5 23t23.5 5h70q29 0 12 -28l-1012 -1413q-10 -17 -20 -23t-27 -6h-61q-31 0 -15 29zM1016 305q0 113 29.5 209.5t86 171.5t148 117.5t207.5 42.5q81 0 151 -23q25 -9 19 -32l-19 -64q-5 -18 -11.5 -21t-29.5 1q-78 12 -110 12q-225 0 -295 -217q111 24 221 24 q130 0 206.5 -56.5t76.5 -172.5q0 -66 -22.5 -119.5t-58.5 -88.5t-85.5 -58t-101 -33t-105.5 -10q-153 0 -230 82.5t-77 234.5zM1157 293q0 -84 46.5 -132t137.5 -48q89 0 146 45t57 123q0 54 -37 86t-112 32q-118 0 -232 -32q-6 -41 -6 -74z" />
<glyph unicode="&#x215a;" horiz-adv-x="1781" d="M150 645l40 70q17 19 41 4q98 -55 211 -55q102 0 163 43.5t61 126.5q0 58 -43.5 87t-110.5 29q-87 0 -182 -37q-6 -2 -17 -6.5t-15.5 -5.5t-12 -3t-12 -1.5t-10.5 2t-13 4.5l-33 15q-32 17 -22 61l79 324q8 36 33.5 55.5t61.5 15.5h422q17 0 21.5 -6.5t2.5 -24.5l-8 -65 q-4 -19 -12 -25t-25 -6h-371l-47 -196q75 26 187 26q123 0 195.5 -63t72.5 -172q0 -145 -102.5 -227.5t-266.5 -82.5q-152 0 -280 78q-22 16 -8 35zM418 -16l1012 1413q11 19 17.5 23.5t22.5 4.5h70q29 0 12 -28l-1011 -1413q-10 -17 -20 -23t-27 -6h-62q-30 0 -14 29z M1083 305q0 113 29.5 209.5t86 171.5t148 117.5t207.5 42.5q82 0 152 -23q24 -9 18 -32l-18 -64q-5 -18 -11.5 -21t-29.5 1q-78 12 -111 12q-119 0 -189.5 -56t-104.5 -161q111 24 221 24q130 0 206 -56.5t76 -172.5q0 -82 -33 -144t-88.5 -97t-118.5 -51.5t-132 -16.5 q-153 0 -230.5 82.5t-77.5 234.5zM1225 293q0 -84 46.5 -132t137.5 -48q89 0 146 45t57 123q0 54 -37.5 86t-112.5 32q-117 0 -231 -32q-6 -41 -6 -74z" />
<glyph unicode="&#x215b;" horiz-adv-x="1781" d="M209 554.5q-5 7.5 0 27.5l8 63q2 19 9 25t30 6h131l80 561l-135 -25q-16 -2 -23.5 3.5t-3.5 23.5l6 55q5 21 10 28t23 13l197 49q37 13 63.5 0.5t20.5 -51.5l-93 -657h136q23 0 29 -6t1 -25l-8 -63q-5 -22 -12 -28.5t-29 -6.5h-413q-22 0 -27 7.5zM365 -16l1011 1413 q11 18 17.5 23t23.5 5h70q29 0 12 -28l-1012 -1413q-10 -17 -20 -23t-27 -6h-61q-30 0 -14 29zM1018 205q0 72 44.5 140.5t119.5 98.5v5q-76 37 -76 131q0 122 97 193t233 71q125 0 193.5 -53.5t68.5 -143.5q0 -54 -28 -109.5t-97 -88.5l2 -5q102 -42 102 -170 q0 -47 -18.5 -94t-57 -91.5t-111 -72.5t-167.5 -28q-152 0 -228.5 60t-76.5 157zM1169 227q0 -52 38.5 -84t123.5 -32q100 0 150.5 49t50.5 110q0 57 -46 87t-118 30q-75 0 -137 -43.5t-62 -116.5zM1249 596q0 -42 39.5 -70t95.5 -28q74 0 121 34t47 93q0 43 -35.5 69.5 t-99.5 26.5q-74 0 -121 -36.5t-47 -88.5z" />
<glyph unicode="&#x215c;" horiz-adv-x="1781" d="M139 639q0 8 6 14q26 43 41 62q9 12 19 12q3 0 26 -10q87 -55 199 -55q98 0 150.5 43t52.5 108q0 47 -41 79t-119 32h-45q-26 0 -34 6.5t-3 25.5l10 64q5 18 12.5 24.5t26.5 6.5h41q76 0 121 32t45 88q0 46 -38.5 66t-96.5 20q-92 0 -199 -47q-28 -12 -37 -12 q-8 0 -14 12l-31 66l-4 16q0 13 21 25q124 72 293 72q110 0 184 -53t74 -142q0 -66 -34 -118t-95 -83q0 -1 -1 -2t-1 -2v-2q112 -40 112 -174q0 -118 -98 -198t-250 -80q-175 0 -278 79q-15 12 -15 25zM406 -16l1011 1413q11 18 17.5 23t23.5 5h70q29 0 12 -28l-1012 -1413 q-10 -17 -20 -23t-27 -6h-61q-30 0 -14 29zM1083 205q0 72 44.5 140.5t119.5 98.5v5q-76 37 -76 131q0 122 97 193t233 71q125 0 193.5 -53.5t68.5 -143.5q0 -54 -28 -109.5t-97 -88.5l2 -5q103 -42 103 -170q0 -47 -18.5 -94t-57 -91.5t-111 -72.5t-167.5 -28 q-152 0 -229 60t-77 157zM1235 227q0 -52 38.5 -84t123.5 -32q100 0 150 49t50 110q0 57 -45.5 87t-117.5 30q-75 0 -137 -43.5t-62 -116.5zM1315 596q0 -42 39.5 -70t95.5 -28q74 0 121 34t47 93q0 43 -35.5 69.5t-99.5 26.5q-74 0 -121 -36.5t-47 -88.5z" />
<glyph unicode="&#x215d;" horiz-adv-x="1781" d="M150 645l40 70q17 19 41 4q98 -55 211 -55q102 0 163 43.5t61 126.5q0 58 -43.5 87t-110.5 29q-87 0 -182 -37q-6 -2 -17 -6.5t-15.5 -5.5t-12 -3t-12 -1.5t-10.5 2t-13 4.5l-33 15q-32 17 -22 61l79 324q8 36 33.5 55.5t61.5 15.5h422q17 0 21.5 -6.5t2.5 -24.5l-8 -65 q-4 -19 -12 -25t-25 -6h-371l-47 -196q75 26 187 26q123 0 195.5 -63t72.5 -172q0 -145 -102.5 -227.5t-266.5 -82.5q-152 0 -280 78q-22 16 -8 35zM416 -16l1011 1413q11 18 17.5 23t23.5 5h70q29 0 12 -28l-1011 -1413q-10 -17 -20 -23t-27 -6h-62q-30 0 -14 29zM1081 205 q0 72 44.5 140.5t119.5 98.5v5q-76 37 -76 131q0 122 97 193t233 71q125 0 193.5 -53.5t68.5 -143.5q0 -54 -28 -109.5t-97 -88.5l2 -5q103 -42 103 -170q0 -47 -18.5 -94t-57.5 -91.5t-111.5 -72.5t-167.5 -28q-152 0 -228.5 60t-76.5 157zM1233 227q0 -52 38.5 -84 t123.5 -32q100 0 150 49t50 110q0 57 -45.5 87t-117.5 30q-75 0 -137 -43.5t-62 -116.5zM1313 596q0 -42 39.5 -70t95.5 -28q74 0 121 34t47 93q0 43 -35.5 69.5t-99.5 26.5q-74 0 -121 -36.5t-47 -88.5z" />
<glyph unicode="&#x215e;" horiz-adv-x="1781" d="M267 556q-6 9 9 32l474 659h-437q-32 0 -26 33l8 66q2 12 4 17.5t9.5 8t9 2.5h16.5h532q33 0 47.5 -11t10.5 -44l-4 -33q-9 -38 -27 -65l-457 -648q-23 -26 -49 -26h-94q-20 0 -26 9zM272 -16l1012 1413q11 18 17.5 23t23.5 5h70q29 0 12 -28l-1012 -1413 q-10 -17 -20 -23t-27 -6h-61q-31 0 -15 29zM956 205q0 72 44.5 140.5t119.5 98.5v5q-76 37 -76 131q0 122 97 193t233 71q125 0 193.5 -53.5t68.5 -143.5q0 -54 -28 -109.5t-97 -88.5l2 -5q103 -42 103 -170q0 -47 -18.5 -94t-57 -91.5t-111 -72.5t-167.5 -28 q-152 0 -229 60t-77 157zM1108 227q0 -52 38.5 -84t123.5 -32q100 0 150 49t50 110q0 57 -45.5 87t-117.5 30q-75 0 -137 -43.5t-62 -116.5zM1188 596q0 -42 39.5 -70t95.5 -28q74 0 121 34t47 93q0 43 -35.5 69.5t-99.5 26.5q-74 0 -121 -36.5t-47 -88.5z" />
<glyph unicode="&#x2190;" horiz-adv-x="1720" d="M178 647q-10 11 0 21l426 430q12 12 27 2l67 -66q14 -14 -2 -30l-264 -263q-5 -5 -3.5 -11.5t7.5 -6.5h1147q14 0 14 -12v-107q0 -4 -0.5 -6t-3.5 -4t-10 -2l-1147 2q-8 0 -10 -6t4 -10l268 -267q14 -14 -2 -30l-67 -66q-7 -5 -12.5 -4t-8.5 4z" />
<glyph unicode="&#x2191;" horiz-adv-x="993" d="M63 969q-10 10 0 20l433 430q6 7 9 7t11 -7l430 -426q12 -12 2 -26l-65 -68q-15 -15 -31 2l-264 258q-4 5 -10.5 3.5t-6.5 -7.5v-1139q0 -14 -12 -14h-106q-13 0 -13 16v1137q0 8 -5 10t-9 -4l-266 -262q-14 -15 -31 2z" />
<glyph unicode="&#x2192;" horiz-adv-x="1720" d="M172 604v107q0 12 14 12h1143q6 0 7.5 6.5t-3.5 11.5l-264 263q-16 16 -2 30l68 66q14 10 26 -2l426 -430q11 -10 0 -21l-430 -432q-10 -10 -20 0l-68 66q-16 16 -2 30l268 267q6 4 4 10t-10 6l-1143 -2q-7 0 -10 2t-3.5 4t-0.5 6z" />
<glyph unicode="&#x2193;" horiz-adv-x="993" d="M66 467l65 68q14 14 31 -3l264 -258q4 -5 10 -3t6 8v1138q0 15 13 15h106q12 0 12 -17v-1136q0 -8 5.5 -10.5t9.5 3.5l266 263q14 14 31 -3l65 -67q10 -11 0 -21l-432 -430q-6 -6 -9 -6.5t-11 6.5l-430 426q-12 12 -2 27z" />
<glyph unicode="&#x2196;" horiz-adv-x="1720" d="M254 702v605q0 16 16 16h607q14 0 14 -14v-97q0 -22 -21 -22h-370q-8 0 -10 -5t4 -9l1065 -1070q15 -9 2 -22l-74 -72q-9 -10 -19 0l-1067 1069q-5 4 -9.5 1t-4.5 -9v-368q0 -9 -0.5 -12.5t-5.5 -7t-16 -3.5h-93q-18 2 -18 20z" />
<glyph unicode="&#x2198;" horiz-adv-x="1720" d="M256 1239l74 72q9 9 18 0l1067 -1069q5 -4 10 -1t5 9v368q0 9 0.5 12.5t5.5 7t16 3.5h92q19 -2 19 -20v-605q0 -16 -17 -16h-606q-14 0 -14 14v97q0 22 20 22h371q8 0 10 4.5t-4 9.5l-1065 1070q-15 9 -2 22z" />
<glyph unicode="&#x21a9;" horiz-adv-x="1720" d="M69.5 656.5q-0.5 3.5 6.5 11.5l426 430q12 12 26 2l68 -66q14 -14 -2 -30l-264 -263q-5 -5 -3.5 -11.5t7.5 -6.5h975q106 0 155 60t49 161v164q0 95 -49 143.5t-155 48.5h-135q-17 0 -17 15v98q0 14 17 14h145q171 0 248.5 -88t77.5 -239v-156q0 -165 -89 -258.5 t-264 -93.5l-958 2q-8 0 -10 -6t4 -10l268 -267q14 -14 -2 -30l-62 -62q-15 -15 -26 -4l-430 432q-6 6 -6.5 9.5z" />
<glyph unicode="&#x21aa;" horiz-adv-x="1695" d="M68 944v156q0 73 17.5 131t54.5 103t101 69t152 24h146q16 0 16 -14v-98q0 -15 -16 -15h-136q-106 0 -155 -48.5t-49 -143.5v-164q0 -221 204 -221h975q6 0 7.5 6.5t-3.5 11.5l-264 263q-16 16 -2 30l68 66q14 10 26 -2l426 -430q7 -8 6.5 -11.5t-6.5 -9.5l-430 -432 q-11 -11 -26 4l-62 62q-16 16 -2 30l268 267q6 4 4 10t-10 6l-958 -2q-175 0 -263.5 93.5t-88.5 258.5z" />
<glyph unicode="&#x21b3;" horiz-adv-x="1720" d="M229 637v764q0 16 15 16h104q14 0 14 -16v-641q0 -37 39 -37h981q6 0 7.5 6.5t-3.5 11.5l-264 263q-16 16 -2 30l68 66q14 10 26 -2l426 -430q7 -8 6.5 -11.5t-6.5 -9.5l-430 -432q-11 -11 -26 4l-62 62q-16 16 -2 30l269 267q6 4 3.5 10t-10.5 6l-1103 -2q-50 0 -50 45z " />
<glyph unicode="&#x21b5;" horiz-adv-x="1720" d="M171.5 656.5q-0.5 3.5 6.5 11.5l426 430q12 12 27 2l67 -66q14 -14 -2 -30l-264 -263q-5 -5 -3.5 -11.5t7.5 -6.5h981q39 0 39 37v641q0 16 14 16h105q14 0 14 -16v-764q0 -45 -49 -45l-1104 2q-8 0 -10 -6t4 -10l268 -267q14 -14 -2 -30l-61 -62q-15 -15 -27 -4 l-430 432q-6 6 -6.5 9.5z" />
<glyph unicode="&#x21de;" horiz-adv-x="993" d="M61 958q-18 18 0 39l414 416q16 16 35 0l420 -416q18 -18 2 -34l-58 -60q-13 -23 -38 2l-252 248q-6 8 -14.5 3.5t-8.5 -17.5v-369h209q16 0 16 -14v-103q0 -14 -16 -14h-209v-156h209q16 0 16 -14v-98q0 -19 -16 -19h-209v-319q0 -33 -33 -33h-75q-25 0 -25 35v317h-211 q-14 0 -14 19v98q0 14 14 14h211v156h-211q-14 0 -14 14v103q0 14 14 14h211v369q0 10 -7 14t-15 -2l-256 -250q-21 -15 -35 4z" />
<glyph unicode="&#x21df;" horiz-adv-x="993" d="M61 428q-18 21 0 39l54 53q14 19 35 4l256 -250q8 -6 15 -1.5t7 14.5v368h-211q-14 0 -14 15v102q0 14 14 14h211v156h-211q-14 0 -14 14v99q0 18 14 18h211v318q0 34 25 34h75q33 0 33 -32v-320h209q16 0 16 -18v-99q0 -14 -16 -14h-209v-156h209q16 0 16 -14v-102 q0 -15 -16 -15h-209v-368q0 -13 8.5 -18t14.5 3l252 248q25 25 38 2l58 -59q16 -17 -2 -35l-420 -416q-19 -19 -35 0z" />
<glyph unicode="&#x21e0;" horiz-adv-x="1720" d="M154 647q-10 11 0 21l426 430q12 12 26 2l68 -66q14 -14 -2 -30l-264 -263q-5 -5 -3.5 -11.5t7.5 -6.5h235q15 0 15 -12v-107q0 -12 -15 -12l-235 2q-8 0 -10 -6t4 -10l268 -267q14 -14 -2 -30l-68 -66q-10 -10 -20 0zM799 604v107q0 12 14 12h135q15 0 15 -12v-107 q0 -12 -15 -12h-135q-7 0 -10 2t-3.5 4t-0.5 6zM1104 604v107q0 12 14 12h135q15 0 15 -12v-107q0 -12 -15 -12h-135q-7 0 -10 2t-3.5 4t-0.5 6zM1407 604v107q0 12 14 12h135q15 0 15 -12v-107q0 -12 -15 -12h-135q-7 0 -10 2t-3.5 4t-0.5 6z" />
<glyph unicode="&#x21e1;" horiz-adv-x="993" d="M53 967q-10 14 2 26l430 426q11 11 21 0l432 -430q10 -10 0 -20l-66 -68q-16 -16 -30 -2l-267 268q-5 6 -10.5 4t-5.5 -10l2 -235q0 -15 -12 -15h-107q-12 0 -12 15v235q0 6 -7 7.5t-11 -3.5l-262 -264q-16 -17 -31 -2zM430 16v136q0 14 12 14h107q4 0 6 -0.5t4 -3.5 t2 -10v-136q0 -7 -2 -10t-4 -3.5t-6 -0.5h-107q-12 0 -12 14zM430 319v136q0 14 12 14h107q4 0 6 -0.5t4 -3.5t2 -10v-136q0 -7 -2 -10t-4 -3.5t-6 -0.5h-107q-12 0 -12 14zM430 625v135q0 14 12 14h107q4 0 6 -0.5t4 -3.5t2 -10v-135q0 -15 -12 -15h-107q-12 0 -12 15z" />
<glyph unicode="&#x21e2;" horiz-adv-x="1720" d="M145 604v107q0 12 15 12h135q14 0 14 -12v-107q0 -4 -0.5 -6t-3.5 -4t-10 -2h-135q-15 0 -15 12zM449 604v107q0 12 14 12h135q14 0 14 -12v-107q0 -4 -0.5 -6t-3.5 -4t-10 -2h-135q-7 0 -10 2t-3.5 4t-0.5 6zM754 604v107q0 12 14 12h135q15 0 15 -12v-107 q0 -12 -15 -12h-135q-7 0 -10 2t-3.5 4t-0.5 6zM1042 311l269 267q6 4 4 10t-10 6l-236 -2q-7 0 -10 2t-3.5 4t-0.5 6v107q0 12 14 12h236q6 0 7.5 6.5t-3.5 11.5l-265 263q-16 16 -2 30l68 66q15 10 27 -2l426 -430q11 -10 0 -21l-430 -432q-11 -11 -21 0l-68 66 q-16 16 -2 30z" />
<glyph unicode="&#x21e3;" horiz-adv-x="993" d="M49 448.5q-1 5.5 4 12.5l66 67q17 16 31 2l266 -268q4 -6 10 -4t6 10l-2 236q0 7 2 10t4 3.5t6 0.5h107q12 0 12 -14v-236q0 -6 7.5 -7.5t11.5 3.5l262 264q16 16 30 2l66 -67q10 -15 -2 -27l-430 -426q-10 -10 -21 0l-432 430q-3 3 -4 8.5zM430 670v135q0 7 2 10t4 3.5 t6 0.5h107q12 0 12 -14v-135q0 -15 -12 -15h-107q-12 0 -12 15zM430 975v135q0 7 2 10t4 3.5t6 0.5h107q12 0 12 -14v-135q0 -14 -12 -14h-107q-4 0 -6 0.5t-4 3.5t-2 10zM430 1278v135q0 7 2 10t4 3.5t6 0.5h107q12 0 12 -14v-135q0 -14 -12 -14h-107q-4 0 -6 0.5t-4 3.5 t-2 10z" />
<glyph unicode="&#x21e4;" horiz-adv-x="1720" d="M150 225v865q0 12 14 12h104q15 0 15 -12v-865q0 -12 -15 -12h-104q-7 0 -10 2t-3.5 4t-0.5 6zM422 647q-10 11 0 21l426 430q12 12 26 2l68 -66q14 -14 -2 -30l-264 -263q-5 -5 -3.5 -11.5t7.5 -6.5h975q14 0 14 -12v-107q0 -4 -0.5 -6t-3.5 -4t-10 -2l-975 2 q-8 0 -10 -6t4 -10l268 -267q14 -14 -2 -30l-68 -66q-10 -10 -20 0z" />
<glyph unicode="&#x21e5;" horiz-adv-x="1720" d="M147 604v107q0 12 15 12h975q6 0 7.5 6.5t-3.5 11.5l-264 263q-17 16 -3 30l68 66q15 10 27 -2l426 -430q11 -10 0 -21l-430 -432q-11 -11 -21 0l-67 66q-17 17 -3 30l269 267q6 4 4 10t-10 6l-975 -2q-15 0 -15 12zM1534 225v865q0 12 14 12h105q14 0 14 -12v-865 q0 -4 -0.5 -6t-3.5 -4t-10 -2h-105q-7 0 -10 2t-3.5 4t-0.5 6z" />
<glyph unicode="&#x21e7;" horiz-adv-x="1720" d="M126.5 662.5q-5.5 11.5 4.5 21.5l713 731q12 14 26 0l719 -731q10 -10 5 -21.5t-19 -11.5h-311q-25 0 -25 -26v-605q0 -20 -20 -20h-717q-21 0 -21 20v605q0 16 -5.5 21t-20.5 5h-310q-13 0 -18.5 11.5zM373 770q-17 -20 12 -20h182q25 0 25 -23v-598q0 -20 22 -20h492 q22 0 22 20v598q0 23 21 23h192q6 0 8.5 7t-3.5 15l-472 485q-15 15 -30 0z" />
<glyph unicode="&#x21ea;" horiz-adv-x="1720" d="M126.5 662.5q-5.5 11.5 4.5 21.5l713 731q12 14 26 0l719 -731q10 -10 5 -21.5t-19 -11.5h-311q-25 0 -25 -26v-396q0 -20 -20 -20h-717q-21 0 -21 20v396q0 16 -5.5 21t-20.5 5h-310q-13 0 -18.5 11.5zM373 770q-17 -20 12 -20h182q25 0 25 -23v-389q0 -21 22 -21h492 q22 0 22 21v389q0 23 21 23h192q6 0 8.5 7t-3.5 15l-472 485q-15 15 -30 0zM479 -20q0 20 19 20h721q18 0 18 -20v-347q0 -18 -18 -18h-721q-19 0 -19 18v347zM590 -137v-113q0 -24 24 -24h492q22 0 22 24v113q0 19 -5 23.5t-19 4.5h-490q-24 0 -24 -28z" />
<glyph unicode="&#x2303;" horiz-adv-x="1628" d="M229 840q-9 9 2 18l572 572q9 11 18 2l578 -578q9 -9 0 -12l-90 -94q-9 -9 -15 0l-469 471q-12 12 -24 0l-465 -469q-8 -8 -19 2z" />
<glyph unicode="&#x2318;" horiz-adv-x="1732" d="M133 276q0 122 79 205.5t214 83.5h145v297h-145q-119 0 -206 86t-87 203q0 122 83 206.5t210 84.5q137 0 213 -82.5t76 -208.5v-147h295v147q0 122 81.5 206.5t208.5 84.5q135 0 212 -84t77 -207q0 -117 -85 -203t-204 -86h-147v-297h147q140 0 214.5 -82.5t74.5 -206.5 q0 -125 -74 -207.5t-215 -82.5q-134 0 -212 83.5t-78 206.5v148h-295v-148q0 -121 -76.5 -205.5t-212.5 -84.5q-132 0 -212.5 83t-80.5 207zM276 276q0 -64 42.5 -106.5t107.5 -42.5q61 0 103 43t42 106v148h-145q-65 0 -107.5 -43.5t-42.5 -104.5zM276 1151q0 -63 42 -105 t108 -42h145v147q0 61 -42.5 104t-102.5 43q-63 0 -106.5 -42t-43.5 -105zM715 565h295v297h-295v-297zM1153 276q0 -63 42.5 -106t104.5 -43t105 43t43 106q0 60 -43.5 104t-104.5 44h-147v-148zM1153 1004h147q62 0 105 43t43 104t-43 104t-105 43t-104.5 -42t-42.5 -105 v-147z" />
<glyph unicode="&#x2324;" horiz-adv-x="1628" d="M221 1292v117q0 16 17 16h1155q16 0 16 -16v-117q0 -16 -16 -16h-1155q-17 0 -17 16zM229 610q-10 10 2 19l572 571q9 11 18 2l578 -577q10 -10 0 -13l-90 -94q-9 -9 -15 0l-469 471q-12 12 -24 0l-465 -469q-8 -8 -19 2z" />
<glyph unicode="&#x2325;" horiz-adv-x="2433" d="M98 1264v112q0 17 19 17h549q15 0 18 -13l571 -1218q1 -4 8.5 -9.5t12.5 -5.5h1040q19 0 19 -20v-107q0 -20 -19 -20h-1163q-11 0 -16 8l-576 1225q-6 10 -20 10h-424q-19 0 -19 21zM1090 1260v116q0 17 16 17h1212q17 0 17 -17v-116q0 -17 -17 -17h-1212q-16 0 -16 17z " />
<glyph unicode="&#x2326;" horiz-adv-x="2328" d="M197 10v1403q0 10 10 10h1321q12 0 20 -8l670 -690q14 -13 -2 -29l-666 -682q-14 -14 -28 -14h-1315q-10 0 -10 10zM338 162q0 -21 16 -21h1102q6 0 12 6l543 551q13 14 -2 29l-541 547q-6 6 -12 6h-1108q-10 0 -10 -10v-1108zM528 387q-7 7 0 10l312 314l-312 311 q-10 4 0 14l88 88q9 9 13 -2l311 -309l309 309q4 11 15 0l88 -88q6 -6 -2 -12l-310 -311l312 -314q7 -3 -2 -12l-84 -84q-11 -11 -15 0l-313 311l-309 -313q-4 -7 -11 0z" />
<glyph unicode="&#x232b;" horiz-adv-x="2385" d="M168 725l670 690q8 8 20 8h1321q10 0 10 -10v-1403q0 -10 -10 -10h-1315q-14 0 -28 14l-666 682q-16 16 -2 29zM375 698l543 -551q6 -6 12 -6h1102q16 0 16 21v1108q0 10 -10 10h-1108q-6 0 -12 -6l-541 -547q-15 -15 -2 -29zM1034 397l312 314l-310 311q-8 6 -2 12 l88 88q11 11 15 0l309 -309l311 309q3 10 12 2l89 -88q10 -10 0 -14l-312 -311l312 -314q7 -3 0 -10l-91 -88q-7 -7 -10 0l-309 313l-313 -311q-4 -11 -15 0l-84 84q-9 9 -2 12z" />
<glyph unicode="&#x235f;" horiz-adv-x="1646" d="M94 711q0 197 96.5 363.5t263.5 263t365 96.5q197 0 363.5 -97.5t263 -264.5t96.5 -363h-2q0 -197 -97.5 -363.5t-264.5 -263t-363 -96.5t-362 96.5t-262.5 263.5t-96.5 365zM211 709q0 -164 80.5 -303t219.5 -219.5t304 -80.5t304 80.5t219.5 219.5t80.5 303 q0 165 -80.5 304t-219.5 219.5t-304 80.5t-304 -80.5t-219.5 -219.5t-80.5 -304zM311 848l334 65l154 304l164 -299l335 -70l-231 -232l53 -346l-321 156l-289 -156l43 338z" />
<glyph unicode="&#x23cf;" horiz-adv-x="1748" d="M135 186v279h1438v-279h-1438zM135 643l719 719l719 -719h-1438z" />
<glyph unicode="&#x25a0;" horiz-adv-x="1792" d="M252 82v1296h1296v-1296h-1296z" />
<glyph unicode="&#x25a1;" horiz-adv-x="1722" d="M170 0v1419h1407v-1419h-1407zM293 121h1163v1175h-1163v-1175z" />
<glyph unicode="&#x25b2;" horiz-adv-x="1679" d="M162 360l719 719l718 -719h-1437z" />
<glyph unicode="&#x25b6;" horiz-adv-x="1218" d="M283 0v1436l718 -717z" />
<glyph unicode="&#x25bc;" horiz-adv-x="1679" d="M162 1079h1437l-718 -719z" />
<glyph unicode="&#x25c0;" horiz-adv-x="1218" d="M207 719l719 717v-1436z" />
<glyph unicode="&#x25ca;" horiz-adv-x="827" d="M51 631q-7 11 0 31l287 618q10 23 37 23h80q19 0 25 -4t12 -21l284 -614q5 -14 5.5 -16.5t-3.5 -14.5l-286 -608q-5 -14 -12 -19.5t-25 -5.5h-80q-27 0 -37 23zM210 648q0 -4 5 -15l191 -410q8 -19 18 -2l186 414q7 12 0 29l-186 417q-10 17 -18 -2l-191 -415 q-5 -12 -5 -16z" />
<glyph unicode="&#x25cf;" horiz-adv-x="1726" d="M227 731q0 131 53.5 251.5t142 206.5t208 137.5t246.5 51.5q169 0 318 -87.5t239 -237.5t90 -322q0 -129 -52 -248.5t-139 -207.5t-207 -140.5t-249 -52.5q-130 0 -250.5 52t-208 139.5t-139.5 207.5t-52 250z" />
<glyph unicode="&#x25fc;" horiz-adv-x="1075" d="M0 0v1075h1075v-1075h-1075z" />
<glyph unicode="&#x2602;" horiz-adv-x="1597" d="M102 745q0 126 62.5 252.5t158.5 219t216 150.5t231 58v64h59v-66q89 0 184.5 -36t180 -101.5t152 -149t107.5 -186.5t40 -205q-33 37 -81.5 58.5t-102.5 21.5q-102 0 -176 -80h-5q-47 80 -153 80q-54 0 -127 -28v-623q0 -88 -53 -139t-150 -51q-91 0 -145 50t-54 150v27 h97v-27q0 -55 26.5 -82.5t71.5 -27.5q104 0 104 114v607q-52 24 -106 24q-95 0 -174 -76q-68 80 -178 80q-115 0 -183 -80zM1493 745l2 -2q-2 0 -2 2z" />
<glyph unicode="&#x2605;" horiz-adv-x="1667" d="M86 874l510 99l233 463l252 -457l512 -105l-354 -354l80 -528l-490 239l-438 -239l66 514z" />
<glyph unicode="&#x2606;" horiz-adv-x="1716" d="M80 887l520 100l231 461l254 -457l521 -104l-361 -361l80 -530l-491 240l-447 -244l68 522zM199 850l313 -313l-55 -443l377 203l421 -203l-71 453l305 303l-436 88l-219 395l-201 -401z" />
<glyph unicode="&#x2610;" horiz-adv-x="1722" d="M170 0v1419h1407v-1419h-1407zM293 121h1163v1175h-1163v-1175z" />
<glyph unicode="&#x2611;" horiz-adv-x="1740" d="M170 0v1419h1407v-1419h-1407zM293 121h1163v1175h-1163v-1175zM397 745q63 52 150 52q39 0 97.5 -125.5t78.5 -257.5q80 136 192.5 287.5t249.5 295t250 215.5l23 -20q-76 -54 -175 -175.5t-190.5 -263.5t-167.5 -274t-125 -233q-106 -19 -151 -43q-43 157 -112 331 t-120 211z" />
<glyph unicode="&#x2612;" horiz-adv-x="1740" d="M170 0v1419h1407v-1419h-1407zM293 121h1163v1175h-1163v-1175zM379 326l389 389l-389 389l96 98l391 -393l387 393l97 -96l-387 -387l393 -393l-101 -97l-391 394l-391 -398z" />
<glyph unicode="&#x2622;" horiz-adv-x="1714" d="M102 719q0 137 54.5 270.5t149.5 239.5t238.5 171.5t307.5 65.5q158 0 299 -57.5t242 -155.5t160 -234.5t59 -289.5q0 -155 -58.5 -296t-159 -244t-241 -163.5t-297.5 -60.5q-155 0 -294.5 59t-240.5 159.5t-160 240t-59 295.5zM176 719q0 -141 55 -267.5t147 -216.5 t218 -143t264 -53q132 0 256.5 55t216 145t146.5 212t55 251q0 156 -58 289.5t-154 222t-218.5 138t-251.5 49.5q-182 0 -338 -92.5t-247 -249.5t-91 -340zM236 719q0 177 73 305.5t234 232.5l202 -352q-94 -58 -106 -186h-403zM547 184l201 348q64 -28 110 -28q39 0 103 28 l204 -350q-166 -84 -315 -84q-164 0 -303 86zM692 719q0 69 48 117.5t116 48.5q66 0 113 -50t47 -116q0 -65 -46.5 -112.5t-113.5 -47.5q-65 0 -114.5 46.5t-49.5 113.5zM961 909l204 351q149 -82 230.5 -222t81.5 -319h-404q-12 127 -112 190z" />
<glyph unicode="&#x2623;" horiz-adv-x="1753" d="M113 494q0 129 75.5 231t243.5 156q0 255 94 382t299 164l11 -30q-279 -79 -279 -310q0 -139 77.5 -219.5t227.5 -99.5v-45q-44 -10 -65 -36t-21 -58q0 -20 8 -39l-39 -21q-124 148 -272 148q-120 0 -215.5 -92t-95.5 -213q0 -44 12 -115l-22 -10q-39 115 -39 207z M207 180l22 17q138 -123 240 -123q135 0 230.5 94t95.5 225q0 79 -37 146l45 26q21 -37 78 -37q37 0 67 35l47 -24q-34 -81 -34 -148q0 -127 91.5 -219t215.5 -92q137 0 250 110l24 -16q-74 -101 -153.5 -137.5t-196.5 -36.5q-191 0 -315 109q-142 -109 -318 -109 q-112 0 -192.5 39t-159.5 141zM463 606q0 47 8 78q68 -2 111 -25v-61q0 -158 180 -246q-9 -61 -43 -106q-115 50 -185.5 148t-70.5 212zM623 946q136 88 254 88q131 0 256 -88q-26 -53 -76 -88q-89 62 -176 62q-83 0 -183 -62q-47 28 -75 88zM891 723v45q148 19 225.5 102 t77.5 222q0 224 -242 303l11 32q186 -41 274 -157.5t88 -317.5q0 -42 -2 -67q157 -62 236 -169.5t79 -246.5q0 -96 -36 -197l-27 9q16 94 16 133q0 124 -94 209.5t-225 85.5q-153 0 -260 -146l-47 27q6 21 6 41q0 70 -80 92zM991 352q180 88 180 254q0 35 -2 53 q36 21 111 21q8 -31 8 -76q0 -111 -69 -207t-191 -151q-29 53 -37 106z" />
<glyph unicode="&#x262e;" horiz-adv-x="1708" d="M96 723q0 202 100 372t271 267.5t373 97.5q157 0 297.5 -58t241 -156t159.5 -233t59 -284q0 -155 -60 -294.5t-162 -239.5t-242.5 -159t-296.5 -59q-147 0 -283.5 60t-236.5 160.5t-160 238.5t-60 287zM229 719q0 -104 18 -163.5t66 -139.5l473 430v489 q-248 -33 -402.5 -201t-154.5 -415zM383 324q105 -101 194 -155t209 -73v596zM903 100q119 13 217 68t193 156l-410 368v-592zM903 846l479 -428q80 144 80 311q0 238 -151.5 403.5t-407.5 202.5v-489z" />
<glyph unicode="&#x262f;" horiz-adv-x="1695" d="M102 729q0 162 64.5 303t169.5 235.5t238 148.5t272 54q165 0 306.5 -60.5t237 -163t149.5 -238.5t54 -287q0 -164 -60.5 -304t-162 -234.5t-236.5 -147.5t-284 -53q-162 0 -303.5 62.5t-238 166t-151.5 238.5t-55 280zM500 1337l10 -8q43 12 86 12q80 0 151.5 -31.5 t118.5 -79.5t74 -104.5t27 -107.5q0 -106 -41 -195t-138 -186q-39 -39 -57 -99t-18 -112q0 -153 93 -237.5t263 -84.5q88 0 174.5 49t153.5 131t109 198t42 241q0 135 -51 262.5t-140.5 227t-223 159.5t-287.5 60q-186 0 -346 -95zM518 999q0 -43 27 -72.5t73 -29.5 q44 0 74.5 30t30.5 72q0 39 -30 70t-77 31q-37 0 -67.5 -29t-30.5 -72zM977 457q0 45 30.5 75.5t67.5 30.5q43 0 74 -32t31 -74q0 -43 -31.5 -72t-73.5 -29q-41 0 -69.5 31.5t-28.5 69.5z" />
<glyph unicode="&#x2672;" horiz-adv-x="1882" d="M102 862h433l174 -375l-123 72l-64 -57q-33 -29 -33 -60q0 -51 64 -51h393v-432h-379q-61 0 -88.5 18.5t-50.5 61.5l-231 426q-25 46 -25 106q0 122 66 191zM188 831l97 -65q-82 -79 -82 -191q0 -184 217 -184h57q-22 16 -22 49q0 41 39 80l86 78l57 -35l-125 268h-324z M268 391l181 -334q22 -38 43.5 -54.5t64.5 -16.5h361v379h-486q-44 0 -75 3.5t-45.5 8t-43.5 14.5zM365 1026l210 340q49 78 142 78h497q43 0 58 -5.5t28 -27.5l109 -178l131 78l-172 -393l-432 43l123 77l-94 166l-254 -379zM408 1032l294 -170l246 371q-89 174 -243 174 q-60 0 -99 -57zM801 1417q57 -12 98 -58.5t86 -127.5l115 -205l-76 -47l326 -31l137 297l-82 -53l-121 190q-12 20 -26 27.5t-39 7.5h-418zM1001 160l226 346v-144h223l-236 400l353 209l194 -361q19 -40 19 -61q0 -35 -25 -80l-221 -397q-30 -53 -42 -71t-33.5 -30 t-57.5 -12h-172v-158zM1036 160l166 -266v92h197q53 0 84 53l211 385q-62 -57 -130.5 -74.5t-189.5 -17.5h-172v90zM1251 754l236 -392q54 5 112.5 31t102 70t43.5 90q0 21 -12 49l-183 326z" />
<glyph unicode="&#x2673;" horiz-adv-x="1779" d="M102 213q0 74 50 160l149 268l-94 51l14 27l242 45l86 -229l-17 -31l-96 59l-131 -237q-26 -48 -26 -88t29 -64t91 -24h406v-150h-436q-123 0 -195 58t-72 155zM449 897l217 379q82 145 219 145q64 0 122.5 -37t94.5 -102l149 -264l105 59l12 -28l-90 -230l-248 43 l-12 25l100 55l-145 246q-36 61 -92 61q-59 0 -99 -71l-202 -357zM739 662v116l86 62h101v-594h-113v467zM913 74l160 200l27 -4v-120h262q141 0 141 90q0 41 -33 94l-204 348l137 80l227 -397q47 -80 47 -150q0 -97 -82 -156t-211 -59h-286v-121h-33z" />
<glyph unicode="&#x2674;" horiz-adv-x="1779" d="M102 213q0 74 50 160l149 268l-94 51l14 27l242 45l86 -229l-17 -31l-96 59l-131 -237q-26 -48 -26 -88t29 -64t91 -24h406v-150h-436q-123 0 -195 58t-72 155zM449 897l217 379q82 145 219 145q64 0 122.5 -37t94.5 -102l149 -264l105 59l12 -28l-90 -230l-248 43 l-12 25l100 55l-145 246q-36 61 -92 61q-59 0 -99 -71l-202 -357zM674 254v94l219 275q29 32 29 67q0 25 -17.5 42.5t-46.5 17.5t-48.5 -23.5t-25.5 -64.5l-106 12q12 84 62 131t118 47q76 0 124 -42t48 -118q0 -67 -43 -121l-170 -213h203v-104h-346zM913 74l160 200l27 -4 v-120h262q141 0 141 90q0 41 -33 94l-204 348l137 80l227 -397q47 -80 47 -150q0 -97 -82 -156t-211 -59h-286v-121h-33z" />
<glyph unicode="&#x2675;" horiz-adv-x="1779" d="M102 213q0 74 50 160l149 268l-94 51l14 27l242 45l86 -229l-17 -31l-96 59l-131 -237q-26 -48 -26 -88t29 -64t91 -24h406v-150h-436q-123 0 -195 58t-72 155zM449 897l217 379q82 145 219 145q64 0 122.5 -37t94.5 -102l149 -264l105 59l12 -28l-90 -230l-248 43 l-12 25l100 55l-145 246q-36 61 -92 61q-59 0 -99 -71l-202 -357zM674 406l104 14q14 -72 72 -72q36 0 58 25t22 63q0 37 -21.5 57.5t-54.5 20.5h-59v98h53q32 0 54 19.5t22 48.5t-20.5 49.5t-49.5 20.5q-48 0 -70 -74l-106 12q13 72 63 118t113 46q87 0 131.5 -48.5 t44.5 -121.5q0 -74 -55 -115q59 -49 59 -129q0 -87 -50 -138.5t-136 -51.5q-144 0 -174 158zM913 74l160 200l27 -4v-120h262q141 0 141 90q0 41 -33 94l-204 348l137 80l227 -397q47 -80 47 -150q0 -97 -82 -156t-211 -59h-286v-121h-33z" />
<glyph unicode="&#x2676;" horiz-adv-x="1779" d="M102 213q0 74 50 160l149 268l-94 51l14 27l242 45l86 -229l-17 -31l-96 59l-131 -237q-26 -48 -26 -88t29 -64t91 -24h406v-150h-436q-123 0 -195 58t-72 155zM449 897l217 379q82 145 219 145q64 0 122.5 -37t94.5 -102l149 -264l105 59l12 -28l-90 -230l-248 43 l-12 25l100 55l-145 246q-36 61 -92 61q-59 0 -99 -71l-202 -357zM633 342v88l196 422h115l-190 -410h118v144h105v-144h45v-100h-45v-84h-105v84h-239zM913 74l160 200l27 -4v-120h262q141 0 141 90q0 41 -33 94l-204 348l137 80l227 -397q47 -80 47 -150q0 -97 -82 -156 t-211 -59h-286v-121h-33z" />
<glyph unicode="&#x2677;" horiz-adv-x="1779" d="M102 213q0 74 50 160l149 268l-94 51l14 27l242 45l86 -229l-17 -31l-96 59l-131 -237q-26 -48 -26 -88t29 -64t91 -24h406v-150h-436q-123 0 -195 58t-72 155zM449 897l217 379q82 145 219 145q64 0 122.5 -37t94.5 -102l149 -264l105 59l12 -28l-90 -230l-248 43 l-12 25l100 55l-145 246q-36 61 -92 61q-59 0 -99 -71l-202 -357zM684 397l104 21q15 -78 74 -78q80 0 80 117q0 102 -72 102q-37 0 -67 -51h-96v332h309v-103h-209v-96q35 18 80 18q77 0 117 -52.5t40 -151.5q0 -97 -46.5 -155t-135.5 -58q-146 0 -178 155zM913 74l160 200 l27 -4v-120h262q141 0 141 90q0 41 -33 94l-204 348l137 80l227 -397q47 -80 47 -150q0 -97 -82 -156t-211 -59h-286v-121h-33z" />
<glyph unicode="&#x2678;" horiz-adv-x="1779" d="M102 213q0 74 50 160l149 268l-94 51l14 27l242 45l86 -229l-17 -31l-96 59l-131 -237q-26 -48 -26 -88t29 -64t91 -24h406v-150h-436q-123 0 -195 58t-72 155zM449 897l217 379q82 145 219 145q64 0 122.5 -37t94.5 -102l149 -264l105 59l12 -28l-90 -230l-248 43 l-12 25l100 55l-145 246q-36 61 -92 61q-59 0 -99 -71l-202 -357zM694 426q0 67 33 129q16 30 69.5 131t80.5 154h114l-112 -232h12q71 0 116.5 -51.5t45.5 -124.5q0 -93 -53.5 -141.5t-129.5 -48.5q-81 0 -128.5 47t-47.5 137zM801 428q0 -41 19 -63.5t52 -22.5q30 0 50 23 t20 63t-19.5 61t-50.5 21t-51 -21t-20 -61zM913 74l160 200l27 -4v-120h262q141 0 141 90q0 41 -33 94l-204 348l137 80l227 -397q47 -80 47 -150q0 -97 -82 -156t-211 -59h-286v-121h-33z" />
<glyph unicode="&#x2679;" horiz-adv-x="1779" d="M102 213q0 74 50 160l149 268l-94 51l14 27l242 45l86 -229l-17 -31l-96 59l-131 -237q-26 -48 -26 -88t29 -64t91 -24h406v-150h-436q-123 0 -195 58t-72 155zM449 897l217 379q82 145 219 145q64 0 122.5 -37t94.5 -102l149 -264l105 59l12 -28l-90 -230l-248 43 l-12 25l100 55l-145 246q-36 61 -92 61q-59 0 -99 -71l-202 -357zM692 641v188h352v-90l-200 -503h-115l195 489h-125v-84h-107zM913 74l160 200l27 -4v-120h262q141 0 141 90q0 41 -33 94l-204 348l137 80l227 -397q47 -80 47 -150q0 -97 -82 -156t-211 -59h-286v-121h-33z " />
<glyph unicode="&#x267a;" horiz-adv-x="1779" d="M102 213q0 74 50 160l149 268l-94 51l14 27l242 45l86 -229l-17 -31l-96 59l-131 -237q-26 -48 -26 -88t29 -64t91 -24h406v-150h-436q-123 0 -195 58t-72 155zM449 897l217 379q82 145 219 145q64 0 122.5 -37t94.5 -102l149 -264l105 59l12 -28l-90 -230l-248 43 l-12 25l100 55l-145 246q-36 61 -92 61q-59 0 -99 -71l-202 -357zM913 74l160 200l27 -4v-120h262q141 0 141 90q0 41 -33 94l-204 348l137 80l227 -397q47 -80 47 -150q0 -97 -82 -156t-211 -59h-286v-121h-33z" />
<glyph unicode="&#x267b;" horiz-adv-x="1820" d="M102 606q0 10 11 47l102 176l-84 41h330l160 -276l-95 55l-147 -268q-68 -107 -68 -166l-180 311q-29 53 -29 80zM326 1032l170 299q69 92 161 92q67 0 124 -35t93 -83l-247 -451zM358 172q0 61 50 150h510v-322h-388q-24 0 -52 9t-56 28t-46 54t-18 81zM823 1421h371 q53 0 74.5 -10.5t34.5 -36.5l94 -168l98 56l-168 -295h-342l107 67l-152 273q-40 68 -117 114zM961 164l176 280v-122h305q37 0 93.5 16.5t100.5 44.5l-204 -311q-47 -72 -129 -72h-166v-119zM1202 836l309 178l177 -303q30 -53 30 -107q0 -94 -77.5 -158.5t-170.5 -64.5 h-16z" />
<glyph unicode="&#x267c;" horiz-adv-x="1712" d="M102 721q0 153 60 292.5t161 240.5t240.5 161t292.5 60t292.5 -60t240.5 -161t161 -240.5t60 -292.5t-60 -292.5t-161 -240.5t-240.5 -161t-292.5 -60t-292.5 60t-240.5 161t-161 240.5t-60 292.5zM242 651q0 -28 20 -61l141 -228q0 38 48 123l112 199l70 -39l-119 205 h-246l62 -29l-78 -131q-10 -17 -10 -39zM414 971l227 -133l184 338q-71 88 -163 88q-82 0 -121 -70zM438 330q0 -35 13.5 -62t34 -41t41 -21t38.5 -7h291v239h-381q-37 -55 -37 -108zM784 1262q53 -24 88 -84l113 -205l-80 -51h256l127 221l-74 -41l-69 125q-11 20 -26 27.5 t-54 7.5h-281zM889 324l131 -213v88h125q60 0 96 55l154 231q-34 -20 -78 -33.5t-68 -13.5h-229v94zM1069 825l188 -340h13q70 0 127 48t57 118q0 47 -22 80l-132 227z" />
<glyph unicode="&#x267d;" horiz-adv-x="1712" d="M102 723q0 153 60 292.5t161 240.5t240.5 161t292.5 60t292.5 -60t240.5 -161t161 -240.5t60 -292.5t-60 -292.5t-161 -240.5t-240.5 -161t-292.5 -60t-292.5 60t-240.5 161t-161 240.5t-60 292.5zM141 723q0 -145 57 -277.5t153 -228.5t228 -152.5t277 -56.5 q146 0 278 56.5t228 152.5t152.5 228t56.5 278q0 145 -56.5 277t-152.5 228t-228.5 153t-277.5 57t-277 -57t-228 -153t-153 -228t-57 -277zM246 651q0 22 10 39l78 131l-62 29h246l119 -205l-70 39l-112 -199q-47 -83 -47 -123l-142 228q-20 33 -20 61zM418 971l127 223 q39 70 121 70q92 0 163 -88l-184 -338zM442 330q0 53 37 108h381v-239h-291q-18 0 -38.5 7t-41 21t-34 41t-13.5 62zM788 1262h281q39 0 54 -7.5t26 -27.5l70 -125l73 41l-127 -221h-256l80 51l-112 205q-35 59 -89 84zM893 324l131 208v-94h229q24 0 68 13.5t78 33.5 l-154 -231q-36 -55 -96 -55h-125v-88zM1073 825l232 133l131 -227q22 -33 22 -80q0 -70 -57 -118t-127 -48h-12z" />
<glyph unicode="&#x2693;" horiz-adv-x="1429" d="M131 432l291 -84l-82 -72q81 -77 153.5 -104t157.5 -33v813h-262v99h262v24q-55 17 -90 65.5t-35 108.5q0 77 54.5 131t130.5 54q74 0 127 -54t53 -131q0 -59 -31.5 -103t-83.5 -65v-30h266v-99h-266v-813h4q86 8 157.5 34.5t152.5 102.5l-82 72l290 84l-43 -311l-77 84 q-193 -197 -463 -221q-271 24 -461 221l-78 -84z" />
<glyph unicode="&#x26a0;" horiz-adv-x="1810" d="M100 94q0 32 23 76l678 1200q45 74 104 74t99 -70l677 -1204q21 -34 21 -76q0 -43 -27 -68.5t-82 -25.5h-1382q-57 0 -84 26t-27 68zM231 133q0 -11 12.5 -14.5t47.5 -3.5h1222q35 0 47.5 3.5t12.5 14.5q0 9 -27 53l-608 1078q-18 34 -39 34q-20 0 -39 -34l-604 -1080 q-25 -41 -25 -51zM803 242q0 27 22.5 55.5t69.5 28.5q36 0 61 -24t25 -64q0 -37 -25 -60.5t-61 -23.5q-34 0 -63 20t-29 68zM805 981q0 35 25.5 64.5t64.5 29.5q47 0 72.5 -26.5t25.5 -67.5l-59 -575q-4 -16 -17 -26.5t-24 -10.5q-13 0 -26.5 10.5t-14.5 26.5z" />
<glyph unicode="&#x2706;" horiz-adv-x="884" d="M215 713q0 126 15 233.5t38.5 181t55.5 132t63.5 93t64 57.5t56 31.5t41.5 10.5v-426q-53 0 -73.5 -76t-20.5 -258q0 -31 4.5 -75t14 -97.5t29 -91.5t46.5 -41v-412q-17 0 -40.5 8.5t-56 31.5t-64.5 57.5t-63.5 93.5t-55.5 132.5t-39 181t-15 233.5zM575 -25v412h123 q41 0 41 -41v-328q0 -43 -41 -43h-123zM575 1026v426h123q17 0 29 -12t12 -29v-334q0 -51 -41 -51h-123z" />
<glyph unicode="&#x2708;" horiz-adv-x="1822" d="M96 858h154l131 -172h393l-229 735h194l424 -735h506q48 0 76.5 -28t28.5 -66q0 -35 -27.5 -61.5t-75.5 -26.5h-512l-426 -719h-196l235 719h-391l-125 -164h-154l78 260z" />
<glyph unicode="&#x2709;" horiz-adv-x="2191" d="M131 0v1374h1927v-1374h-1927zM254 213l469 463l-469 467v-930zM332 1249l753 -760l750 760h-1503zM346 131h1487l-455 459l-293 -295l-280 278zM1458 690l465 -465v934z" />
<glyph unicode="&#x2713;" horiz-adv-x="1564" d="M131 729q44 38 102 57t105 19q26 0 64 -49t73 -123.5t64 -172t39 -186.5q107 187 258.5 395t338.5 407t343 302l30 -35q-133 -103 -318.5 -358t-335 -511t-239.5 -449q-164 -39 -206 -66q-53 221 -151 478t-167 292z" />
<glyph unicode="&#x2716;" horiz-adv-x="1519" d="M51 352l359 353l-359 352l355 356l354 -356l354 356l354 -356l-356 -352l356 -353l-354 -356l-354 358l-354 -358z" />
<glyph unicode="&#x271a;" horiz-adv-x="1531" d="M104 446v472h437v446h471v-446h446v-472h-436v-446h-473v446h-445z" />
<glyph unicode="&#x272a;" horiz-adv-x="1630" d="M86 709q0 197 97.5 364.5t265 265t364.5 97.5t364.5 -97.5t265 -265t97.5 -364.5q0 -198 -97.5 -365t-265 -263.5t-364.5 -96.5t-364.5 96.5t-265 263.5t-97.5 365zM207 874l289 -286l-50 -408l349 189l387 -189l-66 418l281 276l-406 84l-196 363l-187 -367z" />
<glyph unicode="&#x2794;" horiz-adv-x="1507" d="M43 600v219h1006l-484 481h305l590 -589l-592 -590l-301 -4l484 483h-1008z" />
<glyph unicode="&#xe000;" horiz-adv-x="1171" d="M96 510q0 181 40.5 341t115.5 282.5t192.5 194t262.5 71.5q232 0 344 -140.5t112 -398.5q0 -259 -71.5 -457t-214.5 -312t-340 -114q-221 0 -331 138.5t-110 394.5zM268 508q0 -81 14.5 -147t46.5 -120t88.5 -84t133.5 -30q94 0 170.5 47.5t125 123t81.5 173.5t47 195 t14 192q0 66 -8.5 122.5t-29.5 106.5t-52.5 85t-80.5 55t-111 20q-94 0 -170.5 -48t-125.5 -124t-82 -175.5t-47 -197.5t-14 -194z" />
<glyph unicode="&#xe001;" horiz-adv-x="1044" d="M156 33l12 94q2 20 9 27.5t26 7.5h235l146 1034l-234 -37q-19 -4 -24.5 1.5t-3.5 23.5l12 80q3 34 37 43l299 88q51 13 81 -1t23 -59l-164 -1173h244q18 0 23 -8t0 -27l-13 -94q-4 -14 -6 -19.5t-8.5 -9.5t-18.5 -4h-651q-18 0 -23.5 7.5t-0.5 25.5z" />
<glyph unicode="&#xe002;" horiz-adv-x="1171" d="M78 102q-2 74 52.5 173t166.5 206q130 128 346 256q158 90 224.5 164t66.5 170q0 84 -65 129t-183 45q-76 0 -166 -31t-164 -84q-27 -21 -45 3l-53 81q-13 25 14 43q97 68 211.5 105t225.5 37q179 0 289 -82t110 -240q0 -147 -99 -258.5t-292 -218.5q-93 -50 -176 -111.5 t-161 -149t-114 -177.5h688q34 0 25 -33l-12 -96q-5 -20 -10.5 -26.5t-24.5 -6.5h-729q-68 0 -96.5 23.5t-28.5 78.5z" />
<glyph unicode="&#xe003;" horiz-adv-x="1171" d="M66 109q-16 16 2 36l57 86q18 27 47 5q66 -46 154.5 -72.5t169.5 -26.5q158 0 249.5 81.5t96.5 205.5q5 99 -68.5 164t-193.5 65h-60q-28 0 -37.5 9t-5.5 38l10 64q4 30 15 40.5t35 10.5h49q126 0 212.5 70.5t86.5 163.5q0 53 -22 91t-60 57.5t-80.5 28.5t-93.5 9 q-167 0 -324 -94q-33 -20 -49 2l-43 90q-11 25 10 35q96 64 214 98.5t231 34.5q121 0 212.5 -36.5t144 -115t44.5 -190.5q-7 -113 -84 -201t-186 -127l-2 -8q104 -26 167.5 -107t59.5 -206q-8 -190 -148 -311.5t-364 -121.5q-131 0 -253.5 31t-192.5 101z" />
<glyph unicode="&#xe004;" horiz-adv-x="1171" d="M47 391l4 31q9 65 58 119l692 780q68 84 123 84h57q54 0 72 -23t10 -79l-119 -840h143q35 0 29 -31l-12 -90q-4 -19 -12 -25t-25 -6h-143l-39 -280q-4 -20 -11.5 -25.5t-25.5 -5.5h-111q-19 0 -24.5 6t-1.5 25l37 278h-617q-44 0 -66.5 16t-17.5 66zM254 471l2 -8h514 l98 704l-4 4z" />
<glyph unicode="&#xe005;" horiz-adv-x="1171" d="M76 113q-16 16 2 37l61 83q12 14 19.5 15.5t29.5 -10.5q128 -99 332 -99q168 0 275.5 91t107.5 243q0 116 -72.5 171.5t-187.5 55.5q-69 0 -131.5 -13t-94 -25t-110.5 -46q-29 -10 -43.5 -9t-40.5 9l-26 13q-50 26 -33 88l123 538q13 61 51 91t84 30h661q20 0 25 -7.5 t0 -25.5l-12 -94q-6 -35 -35 -35h-610l-103 -417q152 63 328 63q184 0 295.5 -95.5t111.5 -272.5q0 -156 -74.5 -275t-203.5 -181.5t-293 -62.5q-293 0 -436 140z" />
<glyph unicode="&#xe006;" horiz-adv-x="1171" d="M100 496q0 144 27.5 276t87 248t145.5 201.5t209.5 134.5t272.5 49q141 0 221 -35q12 -6 14 -12.5t-2 -26.5l-28 -92q-4 -16 -14.5 -19t-28.5 3q-86 22 -168 22q-195 0 -327 -122t-183 -330q81 28 183 44.5t187 16.5q189 0 303.5 -93t114.5 -276q0 -106 -32.5 -193.5 t-85 -144.5t-122.5 -96.5t-142.5 -56.5t-147.5 -17q-242 0 -363 134.5t-121 384.5zM274 467q0 -152 81.5 -243t226.5 -91q154 0 254 86t100 236q0 109 -66.5 173t-197.5 64q-182 0 -381 -59q-17 -83 -17 -166z" />
<glyph unicode="&#xe007;" horiz-adv-x="1122" d="M156 12q-5 12 6 31l768 1174h-721q-19 0 -24.5 7.5t-0.5 26.5l13 92q5 20 10.5 26.5t23.5 6.5h828q40 0 60.5 -15.5t13.5 -55.5l-7 -50q-8 -57 -41 -104l-737 -1120q-9 -14 -12.5 -19t-12.5 -8.5t-24 -3.5h-123q-15 0 -20 12z" />
<glyph unicode="&#xe008;" horiz-adv-x="1171" d="M90 319q0 137 85.5 255t221.5 163l2 6q-87 34 -127.5 106t-40.5 150q0 95 42.5 173.5t113.5 128.5t158.5 77t181.5 27q181 0 285 -91t104 -235q0 -64 -21.5 -123.5t-79.5 -119t-147 -93.5l-2 -6q107 -35 158 -117.5t51 -193.5q0 -59 -18.5 -119.5t-60 -120.5t-102 -106 t-153.5 -74.5t-204 -28.5q-219 0 -333 95.5t-114 246.5zM270 350q0 -97 67 -158t212 -61q76 0 137.5 19.5t100 51t65 72t37 80.5t10.5 80q0 106 -77.5 162.5t-198.5 56.5q-85 0 -164 -33.5t-134 -104.5t-55 -165zM406 985q0 -83 66 -132.5t167 -49.5q119 0 209 71.5 t90 178.5q0 88 -61 140t-175 52q-132 0 -214 -76t-82 -184z" />
<glyph unicode="&#xe009;" horiz-adv-x="1171" d="M137 899q0 106 32.5 193.5t85.5 144.5t123 96.5t143.5 56.5t148.5 17q242 0 361.5 -133.5t119.5 -384.5q0 -120 -20 -232t-58.5 -214t-100.5 -186t-142 -146t-187 -96.5t-231 -34.5q-144 0 -222 34q-14 6 -16 12.5t4 26.5l31 92q4 16 13 19t28 -2q90 -23 168 -23 q193 0 326 122.5t184 330.5q-81 -30 -183 -46t-188 -16q-189 0 -304.5 93t-115.5 276zM315 930q0 -109 67 -173.5t198 -64.5q186 0 383 60q14 68 14 166q0 152 -81 242.5t-226 90.5q-153 0 -254 -86t-101 -235z" />
<glyph unicode="&#xe00a;" horiz-adv-x="1171" d="M76 304q-3 5 2 22l20 57q5 15 12 22t23 7h170l127 381h-176q-17 0 -20 5.5t2 22.5l20 58q5 15 12 21.5t23 6.5h178l90 262q4 17 9.5 21t19.5 4h67q19 0 24 -4.5t1 -20.5l-88 -262h295l88 262q4 16 10 20.5t19 4.5h67q19 0 25 -4.5t2 -20.5l-90 -262h170q28 0 22 -28 l-22 -58q-5 -18 -10.5 -23t-22.5 -5h-174l-131 -381h178q28 0 18 -29l-18 -57q-9 -27 -35 -27h-180q-2 -7 -47 -137t-47 -137q-6 -21 -10 -23t-17 -2h-70q-16 0 -22 4.5t-2 20.5l92 274h-293l-92 -274q-6 -18 -10 -21.5t-21 -3.5h-69q-15 0 -22 4.5t-3 20.5l92 274h-166 q-17 0 -20 5zM426 412h291l129 381h-293z" />
<glyph unicode="&#xe00b;" horiz-adv-x="1163" d="M78 133l49 94q15 21 35 13q109 -53 256 -80l74 524q-240 120 -240 332q0 151 88.5 250.5t251.5 119.5l22 173q4 19 10.5 23.5t24.5 4.5h31q21 0 27 -4.5t2 -23.5l-248 -1760q-4 -18 -10.5 -22t-26.5 -4h-31q-13 0 -18 1t-9 7t1 18l26 199q-181 22 -309 96q-22 10 -6 39z M428 1022q0 -46 22 -80t70 -65l47 329q-68 -20 -103.5 -68.5t-35.5 -115.5zM534.5 -219q-4.5 6 0.5 18l247 1760q4 19 11 23.5t26 4.5h29q21 0 28 -4.5t3 -23.5l-23 -164q118 -15 231 -70q21 -9 9 -31l-49 -106q-9 -22 -29 -12q-98 37 -187 53l-67 -471q71 -36 114.5 -64 t88 -71t65.5 -98t21 -126q0 -177 -108.5 -280t-289.5 -129h2l-26 -191q-4 -18 -11.5 -22t-27.5 -4h-29q-14 0 -19 1t-9.5 7zM680 160q197 47 197 227q0 59 -34.5 103.5t-103.5 82.5z" />
<glyph unicode="&#xe00c;" horiz-adv-x="1171" d="M94 547l10 55q2 18 8.5 25.5t24.5 7.5h807q18 0 23.5 -7.5t3.5 -25.5l-10 -55q-2 -19 -8.5 -26t-24.5 -7h-533q-39 -371 338 -371q132 0 289 68q6 3 11.5 4.5t9 1t6 -1t4.5 -4t3 -4.5t3 -6t2 -6l33 -82q5 -12 6 -20t-3.5 -14t-7.5 -8l-12 -8q-150 -86 -395 -86 q-112 0 -201.5 31.5t-154 95t-94 168t-17.5 242.5h-96q-16 0 -20.5 6.5t-4.5 26.5zM129 788l8 56q2 18 9 25.5t26 7.5h94q61 264 212 393t372 129q205 0 340 -78q1 0 3.5 -1.5t3.5 -2.5t3 -2.5t3 -3t2 -3.5t1 -5t-0.5 -6t-2 -7.5t-3.5 -9.5l-43 -88q-9 -27 -37 -14 q-131 57 -264 57q-312 0 -403 -358h524q19 0 24 -7t3 -26l-9 -56q-2 -19 -8 -25.5t-26 -6.5h-807q-18 0 -22.5 6t-2.5 26z" />
<glyph unicode="&#xe00e;" horiz-adv-x="1171" d="M102 49q0 6 2 12q0 3 1 6.5t2 9t2 9.5q4 25 13.5 41.5t18 24.5t33.5 28q62 48 103.5 106t61 122.5t27 121t7.5 125.5h-162q-17 0 -21 7t-2 26l11 66q2 18 8 25t24 7h146l-6 129q-9 469 452 469q188 0 303 -67q11 -7 11 -15t-7 -28l-32 -80q-10 -26 -41 -10 q-100 49 -228 49q-89 0 -147 -21.5t-86 -60.5t-41 -94.5t-12 -123.5t2 -147h393q18 0 23 -6.5t0 -23.5l-11 -68q-2 -18 -8 -25.5t-24 -7.5h-373q-18 -348 -176 -495h622q15 0 20.5 -3.5t5.5 -11t-1 -18.5l-12 -94q-5 -21 -10.5 -27t-24.5 -6h-805q-35 0 -49.5 12.5 t-12.5 36.5z" />
<glyph unicode="&#xe00f;" horiz-adv-x="1044" d="M166 406q0 200 58.5 354t170.5 242.5t262 93.5l25 182q4 16 11 21.5t20 5.5h39q15 0 19.5 -5.5t0.5 -21.5l-27 -184q152 -14 244 -68q19 -13 4 -43l-35 -84q-13 -29 -43 -12q-86 40 -192 49l-111 -803q109 2 234 53q12 7 19 6t8.5 -3t7.5 -13l41 -86q12 -27 -19 -43 q-118 -66 -313 -70l-27 -182q-1 -17 -6.5 -21.5t-19.5 -4.5h-41q-14 0 -19.5 5t-1.5 21l27 187q-336 38 -336 424zM338 412q0 -234 184 -275l111 797q-77 -10 -135.5 -58.5t-92.5 -123t-50.5 -160.5t-16.5 -180z" />
<glyph unicode="&#xe010;" horiz-adv-x="1171" d="M162 416l6 57q5 19 11.5 26t23.5 7h819q34 0 25 -33l-9 -57l-4 -16t-4.5 -9.5t-9 -6.5t-14.5 -1h-334l-51 -354q-5 -19 -10.5 -24t-24.5 -5h-111q-18 0 -23 5.5t-1 23.5l49 354h-314q-30 0 -24 33zM193 649l10 56q2 18 8.5 25t24.5 7h219l-205 617q-5 6 1 14t19 8h127 q14 0 21.5 -4t11.5 -20l111 -353l80 -286h8l155 286l205 353q15 24 43 24h139q11 0 13.5 -8t-2.5 -14l-375 -617h248q17 0 21.5 -7t2.5 -25l-8 -56q-3 -33 -33 -33h-819q-18 0 -22 6.5t-4 26.5z" />
<glyph unicode="&#xe024;" horiz-adv-x="1171" d="M98 428q0 194 73 347t205 238t300 85q212 0 326 -121t114 -334q0 -196 -72.5 -347t-206.5 -235t-309 -84q-202 0 -316 120.5t-114 330.5zM272 444q0 -65 14.5 -118.5t45.5 -98t87.5 -69.5t133.5 -25q82 0 149 30.5t110.5 80t73.5 115.5t43 133.5t13 136.5q0 64 -15 118 t-46.5 98.5t-87 69.5t-129.5 25q-94 0 -171 -45t-124 -117.5t-72 -159t-25 -174.5z" />
<glyph unicode="&#xe025;" horiz-adv-x="1171" d="M168 33l12 94q5 20 11 26.5t24 6.5h264l103 733l-281 -37q-18 -4 -23.5 1.5t-3.5 23.5l13 82q5 20 12 28.5t25 14.5l354 84q47 13 77 -1.5t23 -58.5l-121 -870h273q18 0 22.5 -7t-0.5 -26l-12 -94q-2 -19 -8 -26t-25 -7h-714q-17 0 -22 7.5t-3 25.5z" />
<glyph unicode="&#xe026;" horiz-adv-x="1171" d="M43 109q0 144 211 286q143 97 362 187q165 73 227 117t62 106q0 64 -68.5 95.5t-191.5 31.5q-151 0 -350 -90q-32 -14 -43 -12.5t-21 24.5l-30 66q-15 37 20 57q99 55 216.5 86t226.5 31q207 0 314 -69.5t107 -199.5q0 -56 -20 -103t-51 -82.5t-85 -71t-106.5 -61 t-130.5 -58.5q-78 -31 -133.5 -56t-125.5 -62.5t-119.5 -80.5t-75.5 -90h720q28 0 35 -10t2 -35l-8 -74q-5 -25 -13.5 -33t-37.5 -8h-750q-79 0 -111 24t-32 85z" />
<glyph unicode="&#xe027;" horiz-adv-x="1171" d="M5 -103q-1 6 9 25l62 84q14 19 49 -2q130 -84 295 -84q156 0 248 76.5t92 196.5q0 85 -63 139.5t-187 54.5h-49q-14 0 -22 1t-16 5t-10.5 13.5t-0.5 25.5l6 68q4 30 17.5 40.5t39.5 10.5h45q129 0 205 65t76 156q0 58 -34 96.5t-83.5 53t-112.5 14.5q-74 0 -157 -23.5 t-150 -62.5q-18 -12 -32 -11.5t-21 17.5l-47 80q-11 25 4 37q171 127 432 127q166 0 276.5 -83t110.5 -226q0 -108 -66 -191.5t-173 -122.5v-10q93 -23 143.5 -94.5t50.5 -175.5q0 -187 -146.5 -311t-373.5 -124q-116 0 -225 30t-181 89q-10 10 -11 16z" />
<glyph unicode="&#xe028;" horiz-adv-x="1171" d="M-16 86l4 23q7 50 61 118l690 783q42 45 59 54q20 11 48 11h53q54 0 71 -21.5t11 -76.5l-117 -827h135q22 0 27.5 -6t3.5 -27l-12 -84q-5 -22 -11 -27.5t-28 -5.5h-135l-29 -197q-4 -19 -11.5 -24.5t-27.5 -5.5h-102q-20 0 -27.5 5.5t-3.5 24.5l29 197h-600 q-44 0 -69.5 18.5t-18.5 67.5zM182 158l4 -8h506l96 684q-3 0 -5 1t-5 1z" />
<glyph unicode="&#xe029;" horiz-adv-x="1171" d="M68 -78l65 94q7 9 15.5 9t14 -2.5t21.5 -12.5q141 -88 318 -88q161 0 261.5 83.5t100.5 223.5q0 109 -67 159t-179 50q-94 0 -159 -17.5t-160 -60.5q-46 -19 -88 -2l-29 13q-49 20 -32 86l120 504q13 57 49.5 85.5t81.5 28.5h633q21 0 26 -7.5t3 -27.5l-14 -88 q-5 -20 -11.5 -27t-25.5 -7h-582q-6 -16 -43.5 -173t-48.5 -206q139 57 321 57q175 0 280 -93.5t105 -256.5q0 -143 -72.5 -255.5t-196 -172.5t-275.5 -60q-273 0 -424 125q-20 20 -8 39z" />
<glyph unicode="&#xe02a;" horiz-adv-x="1171" d="M109 453q0 138 27 263.5t84 235t139 189.5t199.5 126t258.5 46q54 0 120.5 -8.5t100.5 -24.5q26 -9 17 -35l-29 -90q-9 -27 -47 -16q-78 20 -162 20q-191 0 -312.5 -108t-172.5 -303q178 55 354 55q118 0 208.5 -36t146 -115.5t55.5 -194.5q0 -101 -29.5 -183.5t-80 -137 t-119.5 -91.5t-145 -53.5t-159 -16.5q-221 0 -337.5 124t-116.5 354zM285 461q0 -149 73 -239.5t222 -90.5q153 0 245.5 79.5t92.5 223.5q0 96 -63.5 152.5t-188.5 56.5q-187 0 -369 -55q-12 -64 -12 -127z" />
<glyph unicode="&#xe02b;" horiz-adv-x="1171" d="M139 -214q-4 13 13 32q30 48 369.5 553t365.5 547h-692q-22 0 -27.5 8.5t0.5 25.5l14 86q2 20 8.5 28.5t24.5 8.5h797q40 0 63 -16.5t19 -54.5l-9 -48q-6 -36 -38 -98l-711 -1055q-13 -30 -51 -30h-121q-21 0 -25 13z" />
<glyph unicode="&#xe02c;" horiz-adv-x="1171" d="M100 299q0 122 77 232t204 159l2 8q-54 20 -87.5 60.5t-44.5 80t-11 81.5q0 117 68.5 209t177 140t233.5 48q179 0 280 -79.5t101 -215.5q0 -40 -11 -82.5t-35.5 -88.5t-70.5 -87.5t-109 -69.5v-10q95 -34 142 -108t47 -170q0 -55 -16.5 -111t-56.5 -114.5t-98.5 -103.5 t-152.5 -73.5t-209 -28.5q-214 0 -322 89.5t-108 234.5zM285 324q0 -88 63.5 -145.5t200.5 -57.5q91 0 158.5 25.5t104.5 68t54 88.5t17 96q0 99 -74.5 152t-192.5 53q-61 0 -118.5 -18t-106 -51.5t-77.5 -88t-29 -122.5zM414 928q0 -76 63.5 -123t159.5 -47q118 0 200.5 66 t82.5 163q0 80 -58 127t-168 47q-126 0 -203 -67.5t-77 -165.5z" />
<glyph unicode="&#xe02d;" horiz-adv-x="1171" d="M123 621q0 100 29.5 181.5t79.5 136t118 91.5t144 53.5t159 16.5q221 0 337 -123.5t116 -353.5q0 -138 -27 -263.5t-84 -235t-139 -190t-199.5 -126.5t-257.5 -46q-52 0 -120 8.5t-101 24.5q-26 12 -16 35l28 90q7 28 48 19q90 -23 161 -23q190 0 312.5 109.5 t171.5 304.5q-157 -56 -355 -56q-88 0 -161 21t-128 62.5t-85.5 108.5t-30.5 155zM299 641q0 -96 64 -151.5t190 -55.5q192 0 367 53q12 65 12 129q0 148 -73 239t-222 91q-151 0 -244.5 -81t-93.5 -224z" />
<glyph unicode="&#xe02e;" horiz-adv-x="1171" d="M96 264q0 11 2 15l19 47q6 28 37 28h147q33 107 113 316h-156q-25 0 -25 10q0 4 4 14.5t10 26.5l9 24q10 29 33 29h160l75 217q4 17 9.5 22t19.5 5h61q25 0 25 -23v-4q-16 -54 -76 -217h256q5 14 34 97t44 120q4 17 10 22t19 5h61q27 0 27 -27q-13 -34 -42.5 -117 t-35.5 -100h147q27 0 27 -18q0 -9 -2 -11l-18 -49q-5 -11 -8 -15.5t-10 -7.5t-19 -3h-150q-89 -238 -115 -316h156q23 0 23 -16q0 -8 -2 -12l-19 -47q-6 -18 -12 -23.5t-23 -5.5h-157q-14 -34 -42.5 -119.5t-35.5 -105.5q-5 -17 -9.5 -21t-21.5 -4h-61q-25 0 -25 20v5 l78 225h-254l-82 -225q-4 -17 -8.5 -21t-18.5 -4h-63q-29 0 -29 16l1 3q1 3 1 6l80 225h-147q-21 0 -21 14zM416 354h258q37 120 112 316h-258q-37 -120 -112 -316z" />
<glyph unicode="&#xe02f;" horiz-adv-x="1171" d="M117 109l43 92q9 21 39 8q111 -48 215 -66q25 208 61 435q-115 51 -173 119t-58 163q0 139 85 223.5t230 102.5l19 135q4 19 11 24t27 5h27q25 0 30 -6t-1 -23l-209 -1485q-5 -18 -9.5 -22t-21.5 -4h-41q-14 0 -20 5t-2 21l24 158q-137 11 -268 82q-18 9 -8 33zM418 874 q0 -69 80 -122l39 266q-57 -16 -88 -56.5t-31 -87.5zM526 -170l209 1491q4 19 10.5 24t24.5 5h29q23 0 28 -5.5t0 -23.5l-18 -133q111 -19 205 -60q12 -5 13 -12t-5 -18l-37 -97q-9 -21 -29 -12q-93 32 -170 45l-53 -385q271 -113 271 -309q0 -151 -100.5 -240.5 t-262.5 -107.5l-23 -156q-6 -21 -11 -24q-5 -2 -19 -2h-35h-7q-10 0 -13.5 0.5t-5.5 5t-1 14.5zM662 145q72 12 119.5 59t47.5 107q0 55 -26 96t-94 74q-4 -29 -47 -336z" />
<glyph unicode="&#xe030;" horiz-adv-x="1171" d="M123 442q-5 8 0 25l6 45q2 19 7.5 25t27.5 6h723q12 0 17 -3t5.5 -10t-0.5 -18l-6 -45q-6 -25 -13 -29t-20 -4h-475q-8 -147 66.5 -226t240.5 -79q53 0 124.5 15.5t129.5 39.5q29 10 37 -10l35 -82q1 -5 1.5 -8.5t1 -6.5t-1 -6l-2 -4t-4 -3.5t-4.5 -3.5t-5.5 -3.5 t-5.5 -3.5q-127 -71 -349 -71q-215 0 -328.5 113t-101.5 339h-82q-19 0 -24 8zM152 670l6 49q1 2 2.5 8.5t2 7.5t2 5.5t3.5 5t5.5 2t8 2t11.5 0.5h75q49 211 191 326.5t338 115.5q157 0 295 -66q10 -6 12 -9.5t-2 -22.5l-37 -82q-8 -14 -14.5 -17t-24.5 2q-89 47 -221 47 q-153 0 -240 -77.5t-127 -216.5h475q20 0 25 -6.5t0 -24.5l-6 -49q-2 -18 -8 -24.5t-25 -6.5h-723q-19 0 -22.5 6t-1.5 25z" />
<glyph unicode="&#xe032;" horiz-adv-x="1171" d="M133 49v14q0 9 2 13q4 22 14.5 38.5t17 22t32.5 25.5q135 100 161 280q9 103 9 111h-140q-19 0 -24 8t0 25l8 57q2 18 8.5 24.5t24.5 6.5h125q0 20 -3 68.5t-3 72.5q0 182 108.5 273.5t290.5 91.5q72 0 149 -16t129 -44q11 -7 13.5 -13t-2.5 -24l-37 -79q-10 -26 -43 -11 q-88 37 -203 37q-76 0 -124.5 -16.5t-74 -53.5t-34.5 -83t-9 -117q0 -18 4 -49t5 -37h340q15 0 21 -3t6 -10t-1 -18l-8 -63q-1 -17 -8 -22t-27 -5h-323q-3 -53 -11 -102q-15 -95 -46 -173t-95 -137h545q20 0 25 -5t3 -23q-4 -24 -6 -37l-2.5 -17.5l-2.5 -17.5t-1 -10 q-2 -19 -7.5 -25t-27.5 -6h-731q-26 0 -38.5 13t-8.5 36z" />
<glyph unicode="&#xe033;" horiz-adv-x="1171" d="M231 422q0 258 123 418t324 168l22 149q4 17 10.5 22t20.5 5h37q16 0 20.5 -6t2.5 -21l-21 -149q102 -9 217 -62q8 -3 12 -6t3.5 -9t-2 -8.5t-5.5 -11.5l-34 -77q-10 -24 -39 -11q-84 38 -172 41q-62 -446 -95 -669q94 8 189 51q13 7 23.5 6.5t15.5 -12.5l32 -82 q10 -23 -16 -37q-113 -58 -264 -68l-21 -149q-1 -17 -6 -21t-22 -4h-39q-28 0 -25 25l23 149q-149 12 -231.5 105.5t-82.5 263.5zM399 424q0 -197 164 -227l99 669q-67 -10 -119.5 -54t-83 -108.5t-45.5 -136t-15 -143.5z" />
<glyph unicode="&#xe034;" horiz-adv-x="1171" d="M193 356l6 47q5 19 11 25t28 6h739q20 0 26 -7t1 -24l-7 -47q-5 -19 -11 -25.5t-25 -6.5h-293l-41 -295q-5 -19 -10.5 -24t-24.5 -5h-109q-19 0 -25.5 5.5t-2.5 23.5l41 295h-275q-22 0 -27.5 7t-0.5 25zM221 551l6 49q3 12 4 15t5 8.5t10 6.5t18 1h193 q-100 257 -189 516q-6 6 -0.5 15t21.5 9h110q15 0 21 -0.5t12.5 -5.5t9.5 -16l107 -305l65 -195h15l114 191l193 309q16 22 43 22h129q12 0 15 -9t-3 -15q-36 -58 -160 -249.5t-169 -266.5h215q20 0 24.5 -7t-0.5 -24l-4 -49q-5 -18 -11.5 -23.5t-25.5 -5.5h-741 q-20 0 -25.5 6t-1.5 23z" />
<glyph unicode="&#xe059;" horiz-adv-x="1611" d="M113 741q0 195 101 320t263 125q138 0 210.5 -76.5t72.5 -210.5q0 -121 -44.5 -222t-130.5 -162.5t-198 -61.5q-130 0 -202 76t-72 212zM250 745q0 -176 149 -176q59 0 104 29t69.5 77.5t36.5 101t12 108.5q0 79 -36.5 128.5t-117.5 49.5q-59 0 -103.5 -30t-68 -79 t-34.5 -101.5t-11 -107.5zM328 -16l893 1204q11 18 18.5 23.5t24.5 5.5h63q30 0 12 -29l-895 -1204q-12 -18 -21 -23.5t-26 -5.5h-57q-32 0 -12 29zM913 276q0 196 101.5 320.5t263.5 124.5q138 0 209.5 -76.5t71.5 -210.5q0 -121 -44 -222t-130 -162.5t-197 -61.5 q-130 0 -202.5 77t-72.5 211zM1051 281q0 -177 149 -177q59 0 103.5 29.5t69 77t36.5 100.5t12 109q0 178 -153 178q-59 0 -103.5 -30t-68 -78.5t-34.5 -101t-11 -107.5z" />
<glyph unicode="&#xe06c;" horiz-adv-x="768" d="M121 815q0 219 104 340t297 121q135 0 246 -29q27 -10 33.5 -23.5t-0.5 -31.5q-42 -258 -80 -571q-1 -16 -8 -23.5t-25 -15.5q-117 -50 -280 -50q-287 0 -287 283zM272 836q0 -92 43 -134.5t131 -42.5q80 0 138 19q24 211 65 455q-51 14 -137 14q-50 0 -91 -15.5 t-75.5 -50t-54 -97t-19.5 -148.5z" />
<glyph unicode="&#xe06d;" horiz-adv-x="768" d="M116 598q-2 7 1 18l123 881q6 33 32 33h86q18 0 23.5 -7t3.5 -26l-35 -244q94 23 174 23q269 0 269 -291q0 -207 -103 -330t-295 -123q-150 0 -260 48q-17 11 -19 18zM270 678q64 -19 140 -19q101 0 168 77t67 231q0 180 -153 180q-71 0 -160 -21z" />
<glyph unicode="&#xe06f;" horiz-adv-x="765" d="M123 811q0 222 103 344.5t294 122.5q78 0 144 -18l32 237q4 22 10.5 27.5t24.5 5.5h84q13 0 19 -1.5t10.5 -9t-0.5 -22.5l-123 -879q-3 -25 -31 -34q-126 -52 -289 -52q-148 0 -213 71.5t-65 207.5zM272 834q0 -94 43 -134.5t125 -40.5q80 0 144 21l61 450 q-70 19 -135 19q-47 0 -88 -16.5t-75.5 -52t-54.5 -98.5t-20 -148z" />
<glyph unicode="&#xe070;" horiz-adv-x="737" d="M131 797q0 122 30.5 216t84.5 150.5t122.5 84.5t149.5 28q129 0 186.5 -56t57.5 -130q0 -122 -93 -181t-280 -59q-78 0 -117 6q-4 -46 -4 -55q0 -72 37 -109t119 -37q49 0 158 37q19 7 22.5 6t11.5 -12l29 -68q12 -22 -18 -36q-107 -52 -230 -52q-266 0 -266 267z M291 965q23 -4 96 -4q132 0 186 26.5t54 85.5q0 35 -29 58.5t-90 23.5q-169 0 -217 -190z" />
<glyph unicode="&#xe073;" horiz-adv-x="770" d="M111 578l129 921q3 15 8.5 22t11 8t19.5 1h73q21 0 26.5 -4.5t4.5 -26.5l-35 -246q75 23 174 23q294 0 250 -322l-53 -376q-4 -22 -10.5 -26.5t-28.5 -4.5h-76q-15 0 -21.5 1t-10.5 8t-1 22l54 376q14 99 -20.5 146t-121.5 47q-91 0 -153 -21l-78 -548q-1 -22 -8.5 -26.5 t-28.5 -4.5h-74q-14 0 -20 1t-9.5 8t-0.5 22z" />
<glyph unicode="&#xe074;" horiz-adv-x="354" d="M131 567v8l92 654q3 15 8.5 22t11 8t19.5 1h76q14 0 19 -1t8.5 -6t3.5 -16v-8q-47 -313 -95 -654q-4 -22 -9 -25t-27 -3h-76h-6.5h-6t-5 0.5t-5 1t-3.5 2t-3 3.5t-1.5 5.5t-0.5 7.5zM231 1419q0 40 33 70.5t72 30.5q36 0 60 -22.5t24 -57.5q0 -41 -33.5 -72t-75.5 -31 q-35 0 -57.5 23.5t-22.5 58.5z" />
<glyph unicode="&#xe077;" horiz-adv-x="372" d="M129 664l119 815q4 18 10.5 22t26.5 4h80q21 0 25.5 -5t2.5 -21l-108 -766q-6 -25 -0.5 -38t28.5 -13q5 0 41 4q13 2 17.5 -1t5.5 -16l10 -65q2 -13 -2.5 -20t-22.5 -13q-56 -19 -112 -19q-71 0 -100 37t-21 95z" />
<glyph unicode="&#xe078;" horiz-adv-x="1218" d="M113.5 560q0.5 3 0.5 6.5t1 8.5l80 570q8 55 32.5 82t77.5 37q70 12 158 12q82 0 134.5 -15t88.5 -51q119 66 266 66q308 0 262 -332l-51 -369q-1 -5 -2 -8.5t-2 -6.5t-2.5 -5t-2.5 -3.5t-3.5 -2.5t-4 -1.5t-5 -0.5h-5h-7h-7.5h-73q-27 0 -30.5 6t-0.5 22l49 351 q17 116 -18 167.5t-134 51.5q-91 0 -161 -33q17 -57 0 -180l-49 -357q-1 -5 -2 -8.5t-1.5 -6.5t-2.5 -5t-2.5 -3.5t-3 -2.5t-3.5 -1.5t-5 -0.5h-5h-6.5h-7.5h-76q-27 0 -30.5 6t-0.5 22l51 357q13 107 -20 160t-141 53q-72 0 -113 -6l-80 -564q-4 -20 -9.5 -24t-21.5 -4h-6 h-74h-6.5h-6h-5t-4.5 0.5t-3.5 1.5t-3 2.5t-2 3.5t-1 5z" />
<glyph unicode="&#xe079;" horiz-adv-x="761" d="M121 811q0 216 110 339.5t271 123.5q141 0 212.5 -77.5t71.5 -225.5q0 -202 -107 -321.5t-271 -119.5q-137 0 -212 72.5t-75 208.5zM266 829q0 -174 154 -174q59 0 104.5 28.5t71 75t38.5 99.5t13 109q0 82 -36.5 132t-116.5 50q-109 0 -168.5 -93.5t-59.5 -226.5z" />
<glyph unicode="&#xe07c;" horiz-adv-x="565" d="M121 584l86 573q11 57 31.5 80t78.5 33q106 12 254 12q28 0 36.5 -6.5t2.5 -28.5l-16 -84q-2 -9 -4 -14.5t-7 -7.5t-7 -2.5t-11 0t-12 0.5q-118 11 -203 8l-88 -565q-5 -20 -11.5 -26.5t-25.5 -6.5h-73q-20 0 -27.5 6.5t-3.5 28.5z" />
<glyph unicode="&#xe07d;" horiz-adv-x="634" d="M86 608q-1 8 6 21l29 63q7 17 14.5 19t24.5 -6q93 -46 209 -46q62 0 99.5 24.5t37.5 70.5q0 33 -32 55t-109 51q-103 38 -150 83.5t-47 115.5q0 101 70.5 159t201.5 58q122 0 209 -41q26 -16 17 -33l-29 -78q-9 -15 -37 -6q-77 33 -168 33q-57 0 -88 -23t-31 -57 q0 -16 8.5 -29.5t36 -27.5t40.5 -19.5t59 -22.5q12 -5 18 -7q83 -36 128.5 -80.5t45.5 -122.5q0 -115 -80.5 -172.5t-206.5 -57.5q-147 0 -258 60q-17 10 -18 16z" />
<glyph unicode="&#xe07e;" horiz-adv-x="505" d="M125 1167l6 43q5 17 10.5 23t24.5 10q3 0 49.5 12.5t48.5 12.5q0 4 16.5 54.5t16.5 55.5q6 18 13.5 25.5t25.5 13.5l55 17q14 6 24 0.5t9 -21.5l-23 -151h140q12 0 17 -3t5.5 -10t-0.5 -18l-8 -57q-5 -20 -10 -26.5t-21 -6.5h-139q-4 -17 -28.5 -201.5t-28.5 -202.5 q-5 -40 8.5 -56.5t56.5 -16.5q49 0 90 8q23 4 26.5 2.5t8.5 -19.5l14 -65q0 -10 -1 -15t-7 -11t-18 -11q-64 -21 -150 -21q-112 0 -150 46t-24 149q0 23 26 206.5t32 207.5h-95q-23 0 -20 26z" />
<glyph unicode="&#xe0d8;" horiz-adv-x="575" d="M92 582q0 537 498 964q14 14 35 4l51 -47q13 -11 -2 -26q-387 -399 -387 -889q0 -375 178 -615q9 -14 -4 -22l-62 -47q-13 -9 -18 -8t-14 10q-275 304 -275 676z" />
<glyph unicode="&#xe0d9;" horiz-adv-x="583" d="M2 -51q-15 9 2 26q387 399 387 889q0 372 -180 615q-9 14 4 24l66 45q15 10 30 -2q275 -311 275 -676q0 -529 -498 -964q-20 -20 -35 -4z" />
<glyph unicode="&#xe0da;" horiz-adv-x="655" d="M78 578l20 139q2 18 8.5 25.5t24.5 7.5h461q16 0 21 -7.5t3 -25.5l-22 -139q-2 -19 -7.5 -26t-23.5 -7h-459q-20 0 -25.5 7.5t-0.5 25.5z" />
<glyph unicode="&#xe0db;" horiz-adv-x="612" d="M57 -80l222 1583q4 14 6.5 19.5t9 9.5t18.5 4h373q18 0 23 -8t0 -25l-9 -73q-5 -19 -10.5 -25t-23.5 -6h-230l-194 -1374h231q17 0 22 -6.5t3 -24.5l-13 -74q-2 -19 -8 -27t-24 -8h-371q-18 0 -22.5 8t-2.5 27z" />
<glyph unicode="&#xe0dc;" horiz-adv-x="612" d="M27 -80l12 74q4 14 6 19t8.5 8.5t18.5 3.5h229l193 1374h-228q-19 0 -23.5 6t-2.5 25l10 73q5 19 11.5 26t23.5 7h372q18 0 23 -8t0 -25l-223 -1583q-2 -19 -8.5 -27t-24.5 -8h-371q-19 0 -23.5 8t-2.5 27z" />
<glyph unicode="&#xe0dd;" horiz-adv-x="702" d="M150 696l12 82q2 14 6.5 19.5t21.5 9.5q61 12 94 59t46 144l26 207q25 183 106.5 259t260.5 72q21 0 18 -16l-14 -100q-3 -23 -25 -23q-146 0 -165 -152l-35 -251q-13 -96 -58.5 -165t-113.5 -100l-2 -8q123 -67 98 -258l-45 -321q-4 -43 0 -74.5t33.5 -54t89.5 -33.5 q14 -5 16.5 -8t1.5 -13l-14 -100q-3 -16 -21 -16q-144 5 -220.5 83t-53.5 244l39 283q13 98 -6.5 144.5t-79.5 60.5q-11 5 -14 9t-2 17z" />
<glyph unicode="&#xe0de;" horiz-adv-x="702" d="M39 -121l12 101q3 22 25 22q86 4 122.5 46t45.5 114l43 315q13 94 59.5 159.5t112.5 96.5v8q-57 31 -84.5 95.5t-14.5 160.5l37 256q9 70 -15 110t-108 56q-12 5 -14.5 8t-1.5 13l14 100q3 16 21 16q142 -5 218.5 -86t53.5 -251l-30 -209q-13 -98 7.5 -145t78.5 -58 q1 -1 4 -2t4 -1.5l3 -1.5t3 -2t2 -2.5t1.5 -3t1 -4t0 -5.5t-0.5 -7l-12 -82q-1 -13 -6 -17t-23 -9q-61 -14 -93.5 -61t-45.5 -144l-37 -270q-25 -183 -106 -259.5t-261 -72.5q-19 0 -16 16z" />
<glyph unicode="&#xe0df;" horiz-adv-x="993" d="M77.5 600q-4.5 8 0.5 25l12 98q5 19 11.5 26t23.5 7h831q34 0 25 -33l-12 -98q-5 -19 -11.5 -26t-23.5 -7h-834q-18 0 -22.5 8z" />
<glyph unicode="&#xe0e0;" horiz-adv-x="1986" d="M72 625l12 98q5 19 11.5 26t23.5 7h1839q18 0 22.5 -8t-0.5 -25l-12 -98q-5 -19 -11.5 -26t-23.5 -7h-1837q-18 0 -22 7t-2 26z" />
<glyph unicode="&#xe0e3;" horiz-adv-x="960" d="M141 561q1 15 7.5 29t20 32.5t15.5 22.5l238 322q14 20 28 28.5t44 8.5h98q19 0 22.5 -12t-8.5 -29l-293 -406l189 -393q12 -39 -31 -39h-102q-19 0 -31 5.5t-15.5 10.5t-13.5 21l-151 321q-23 54 -17 78zM465 561q2 12 7.5 24.5t10.5 20.5t13.5 21t11.5 18l237 322 q14 20 28 28.5t42 8.5h98q20 0 24 -12t-7 -29l-293 -406l188 -393q6 -18 -2.5 -28.5t-27.5 -10.5h-103q-20 0 -31.5 5t-16.5 11.5t-11 20.5l-152 321q-23 52 -16 78z" />
<glyph unicode="&#xe0e4;" horiz-adv-x="960" d="M50.5 135q-4.5 10 8.5 29l297 395l-178 404q-7 17 1.5 29t27.5 12h100q27 0 38 -8.5t20 -28.5l147 -322q2 -4 7.5 -17.5t7 -20t4.5 -22t-1 -24.5q-11 -41 -38 -76l-244 -323q-12 -19 -26.5 -28t-43.5 -9h-104q-19 0 -23.5 10zM377 135q-4 10 8 29l297 395l-180 404 q-5 18 3.5 29.5t26.5 11.5h99q8 0 14 -1t10.5 -1.5t8.5 -3.5t6.5 -4t6 -5.5t4 -5.5t4.5 -8t5 -8l146 -322q2 -4 7.5 -17.5t7 -20t4.5 -22t-1 -24.5q-10 -39 -39 -76l-242 -323q-12 -19 -27 -28t-44 -9h-103q-18 0 -22 10z" />
<glyph unicode="&#xe0fb;" horiz-adv-x="1226" d="M109 211q0 126 85.5 235.5t219.5 184.5q-76 110 -76 227q0 131 78 207t213 76q113 0 179 -60t66 -163q0 -102 -69 -184.5t-178 -141.5q80 -120 127 -186q157 217 368 249q11 4 18 1.5t11 -23.5l12 -70q4 -14 0.5 -18.5t-20.5 -9.5q-105 -23 -177.5 -87t-131.5 -161 l194 -258q3 -6 4 -12t-3 -11.5t-15 -5.5h-127q-37 0 -51 20l-103 138q-166 -176 -364 -176q-127 0 -193.5 59.5t-66.5 169.5zM266 240q0 -117 137 -117q59 0 127.5 40t124.5 107q-56 79 -166 248q-223 -130 -223 -278zM489 870q0 -73 64 -170q176 100 176 209 q0 42 -24.5 69.5t-75.5 27.5q-60 0 -100 -38t-40 -98z" />
<glyph unicode="&#xe0fc;" horiz-adv-x="481" d="M82 84q0 54 39.5 92.5t93.5 38.5q47 0 77 -29t30 -71q0 -53 -41.5 -91t-96.5 -38q-44 0 -73 27.5t-29 70.5zM174 344l74 739q3 39 35 39h125q36 0 22 -41l-139 -743q-4 -18 -10.5 -21.5t-28.5 -3.5h-49q-21 0 -26 7.5t-3 23.5z" />
<glyph unicode="&#xe0fd;" horiz-adv-x="894" d="M182 983q-12 21 19 43q75 51 172.5 80t171.5 29q153 0 242.5 -64t89.5 -188q0 -33 -8 -64.5t-18 -55t-32 -51.5t-36.5 -44t-45.5 -42.5t-45 -37.5t-49 -37q-10 -8 -35.5 -26t-36.5 -27t-31 -25.5t-30 -28t-22.5 -27t-18.5 -31t-8 -32.5l-6 -47q-1 -12 -2.5 -16.5 t-8.5 -9.5t-22 -5h-100q-16 0 -20.5 5.5t-4.5 17.5l10 59q8 47 28.5 87.5t55.5 76.5t63 59.5t74 57.5q83 56 133 109.5t50 115.5q0 51 -42 87t-134 36q-59 0 -129.5 -22t-131.5 -58q-31 -20 -41 -2zM223 84q0 57 43 99t103 42q36 0 70 -25t34 -75q0 -59 -41.5 -101 t-99.5 -42q-47 0 -78 29t-31 73z" />
<glyph unicode="&#xe0fe;" horiz-adv-x="1046" d="M-8.5 10q-6.5 10 0.5 29l510 1022q20 37 40.5 51.5t61.5 15.5h51q44 0 59 -14t27 -53l220 -1022q4 -17 -5.5 -28t-27.5 -11h-103q-26 0 -34.5 4.5t-12.5 26.5l-45 225h-436q-3 -7 -54.5 -111t-54.5 -114q-10 -13 -13.5 -17t-13 -9t-22.5 -5h-123q-18 0 -24.5 10zM362 406 h340l-53 303q-3 6 -20.5 107.5t-20.5 109.5h-8q-3 -9 -46.5 -104.5t-51.5 -110.5z" />
<glyph unicode="&#xe0ff;" horiz-adv-x="1089" d="M96 90l133 944q12 94 107 94h373q136 0 217.5 -62t81.5 -187q0 -94 -45 -158.5t-121 -95.5l-2 -7q145 -55 145 -243q0 -165 -119.5 -270t-290.5 -105h-397q-97 0 -82 90zM279 156h286q69 0 120 23.5t77 60t37.5 72.5t11.5 71q0 72 -49 115t-144 43h-286zM352 680h297 q25 0 52.5 8.5t57 26.5t49 54.5t19.5 84.5q0 55 -36 86t-101 31h-297z" />
<glyph unicode="&#xe100;" horiz-adv-x="1013" d="M127 543q30 267 181.5 432.5t377.5 165.5q180 0 305 -66q14 -9 16.5 -16t-6.5 -33l-36 -80q-12 -22 -50 -12q-100 47 -221 47q-113 0 -200.5 -67t-134 -167.5t-58.5 -218.5q-13 -79 -2 -149.5t41 -123t94 -83.5t156 -31q116 0 260 58q24 9 32 7.5t13 -13.5l35 -80 q9 -26 4.5 -36t-23.5 -22q-145 -73 -362 -73q-231 0 -342.5 142t-79.5 419z" />
<glyph unicode="&#xe101;" horiz-adv-x="1140" d="M98 90l131 944q8 48 33.5 71t75.5 23h289q223 0 331.5 -121.5t108.5 -344.5q0 -301 -154 -481.5t-430 -180.5h-303q-97 0 -82 90zM281 156h206q105 0 184.5 40t127 111.5t71 162.5t23.5 200q0 301 -297 301h-199z" />
<glyph unicode="&#xe102;" horiz-adv-x="983" d="M121.5 174q-9.5 51 1.5 107l78 563q9 59 29.5 107t56 88.5t92 63.5t129.5 23h444q25 0 30.5 -11t0.5 -36l-10 -67q-2 -24 -10 -32.5t-33 -8.5h-426q-59 0 -88.5 -26t-40.5 -81l-27 -194h502q25 0 30.5 -9t0.5 -34l-9 -60q-4 -19 -6.5 -26.5t-11 -13t-25.5 -5.5h-501 l-37 -262q-13 -104 98 -104h473q24 0 30 -9.5t1 -35.5l-10 -66q-2 -26 -9 -35.5t-32 -9.5h-473q-79 0 -133.5 23t-79.5 61.5t-34.5 89.5z" />
<glyph unicode="&#xe103;" horiz-adv-x="966" d="M87.5 16.5q-1.5 8.5 0.5 22.5l113 805q9 61 27.5 107t52 88t91 64.5t136.5 22.5h455q23 0 27.5 -12t-1.5 -35l-8 -65q-5 -26 -11.5 -34.5t-29.5 -8.5h-436q-112 0 -127 -107l-31 -207h500q24 0 29 -9.5t-1 -35.5l-8 -59q-6 -33 -14 -39q-9 -6 -27 -6h-499l-68 -469 q-1 -19 -6.5 -27.5t-13.5 -10t-29 -1.5h-80q-13 0 -19 0.5t-13.5 4t-9 12z" />
<glyph unicode="&#xe104;" horiz-adv-x="1091" d="M117 440q0 207 74.5 367t206 247t298.5 87q187 0 312 -66q22 -13 8 -45l-35 -80q-9 -28 -47 -16q-109 47 -232 47q-83 0 -152 -31t-115.5 -83t-78.5 -122t-46.5 -146.5t-14.5 -158.5q0 -142 66.5 -219.5t222.5 -77.5q121 0 200 29l56 381q4 26 12.5 32.5t32.5 6.5h92 q29 0 35 -7t2 -36l-62 -436q-6 -36 -37 -54q-82 -43 -182 -60t-178 -17q-438 0 -438 458z" />
<glyph unicode="&#xe105;" horiz-adv-x="1159" d="M90 33l148 1059q4 21 13 26.5t30 5.5h100q23 0 30 -5t3 -27l-60 -426h539l59 426q4 22 12 27t33 5h95q24 0 29 -5t1 -27l-147 -1059q-4 -23 -10.5 -28t-30.5 -5h-94q-26 0 -33.5 5.5t-3.5 27.5l67 485h-538l-68 -485q-4 -22 -11.5 -27.5t-29.5 -5.5h-100q-15 0 -21.5 1.5 t-10.5 9t-1 22.5z" />
<glyph unicode="&#xe106;" horiz-adv-x="477" d="M104 31l150 1061q4 22 12 27t29 5h96q42 0 33 -37l-148 -1056q-4 -22 -11 -26.5t-29 -4.5h-99q-15 0 -21.5 1t-10.5 8t-1 22z" />
<glyph unicode="&#xe107;" horiz-adv-x="960" d="M21 92q1 11 12 27l39 74q10 16 21 17.5t28 -7.5q112 -66 237 -66q76 0 130 19.5t87.5 61t52 95t29.5 131.5l91 648q4 22 11.5 27t28.5 5h95q23 0 29.5 -5t2.5 -27l-92 -654q-13 -88 -31 -152t-52 -124.5t-83.5 -97.5t-125.5 -59.5t-177 -22.5q-75 0 -162.5 21.5 t-154.5 62.5q-9 7 -13 11t-3 15z" />
<glyph unicode="&#xe108;" horiz-adv-x="1069" d="M90 33l148 1059q4 21 13 26.5t30 5.5h94q23 0 30 -5t3 -27l-76 -535l6 -2l166 178l342 361q30 30 72 30h116q24 0 28.5 -14t-13.5 -31q-9 -9 -176.5 -181t-176.5 -181l291 -672q15 -45 -29 -45h-88q-32 0 -42.5 4.5t-20.5 26.5l-236 557q-122 -128 -274 -283l-39 -272 q-1 -22 -8.5 -27.5t-32.5 -5.5h-94q-15 0 -21.5 1.5t-10.5 9t-1 22.5z" />
<glyph unicode="&#xe109;" horiz-adv-x="940" d="M123 281l113 811q4 23 14 29.5t31 6.5h92q25 0 32 -6t3 -30l-115 -820q-18 -116 102 -116h449q21 0 25.5 -7.5t2.5 -29.5l-12 -78q-3 -16 -4 -20t-5 -11t-10 -8.5t-18 -1.5h-458q-149 0 -205 78.5t-37 202.5z" />
<glyph unicode="&#xe10a;" horiz-adv-x="1359" d="M92 31l139 1007q6 44 30 66t75 22h43q42 0 61.5 -17t32.5 -67q3 -10 65 -251.5t70 -266.5q3 -8 30 -112.5t30 -112.5h8q5 8 59.5 112.5t59.5 112.5q17 28 146 269.5t142 261.5q25 43 47.5 57t63.5 14h43q52 0 66.5 -21t9.5 -67l-142 -1007q-4 -22 -10.5 -26.5t-27.5 -4.5 h-91q-26 0 -32 4.5t-2 26.5l108 774h-6q-73 -142 -129 -236q-6 -14 -102 -191.5t-103 -184.5q-24 -39 -43.5 -51.5t-60.5 -12.5h-54q-41 0 -56.5 12.5t-26.5 51.5q-8 24 -59.5 214.5t-59.5 213.5l-45 172h-6l-107 -762q-4 -22 -11 -26.5t-32 -4.5h-90q-15 0 -21.5 1t-10.5 8 t-1 22z" />
<glyph unicode="&#xe10b;" horiz-adv-x="1165" d="M90 31l141 1003q6 48 28.5 70t64.5 22h53q38 0 53 -13.5t35 -53.5q28 -58 155.5 -327t127.5 -273q2 -5 44 -99.5t44 -99.5h8l117 832q4 23 11.5 28.5t28.5 5.5h97q21 0 26.5 -5.5t1.5 -28.5l-141 -1002q-5 -46 -25.5 -68t-66.5 -22h-49q-38 0 -53.5 13.5t-36.5 54.5 q-289 609 -289 612q-3 9 -40.5 93.5t-41.5 92.5h-8l-117 -835q-4 -22 -11.5 -26.5t-29.5 -4.5h-94q-15 0 -21.5 1t-10.5 8t-1 22z" />
<glyph unicode="&#xe10c;" horiz-adv-x="1187" d="M123 426q0 168 45.5 305t123.5 226.5t181.5 137.5t220.5 48q207 0 315.5 -118.5t108.5 -336.5q0 -329 -156 -517.5t-421 -188.5q-418 0 -418 444zM293 432q0 -142 61.5 -219.5t202.5 -77.5q83 0 150.5 33t111 87.5t73 127t42 147.5t12.5 154q0 303 -262 303 q-95 0 -171.5 -47t-123.5 -126t-71.5 -177t-24.5 -205z" />
<glyph unicode="&#xe10d;" horiz-adv-x="1026" d="M88 33l141 1001q12 94 107 94h371q147 0 229 -82.5t82 -220.5q0 -47 -10.5 -94.5t-40 -101t-74 -94t-119.5 -67t-170 -26.5h-289l-59 -409q-1 -22 -9 -27.5t-30 -5.5h-94q-15 0 -22 1.5t-11.5 9t-1.5 22.5zM338 592h276q108 0 168 59.5t60 159.5q0 66 -41.5 112 t-136.5 46h-273z" />
<glyph unicode="&#xe10e;" horiz-adv-x="1187" d="M123 426q0 168 45.5 305t123.5 226.5t181.5 137.5t220.5 48q207 0 315.5 -118.5t108.5 -336.5q0 -329 -156 -517.5t-421 -188.5q-418 0 -418 444zM293 432q0 -142 61.5 -219.5t202.5 -77.5q83 0 150.5 33t111 87.5t73 127t42 147.5t12.5 154q0 303 -262 303 q-95 0 -171.5 -47t-123.5 -126t-71.5 -177t-24.5 -205zM443.5 -241q-5.5 9 0.5 28l13 80q6 28 13 32q8 5 24 5h178q119 0 216 -28.5t150 -68.5q17 -11 19 -21t-10 -30l-43 -69q-12 -17 -23.5 -18.5t-34.5 9.5q-124 72 -332 72h-143q-22 0 -27.5 9z" />
<glyph unicode="&#xe10f;" horiz-adv-x="1060" d="M88 33l141 1001q12 94 107 94h381q139 0 217 -74.5t78 -199.5q0 -99 -55.5 -187.5t-151.5 -123.5l-2 -8q36 -16 58 -43t29.5 -50.5t16.5 -66.5l47 -330q6 -15 -1 -30t-31 -15h-105h-7h-7.5t-6.5 2t-7 5t-5 10t-4 16l-43 297q-11 80 -61 111.5t-133 31.5h-219l-62 -440 q-4 -22 -11 -27.5t-28 -5.5h-100q-15 0 -22 1.5t-11.5 9t-1.5 22.5zM346 623h266q106 0 166 58t60 146q0 60 -39.5 101t-126.5 41h-277z" />
<glyph unicode="&#xe110;" horiz-adv-x="968" d="M60.5 88q-0.5 10 7.5 25q1 3 2 4l45 84q8 23 26 12q163 -78 338 -78q120 0 182 50t62 132q0 60 -57 104.5t-174 88.5q-165 66 -240.5 134.5t-75.5 176.5q0 145 108.5 233.5t297.5 88.5q168 0 315 -66q13 -4 15.5 -12t-3.5 -27l-30 -80q-7 -16 -16 -21.5t-16.5 -4.5 t-21.5 6q-131 45 -256 45q-101 0 -157 -42t-56 -107q0 -16 3 -29t12.5 -26t17 -22t27.5 -21.5t32 -19.5t42 -20.5t46.5 -20.5t55.5 -24q71 -29 119.5 -54.5t96 -64t71.5 -89.5t24 -115q0 -113 -58.5 -192.5t-154 -116.5t-217.5 -37q-245 0 -397 90q-15 6 -15.5 16z" />
<glyph unicode="&#xe111;" horiz-adv-x="931" d="M125 1008l12 77q4 16 6 22t10 11.5t23 5.5h793q15 0 21 -4.5t6 -13t-1 -21.5l-12 -77q-2 -20 -8.5 -27.5t-28.5 -7.5h-315l-131 -940q-4 -22 -11 -27.5t-28 -5.5h-99q-25 0 -32.5 5.5t-3.5 27.5l133 940h-303q-23 0 -28 7t-3 28z" />
<glyph unicode="&#xe112;" horiz-adv-x="1148" d="M152 487l84 605q4 21 11 26.5t23 5.5h117q11 0 16 -1.5t9.5 -8.5t-0.5 -22l-84 -598q-17 -123 -8.5 -202.5t75.5 -118t213 -38.5q105 0 203 17l133 940q4 23 9 27.5t24 4.5h113q18 0 22 -5t0 -27l-131 -940q-11 -67 -44.5 -103t-107.5 -49q-103 -18 -251 -18 q-185 0 -284.5 46t-134.5 156t-7 303z" />
<glyph unicode="&#xe113;" horiz-adv-x="1064" d="M145 1087q-5 17 3.5 28t27.5 11h113q12 0 19 -4.5t9.5 -9t6.5 -14.5l116 -574q1 -5 31 -166t33 -170h8l152 328l276 576q3 7 6 12.5t5.5 9t6.5 6t6 4t7 2t7 0.5h8.5h8.5h109q20 0 23.5 -8.5t-7.5 -27.5l-504 -1022q-21 -38 -40 -52.5t-54 -15.5h-71q-39 0 -58 14t-26 54z " />
<glyph unicode="&#xe114;" horiz-adv-x="1396" d="M145 1090q-4 34 31 34h113q34 0 37 -24q3 -85 12 -263.5t12 -269.5l12 -362h7q6 19 25.5 76.5t44.5 129.5t57 160l174 473q27 80 100 80h74q38 0 52 -18.5t19 -58.5l39 -492q23 -308 25 -334h8q26 74 58.5 176.5t56.5 173.5l172 527q9 26 45 26h111q31 0 18 -34 q-65 -180 -184 -521.5t-177 -502.5q-16 -39 -39.5 -52.5t-64.5 -13.5h-68q-36 0 -51 17t-20 55q-7 99 -22.5 301.5t-22.5 300.5q-3 38 -8 126.5t-9 145.5h-8q-27 -81 -94 -268q-36 -99 -106.5 -300.5t-106.5 -299.5q-29 -78 -92 -78h-76q-41 0 -58 16.5t-22 59.5z" />
<glyph unicode="&#xe115;" horiz-adv-x="952" d="M-19 10.5q-5 10.5 11 30.5l411 537q-36 78 -124.5 262.5t-116.5 244.5q-7 13 1 27t27 14h107q21 0 30.5 -5.5t16.5 -22.5q29 -64 94.5 -214.5t77.5 -176.5l289 391q10 17 21 22.5t34 5.5h119q21 0 26 -10t-10 -33l-387 -501l266 -541q6 -14 -1 -27.5t-25 -13.5h-111 q-23 0 -32 5.5t-17 23.5l-190 417l-312 -415q-13 -18 -24 -24.5t-33 -6.5h-123q-20 0 -25 10.5z" />
<glyph unicode="&#xe116;" horiz-adv-x="956" d="M137 1087q-5 13 3 26t24 13h108q18 0 24.5 -5t14.5 -23l107 -262l88 -234h8q5 10 78.5 126t79.5 122l168 250q17 26 45 26h123q17 0 20 -13t-6 -23l-447 -639l-57 -418q-4 -22 -11 -27.5t-28 -5.5h-94q-20 0 -27 5.5t-6 27.5l60 416q-8 17 -137.5 319t-137.5 319z" />
<glyph unicode="&#xe117;" horiz-adv-x="1028" d="M20 74l3 16q7 62 63 121q131 131 371.5 377t369.5 381l-4 6h-565q-19 0 -23 8.5t1 28.5l10 73q5 24 10.5 31.5t24.5 7.5h680q48 0 65.5 -19.5t11.5 -66.5l-4 -24q-7 -48 -61 -105q-45 -45 -368 -378t-369 -379q2 -2 2 -7h653q23 0 27.5 -6.5t-0.5 -29.5l-11 -72 q-1 -3 -2 -8l-1.5 -7.5t-1.5 -6t-2 -5t-2.5 -4t-4 -3t-5.5 -1.5t-7 -1.5t-9 -0.5h-776q-45 0 -63.5 17t-12.5 57z" />
<glyph unicode="&#xe119;" horiz-adv-x="1513" d="M162 430q0 328 152 520.5t401 192.5q138 0 223 -49q60 32 147 32h418q22 0 26.5 -10t-1.5 -29l-10 -79q-6 -29 -11 -33q-6 -4 -24 -4h-408q-62 0 -94 -27t-43 -88l-27 -186h484q23 0 27 -7t-1 -30l-8 -74q-1 -2 -2 -7.5t-1.5 -7.5t-2 -6t-2.5 -5.5l-3 -4.5t-4 -3.5 t-5.5 -2t-7.5 -2t-9 -0.5h-483l-39 -252q-11 -112 104 -112h437q22 0 27 -9t-1 -28l-12 -80q-1 -4 -2.5 -12t-2 -10.5t-2.5 -7t-5 -6t-8 -2.5t-13 -1h-448q-84 0 -140 29q-106 -47 -219 -47q-407 0 -407 448zM332 440q0 -305 258 -305q75 0 102 12q-15 60 -4 127l78 572 q13 68 41 123q-31 14 -96 14q-120 0 -207.5 -75.5t-129.5 -196.5t-42 -271z" />
<glyph unicode="&#xe122;" horiz-adv-x="1429" d="M-1.5 11.5q-5.5 11.5 1.5 23.5l442 903q47 97 120.5 141.5t185.5 44.5h651q22 0 26 -11t0 -28l-10 -79q-6 -25 -13 -29q-8 -4 -24 -4h-389q-119 0 -137 -115l-27 -190h469q16 0 22.5 -4.5t6 -12.5t-1.5 -20l-8 -72q-2 -22 -8.5 -30.5t-28.5 -8.5h-471l-37 -254 q-14 -112 104 -112h424q22 0 27.5 -9t-0.5 -28l-12 -80q-1 -3 -2 -8l-1.5 -7.5t-1.5 -6t-2 -5t-2.5 -4t-4 -3t-5.5 -1.5t-7 -1.5t-9 -0.5h-432q-244 0 -244 223q0 7 1 17.5t1 17.5h-315q-83 -171 -111 -231q-17 -27 -41 -27h-115q-16 0 -21.5 11.5zM348 397h275 q11 75 30.5 223.5t30.5 223.5q13 79 39 133q-83 -3 -125 -70q-31 -55 -88 -180l-81 -165z" />
<glyph unicode="&#xe23f;" horiz-adv-x="1171" d="M96 510q0 181 40.5 341t115.5 282.5t192.5 194t262.5 71.5q232 0 344 -140.5t112 -398.5q0 -259 -71.5 -457t-214.5 -312t-340 -114q-221 0 -331 138.5t-110 394.5zM268 508q0 -124 35 -207l594 870q-64 76 -190 76q-94 0 -170.5 -48t-125.5 -124t-82 -175.5t-47 -197.5 t-14 -194zM346 217q77 -90 205 -90q94 0 170.5 47.5t125 123t81.5 173.5t47 195t14 192q0 146 -43 238z" />
<glyph unicode="&#xe2d0;" horiz-adv-x="759" d="M106 862q0 232 109.5 379.5t296.5 147.5q158 0 233.5 -89.5t75.5 -250.5q0 -233 -107.5 -373.5t-303.5 -140.5q-148 0 -226 86t-78 241zM260 868q0 -213 166 -213q55 0 99 25.5t71.5 66.5t46 94t26 105.5t7.5 104.5q0 215 -168 215q-67 0 -117.5 -38t-77.5 -99.5 t-40 -127.5t-13 -133z" />
<glyph unicode="&#xe2d1;" horiz-adv-x="759" d="M178 554.5q-5 7.5 0 27.5l8 63q2 19 9 25t30 6h131l80 561l-135 -25q-16 -2 -23.5 3.5t-3.5 23.5l7 55l4 16t4.5 10t9 9t14.5 6l197 49q37 13 63.5 0.5t20.5 -51.5l-92 -657h135q23 0 29 -6t2 -25l-9 -63q-5 -22 -12 -28.5t-29 -6.5h-413q-22 0 -27 7.5z" />
<glyph unicode="&#xe2d2;" horiz-adv-x="759" d="M100 627q0 47 36.5 103.5t93.5 107.5t117.5 94t117.5 74q99 56 133.5 86.5t34.5 76.5q0 42 -36.5 65t-100.5 23q-95 0 -201 -59q-4 -2 -12.5 -6t-11.5 -5t-9 -1.5t-10 2.5t-8 10l-39 64q-9 28 18 47q62 38 139 61t146 23q123 0 197.5 -50.5t74.5 -150.5q0 -29 -4.5 -55 t-17.5 -49.5t-23.5 -40.5t-34 -37.5t-37 -31.5t-46 -31t-46 -27.5t-51.5 -28.5q-122 -73 -168 -112q-58 -49 -86 -103h414q23 0 27.5 -9t-0.5 -22l-9 -65q-5 -33 -34 -33h-469q-95 0 -95 80z" />
<glyph unicode="&#xe2d3;" horiz-adv-x="759" d="M86 639q0 8 6 14q26 43 41 62q9 12 19 12q3 0 26 -10q87 -55 199 -55q98 0 150.5 43t52.5 108q0 47 -41 79t-119 32h-45q-26 0 -34 6.5t-3 25.5l10 64q5 18 12.5 24.5t26.5 6.5h41q76 0 121 32t45 88q0 46 -38.5 66t-96.5 20q-92 0 -199 -47q-28 -12 -37 -12q-8 0 -14 12 l-31 66l-4 16q0 13 21 25q124 72 292 72q110 0 184 -53t74 -142q0 -66 -34 -118t-95 -83q0 -1 -1 -2t-1 -2v-2q56 -20 84.5 -65.5t28.5 -108.5q0 -118 -98 -198t-250 -80q-176 0 -279 79q-14 11 -14 25z" />
<glyph unicode="&#xe2d4;" horiz-adv-x="759" d="M78 786l4 25q8 40 39 74l438 454q17 19 26 27.5t26.5 17.5t35.5 9h43q38 0 53 -16.5t9 -53.5l-66 -473h78q16 0 22.5 -4.5t6 -12.5t-1.5 -20l-7 -51q-1 -2 -2 -7.5t-1.5 -7.5t-2 -6t-3 -5.5t-4 -3.5t-5.5 -3t-7.5 -1.5t-10.5 -0.5h-80l-23 -147q-1 -22 -10 -27.5 t-31 -5.5h-72q-21 0 -27.5 5.5t-2.5 27.5l20 145h-383q-32 0 -49 12t-12 49zM274 858l2 -8h265l49 340h-2q-2 0 -4 2q-137 -151 -310 -334z" />
<glyph unicode="&#xe2d5;" horiz-adv-x="759" d="M104 645l41 70q17 19 41 4q98 -55 211 -55q102 0 163 43.5t61 126.5q0 58 -43.5 87t-110.5 29q-87 0 -182 -37q-6 -2 -17 -6.5t-15.5 -5.5t-12 -3t-12 -1.5t-10.5 2t-13 4.5l-33 15q-32 17 -22 61l79 324q8 36 33.5 55.5t61.5 15.5h421q17 0 22 -6.5t3 -24.5l-8 -65 q-4 -19 -12 -25t-25 -6h-371l-47 -196q75 26 187 26q123 0 195.5 -63t72.5 -172q0 -145 -102.5 -227.5t-266.5 -82.5q-152 0 -280 78q-23 16 -9 35z" />
<glyph unicode="&#xe2d6;" horiz-adv-x="759" d="M113 852q0 113 29.5 209.5t86 171.5t148 117.5t207.5 42.5q81 0 151 -23q15 -5 19 -11t0 -22l-17 -61q-5 -18 -12 -22.5t-29 -0.5q-10 2 -35 6.5t-42 6.5t-35 2q-119 0 -189 -56.5t-104 -162.5q108 24 219 24q130 0 206.5 -56.5t76.5 -170.5q0 -66 -22 -120t-59 -89 t-86 -58.5t-100.5 -33.5t-105.5 -10q-153 0 -230 82.5t-77 234.5zM256 842q0 -87 46 -135t138 -48q88 0 145.5 46t57.5 124q0 52 -38 84.5t-113 32.5q-103 0 -230 -31q-6 -43 -6 -73z" />
<glyph unicode="&#xe2d7;" horiz-adv-x="759" d="M162 588l473 659h-436q-33 0 -27 33l8 66q2 12 4 17.5t9.5 8t9 2.5h16.5h533q33 0 47 -11t10 -44l-4 -33q-9 -38 -27 -65l-456 -648q-23 -26 -50 -26h-94q-46 0 -16 41z" />
<glyph unicode="&#xe2d8;" horiz-adv-x="759" d="M104 752q0 75 44.5 143t119.5 98v4q-75 34 -75 131q0 122 96.5 193.5t232.5 71.5q125 0 194.5 -54.5t69.5 -142.5q0 -25 -5.5 -50t-18.5 -53t-39.5 -53.5t-63.5 -42.5l3 -4q102 -41 102 -170q0 -46 -18 -93t-56.5 -92.5t-110.5 -74t-167 -28.5q-153 0 -230.5 60 t-77.5 157zM256 774q0 -51 39.5 -84t122.5 -33q100 0 151.5 49.5t51.5 112.5q0 55 -47.5 86t-116.5 31q-76 0 -138.5 -44t-62.5 -118zM338 1143q0 -42 38.5 -69t96.5 -27q73 0 119.5 34t46.5 90q0 44 -35.5 70.5t-99.5 26.5q-73 0 -119.5 -36.5t-46.5 -88.5z" />
<glyph unicode="&#xe2d9;" horiz-adv-x="759" d="M133 1083q0 82 32.5 144.5t86.5 98t116.5 52.5t131.5 17q153 0 233 -83.5t80 -234.5q0 -113 -29.5 -209.5t-86 -171t-148 -117t-207.5 -42.5q-85 0 -152 22q-15 5 -18.5 11t0.5 22l18 61q5 18 12 22.5t29 0.5q91 -14 113 -14q223 0 291 219q-113 -25 -217 -25 q-131 0 -208 56.5t-77 170.5zM283 1100q0 -52 38 -84.5t113 -32.5q103 0 230 31q6 43 6 73q0 87 -45.5 135t-137.5 48q-88 0 -146 -46t-58 -124z" />
<glyph unicode="&#xe2da;" horiz-adv-x="372" d="M100 858q0 177 85 321.5t225 252.5q25 22 41 12l41 -43q11 -9 13.5 -15.5t0 -10.5t-11.5 -13q-121 -128 -177.5 -245t-56.5 -255q0 -168 102 -340q7 -10 6 -16.5t-12 -16.5l-41 -30q-25 -16 -41 -6q-79 77 -126.5 180.5t-47.5 224.5z" />
<glyph unicode="&#xe2db;" horiz-adv-x="378" d="M35.5 509.5q-2.5 6.5 0 10t11.5 12.5q120 128 176 245t56 255q0 170 -101 340q-8 9 -7.5 16.5t15.5 16.5l39 29q23 21 41 8q172 -172 172 -406q0 -178 -84 -323t-223 -252q-25 -20 -41 -10l-41 43q-11 9 -13.5 15.5z" />
<glyph unicode="&#xe2dc;" horiz-adv-x="307" d="M68 432l59 273q1 2 2.5 7t2.5 7l3 6t4.5 6t6 4t9 3t11.5 1h123q38 0 24 -32l-127 -275q-10 -31 -45 -31h-39q-24 0 -31 6.5t-3 24.5z" />
<glyph unicode="&#xe2dd;" horiz-adv-x="333" d="M96 621q0 48 35 82t88 34q41 0 67.5 -24t26.5 -62q0 -49 -37 -84t-88 -35q-41 0 -66.5 25t-25.5 64z" />
<glyph unicode="&#xe2f4;" horiz-adv-x="759" d="M29 313q0 232 109 380.5t296 148.5q159 0 234 -90t75 -252q0 -233 -108.5 -372.5t-304.5 -139.5q-146 0 -223.5 85t-77.5 240zM182 322q0 -213 164 -213q56 0 101 25.5t72.5 66t46 93.5t25.5 104.5t7 103.5q0 215 -168 215q-67 0 -117.5 -38t-77.5 -99t-40 -126t-13 -132 z" />
<glyph unicode="&#xe2f5;" horiz-adv-x="759" d="M100 7q-5 7 0 26l6 63q5 21 10.5 26t28.5 5h134l77 561l-135 -22q-13 -5 -20.5 0.5t-3.5 23.5l6 58q5 20 10 27t23 13l196 50q39 11 63.5 -1t18.5 -51l-92 -659h137q24 0 29.5 -5.5t1.5 -25.5l-8 -63q-5 -20 -12 -26.5t-29 -6.5h-414q-22 0 -27 7z" />
<glyph unicode="&#xe2f6;" horiz-adv-x="759" d="M20 80q0 46 36.5 102.5t93.5 108t118 95t117 73.5q96 50 133 83.5t37 78.5q0 43 -37 66.5t-100 23.5q-45 0 -101 -16.5t-102 -45.5q-13 -7 -18.5 -9.5t-14.5 -1t-16 12.5l-39 64q-11 25 18 45q60 41 136.5 63.5t146.5 22.5q125 0 199.5 -50.5t74.5 -150.5 q0 -56 -17 -99.5t-62 -82t-73.5 -57t-99.5 -58.5q-7 -4 -10 -6q-60 -34 -98 -57.5t-85 -66.5t-71 -89h416q16 0 22 -3.5t6 -11t-1 -18.5l-11 -63q-4 -33 -34 -33h-467q-97 0 -97 80z" />
<glyph unicode="&#xe2f7;" horiz-adv-x="759" d="M10 92q0 8 6 14q26 43 41 62q9 12 19 12q3 0 26 -10q87 -55 199 -55q98 0 150.5 43t52.5 108q0 47 -41 79t-119 32h-45q-26 0 -34 7t-3 26l10 63q5 18 12.5 24.5t26.5 6.5h41q76 0 121 32.5t45 88.5q0 46 -38.5 66t-96.5 20q-92 0 -199 -47q-30 -13 -37 -13t-14 13 l-31 65l-4 16q0 13 21 25q124 72 293 72q110 0 184 -53t74 -142q0 -66 -34 -118t-95 -83q0 -1 -1 -2t-1 -2v-2q112 -40 112 -174q0 -118 -98 -198t-250 -80q-173 0 -278 80q-15 12 -15 24z" />
<glyph unicode="&#xe2f8;" horiz-adv-x="759" d="M0 238q0 1 2 13t2 13q8 41 39 72l436 457q19 19 27.5 26.5t25.5 16t35 8.5h45q37 0 51.5 -15t10.5 -53l-68 -473h80q21 0 25 -8t2 -29l-8 -51q-7 -25 -13 -30q-7 -5 -24 -5h-80l-21 -147q-4 -23 -11.5 -28t-31.5 -5h-69q-21 0 -27.5 5.5t-5.5 27.5l22 145h-383 q-21 0 -34 3t-22 17t-5 40zM195 309l2 -6h266l49 340h-4q-2 0 -2 2z" />
<glyph unicode="&#xe2f9;" horiz-adv-x="759" d="M27 98l41 70q17 19 41 4q98 -55 210 -55q102 0 163 43.5t61 126.5q0 58 -43.5 87t-110.5 29q-90 0 -182 -36q-7 -3 -20 -8t-17.5 -6.5t-13 -2.5t-15 0.5t-14.5 5.5l-33 15q-32 17 -22 61l80 324q8 36 33 55.5t61 15.5h422q17 0 21.5 -6t2.5 -24l-8 -66q-4 -19 -12 -25 t-25 -6h-371l-47 -196q75 26 187 26q123 0 195.5 -63t72.5 -172q0 -144 -102.5 -226.5t-266.5 -82.5q-153 0 -280 77q-22 16 -8 35z" />
<glyph unicode="&#xe2fa;" horiz-adv-x="759" d="M35 305q0 113 29.5 209.5t86 171.5t148 117.5t207.5 42.5q81 0 151 -23q25 -9 19 -32l-19 -64q-5 -18 -11.5 -21t-29.5 1q-78 12 -110 12q-225 0 -295 -217q111 24 221 24q130 0 206.5 -56.5t76.5 -172.5q0 -66 -22.5 -119.5t-58.5 -88.5t-85.5 -58t-101 -33t-105.5 -10 q-153 0 -230 82.5t-77 234.5zM176 293q0 -84 46.5 -132t137.5 -48q89 0 146 45t57 123q0 54 -37 86t-112 32q-118 0 -232 -32q-6 -41 -6 -74z" />
<glyph unicode="&#xe2fb;" horiz-adv-x="759" d="M74 9.5q-5 9.5 10 29.5l473 661h-438q-17 0 -22 8t-3 29l8 54q4 23 12 29.5t27 6.5h533q33 0 47 -11.5t10 -45.5l-4 -33q-5 -29 -27 -65l-458 -645q-17 -27 -47 -27h-97q-19 0 -24 9.5z" />
<glyph unicode="&#xe2fc;" horiz-adv-x="759" d="M27 205q0 73 44 141t119 98v5q-75 37 -75 131q0 122 96.5 193t232.5 71q125 0 194 -53.5t69 -143.5q0 -54 -28 -109.5t-97 -88.5l2 -5q102 -42 102 -170q0 -47 -18.5 -94t-57 -91.5t-111 -72.5t-167.5 -28q-152 0 -228.5 60t-76.5 157zM178 227q0 -52 38.5 -84t123.5 -32 q100 0 150.5 49t50.5 110q0 57 -46 87t-118 30q-75 0 -137 -43.5t-62 -116.5zM258 596q0 -42 39.5 -70t95.5 -28q74 0 121 34t47 93q0 43 -35.5 69.5t-99.5 26.5q-74 0 -121 -36.5t-47 -88.5z" />
<glyph unicode="&#xe2fd;" horiz-adv-x="759" d="M55 537q0 81 32.5 142.5t86.5 97t116.5 52.5t131.5 17q153 0 233 -82.5t80 -235.5q0 -112 -29.5 -208t-86 -170.5t-148 -117t-207.5 -42.5q-84 0 -151 22q-28 6 -19 33l19 61q5 18 11.5 21.5t29.5 -0.5q70 -12 110 -12q119 0 189 56t104 161q-113 -25 -219 -25 q-130 0 -206.5 57t-76.5 173zM205 553q0 -53 38 -85t113 -32q119 0 230 31q6 41 6 74q0 84 -46.5 132t-137.5 48q-89 0 -146 -45t-57 -123z" />
<glyph unicode="&#xe2fe;" horiz-adv-x="372" d="M23 311q0 177 84.5 321.5t224.5 252.5q28 21 39 10l43 -41q12 -18 12 -23t-12 -18q-121 -128 -176.5 -244.5t-55.5 -253.5q0 -170 101 -340q7 -10 6.5 -16t-13.5 -16l-40 -31q-14 -12 -20.5 -13.5t-18.5 7.5q-80 77 -127 180t-47 225z" />
<glyph unicode="&#xe2ff;" horiz-adv-x="378" d="M-44 -32q0 1 1.5 4t2.5 4l4.5 4.5t4.5 5.5q121 128 176.5 244t55.5 253q0 170 -101 340q-7 10 -6.5 16.5t12.5 16.5l41 31q13 12 20 13.5t19 -7.5q79 -77 126.5 -181t47.5 -225q0 -177 -84.5 -321t-224.5 -252q-25 -22 -39 -10l-41 41q-4 4 -7 7.5t-5 6t-2.5 5.5t-0.5 4z " />
<glyph unicode="&#xe300;" horiz-adv-x="307" d="M-10 -115l57 273q0 1 2 6.5t3 7t3 5.5t4.5 5.5t6 4t9 3t11.5 0.5h123q23 0 27 -10t-3 -22l-124 -273q-6 -18 -15 -25t-31 -7h-40q-24 0 -30.5 6t-2.5 26z" />
<glyph unicode="&#xe301;" horiz-adv-x="333" d="M18 72q0 48 35 82t86 34q43 0 68.5 -24t25.5 -62q0 -48 -35.5 -82t-86.5 -34q-41 0 -67 24.5t-26 61.5z" />
<glyph unicode="&#xe360;" horiz-adv-x="847" d="M47 586q14 22 210.5 423t209.5 423q19 32 37 45.5t51 13.5h51q39 0 52.5 -12t19.5 -47l180 -840q15 -45 -27 -45h-94q-14 0 -20.5 1t-13 8t-9.5 22q-3 18 -35 182h-358q-43 -82 -90 -185q-16 -28 -47 -28h-101q-36 0 -16 39zM358 895h273l-43 227l-31 185h-6 q-6 -15 -42 -96t-40 -85q-7 -11 -56.5 -114.5t-54.5 -116.5z" />
<glyph unicode="&#xe361;" horiz-adv-x="882" d="M133 627l109 784q6 42 28.5 61t69.5 19h295q268 0 268 -197q0 -71 -33.5 -129.5t-97.5 -89.5v-8q111 -44 111 -190q0 -148 -106 -239t-255 -91h-315q-86 0 -74 80zM293 686h244q53 0 92.5 18t60 47t30 58t9.5 57q0 59 -38 94t-113 35h-244zM354 1120h246q49 0 96 35.5 t47 106.5q0 43 -29 67.5t-79 24.5h-250z" />
<glyph unicode="&#xe362;" horiz-adv-x="927" d="M129 602q0 3 1 11t1 12l111 784q6 43 26 62.5t66 19.5h241q188 0 282.5 -99.5t94.5 -283.5q0 -257 -132 -409t-365 -152h-254q-40 0 -56 12.5t-16 42.5zM291 684h174q86 0 151.5 32.5t105.5 90.5t59.5 133t19.5 166q0 246 -252 246h-166q-16 -111 -46.5 -333.5 t-45.5 -334.5z" />
<glyph unicode="&#xe363;" horiz-adv-x="794" d="M156 784l63 469q14 106 79.5 172t197.5 66h364q22 0 26.5 -10.5t-1.5 -30.5l-6 -55q-5 -27 -10.5 -34t-30.5 -7h-363q-90 0 -102 -86l-23 -154h414q23 0 28 -9t-1 -34l-9 -47q-1 -3 -2 -9.5t-1.5 -8.5t-1.5 -6.5t-2 -6l-3 -4.5t-4 -4t-5.5 -2t-7.5 -1.5t-10 -0.5h-413 l-31 -213q-10 -82 82 -82h389q22 0 25.5 -9t-2.5 -32l-7 -57q-1 -4 -2.5 -11.5t-2.5 -10.5t-3.5 -8t-5.5 -6.5t-9 -3t-15 -1.5h-390q-234 0 -204 237z" />
<glyph unicode="&#xe364;" horiz-adv-x="944" d="M125 578l125 884q4 18 12.5 22.5t28.5 4.5h82q17 0 24.5 -6.5t5.5 -20.5l-49 -352h447l49 352q4 18 11.5 22.5t27.5 4.5h80q21 0 27 -5t5 -22l-124 -884q-4 -20 -12 -25.5t-29 -5.5h-80q-12 0 -16.5 0.5t-10.5 3.5t-5 9t1 18l57 399h-448l-55 -399q-4 -22 -11 -26.5 t-28 -4.5h-82q-15 0 -21.5 1t-10.5 8t-1 22z" />
<glyph unicode="&#xe365;" horiz-adv-x="366" d="M135 578l125 884q4 18 12.5 22.5t28.5 4.5h80q25 0 31 -4.5t2 -22.5l-125 -884q-4 -22 -10.5 -26.5t-30.5 -4.5h-80q-15 0 -21.5 1t-10.5 8t-1 22z" />
<glyph unicode="&#xe366;" horiz-adv-x="755" d="M153 712.5q0 34.5 3 71.5l94 676q3 15 8.5 22t11 8t19.5 1h78q23 0 29.5 -4.5t2.5 -26.5l-96 -682q-12 -92 86 -92h377q22 0 26.5 -9t-1.5 -26l-11 -65q-1 -15 -3 -22t-9.5 -12t-22.5 -5h-387q-55 0 -95.5 13t-62.5 35t-34.5 52.5t-12.5 65z" />
<glyph unicode="&#xe367;" horiz-adv-x="1110" d="M126 560q1 6 1 18l117 839q7 40 24 57t62 17h41q35 0 47.5 -11t23.5 -50q5 -18 57.5 -209t57.5 -209l51 -207h6q4 11 55 105t60 108l225 412q24 38 41 49.5t52 11.5h51q45 0 57 -17t6 -57l-119 -839q-1 -22 -9 -26.5t-34 -4.5h-73q-23 0 -29 4.5t-2 26.5l90 641h-4 q0 -2 -18.5 -37.5t-40.5 -76.5t-25 -48l-192 -350q-19 -32 -36.5 -43t-52.5 -11h-45q-35 0 -47.5 9.5t-23.5 42.5q-5 19 -49.5 176.5t-49.5 175.5l-36 147h-5q-4 -29 -45 -313t-45 -313q-1 -22 -8 -26.5t-29 -4.5h-75q-12 0 -16.5 0.5t-10.5 3.5t-5 9z" />
<glyph unicode="&#xe368;" horiz-adv-x="948" d="M125 565v10l117 842q6 42 23.5 58t58.5 16h41q33 0 47.5 -12.5t29.5 -46.5l205 -426q18 -36 52.5 -111t52.5 -113h6l96 678q5 21 11.5 26t29.5 5h78q14 0 19 -1t8.5 -6t3.5 -16v-8l-119 -842q-5 -38 -23.5 -54.5t-58.5 -16.5h-43q-30 0 -42.5 8.5t-29.5 40.5 q-133 279 -221 469q-19 40 -52.5 115.5t-39.5 87.5q-1 0 -3 -1t-3 -1q-15 -110 -48 -341t-49 -350q-1 -5 -2 -8.5t-2 -6.5t-2.5 -5t-2.5 -3.5t-3.5 -2.5t-4 -1.5t-5 -0.5h-5h-7h-7.5h-75q-18 0 -24.5 3.5t-6.5 14.5z" />
<glyph unicode="&#xe369;" horiz-adv-x="966" d="M150 893q0 148 40 266.5t108.5 192.5t156.5 112.5t188 38.5q172 0 262 -98.5t90 -280.5q0 -270 -134 -431t-357 -161q-175 0 -264.5 93t-89.5 268zM305 913q0 -117 50.5 -181t166.5 -64q85 0 149.5 40.5t100.5 108.5t53 146t17 163q0 242 -215 242q-79 0 -142 -37.5 t-101.5 -102t-58.5 -145t-20 -170.5z" />
<glyph unicode="&#xe36a;" horiz-adv-x="860" d="M125 578l117 833q6 44 27 62t67 18h309q122 0 192 -62t70 -167q0 -85 -49.5 -159.5t-126.5 -103.5v-6q43 -23 62.5 -55t27.5 -90l37 -264q5 -37 -29 -37h-92q-24 0 -30 26l-35 242q-19 129 -162 129h-180l-51 -366q-3 -15 -8.5 -22t-11 -8t-19.5 -1h-82q-15 0 -21.5 1 t-10.5 8t-1 22zM350 1071h217q84 0 135.5 48.5t51.5 117.5q0 50 -32 83.5t-104 33.5h-229z" />
<glyph unicode="&#xe36b;" horiz-adv-x="782" d="M96 651l37 78q9 18 37 6q65 -29 143.5 -46t139.5 -17q90 0 148 38.5t58 108.5q0 47 -46 79.5t-152 72.5q-136 52 -196 111.5t-60 150.5q0 133 90.5 202.5t251.5 69.5q135 0 262 -53q13 -7 15.5 -13t-5.5 -28l-22 -68q-9 -21 -21.5 -24t-23.5 4q-115 43 -222 43 q-80 0 -126 -34t-46 -89q0 -18 6.5 -33.5t24.5 -31t32 -25.5t46 -25t49 -22.5t59 -24.5q57 -24 94.5 -44.5t75 -51.5t56 -72.5t18.5 -93.5q0 -96 -53.5 -162t-137 -95.5t-188.5 -29.5q-185 0 -336 74q-25 14 -8 45z" />
<glyph unicode="&#xe36c;" horiz-adv-x="751" d="M153.5 1363.5q-3.5 7.5 0.5 27.5l10 63q1 2 2.5 10t2.5 9.5t3 6t5.5 5.5t8.5 2.5t13 1.5h667q22 0 27.5 -9t-0.5 -26l-10 -63q-1 -3 -2 -9.5t-1.5 -7.5t-2 -5.5t-2.5 -5.5t-3.5 -3t-5.5 -2.5t-7.5 -1t-10.5 -0.5h-262l-109 -778q-4 -22 -10 -26.5t-27 -4.5h-84 q-24 0 -29.5 4.5t-4.5 26.5l110 778h-254q-21 0 -24.5 7.5z" />
</font>
</defs>
</svg>
